<svg width="44" height="44" viewBox="0 0 44 44" fill="none" xmlns="http://www.w3.org/2000/svg">
<path d="M18.2347 36.4694C28.3055 36.4694 36.4694 28.3055 36.4694 18.2347C36.4694 8.16396 28.3055 0 18.2347 0C8.16396 0 0 8.16396 0 18.2347C0 28.3055 8.16396 36.4694 18.2347 36.4694Z" fill="#ECEFF1"/>
<path d="M25 43C34.9411 43 43 34.7173 43 24.5C43 14.2827 34.9411 6 25 6C15.0589 6 7 14.2827 7 24.5C7 34.7173 15.0589 43 25 43Z" stroke="#49D3FF" stroke-width="2" stroke-miterlimit="10"/>
<path d="M25 33C29.4183 33 33 29.4183 33 25C33 20.5817 29.4183 17 25 17C20.5817 17 17 20.5817 17 25C17 29.4183 20.5817 33 25 33Z" stroke="#2F53EB" stroke-width="2" stroke-miterlimit="10"/>
</svg>
