<svg viewBox="0 0 59 64" xmlns="http://www.w3.org/2000/svg">
  <circle cx="29.37" cy="29.35" r="17.6" />
  <path d="M29.39,64V58.74h0a29.43,29.43,0,0,1-5.92-.6A29.16,29.16,0,0,1,13,53.72,29.15,29.15,0,0,1,5,45.79,29.16,29.16,0,0,1,.6,35.29a29.51,29.51,0,0,1,0-11.84,28.91,28.91,0,0,1,1.71-5.52A29.36,29.36,0,0,1,50.14,8.6a29.88,29.88,0,0,1,3.59,4.34,29.36,29.36,0,0,1,2.7,5,28.94,28.94,0,0,1,1.72,5.52,30.18,30.18,0,0,1,.6,5.92,29.17,29.17,0,0,1-.43,5,29.86,29.86,0,0,1-1.27,4.83A29.25,29.25,0,0,1,55,43.78a30.14,30.14,0,0,1-2.84,4.15,47.61,47.61,0,0,1-9.65,9.37,48.18,48.18,0,0,1-6.29,3.86A47.61,47.61,0,0,1,29.4,64Zm-.05-52.26a17.5,17.5,0,0,0-3.54.36,17.27,17.27,0,0,0-3.3,1,17.7,17.7,0,0,0-5.59,3.78,17.35,17.35,0,0,0-2.15,2.61,16.93,16.93,0,0,0-1.62,3,17.3,17.3,0,0,0-1,3.3,17.52,17.52,0,0,0,1,10.39,16.93,16.93,0,0,0,1.62,3,17.86,17.86,0,0,0,2.15,2.61,18.44,18.44,0,0,0,2.6,2.15,17.61,17.61,0,0,0,3,1.62,17.3,17.3,0,0,0,3.3,1,17.63,17.63,0,0,0,7.09,0,17.58,17.58,0,0,0,6.31-2.66,17.49,17.49,0,0,0,2.62-2.16,17.89,17.89,0,0,0,3.77-5.59,17.27,17.27,0,0,0,1-3.3A16.87,16.87,0,0,0,47,29.34a17.22,17.22,0,0,0-1.38-6.85,18.46,18.46,0,0,0-1.63-3,17.27,17.27,0,0,0-2.15-2.6,18,18,0,0,0-2.61-2.16,17.43,17.43,0,0,0-9.85-3Zm0,33h0l-.45-.65a26.13,26.13,0,0,1-3.54-7.35l-.22-.7h8.41l-.21.7a25.86,25.86,0,0,1-3.54,7.35l-.45.65Zm-3.55-.71h0l-1.32-.46a15.1,15.1,0,0,1-8.17-6.7l-.48-.83h6.74l.11.42a27.25,27.25,0,0,0,2.46,6.33l.66,1.23Zm8.36-.42h-1l.42-.82A28.17,28.17,0,0,0,36,36.49l.12-.42H42.9l-.48.83a15.21,15.21,0,0,1-8.17,6.71l-.08,0Zm9.68-10.1h-7.2l.08-.63A28.11,28.11,0,0,0,37,29.36a28.56,28.56,0,0,0-.25-3.57l-.08-.62h7.2l.11.41a15.56,15.56,0,0,1,.5,3.78,15.4,15.4,0,0,1-.5,3.76l-.11.42Zm-9.77,0H24.63l-.06-.48a25.41,25.41,0,0,1-.3-3.7h0a25.66,25.66,0,0,1,.3-3.71l.07-.47h9.44l.07.47a28.84,28.84,0,0,1,.3,3.71h0a28.54,28.54,0,0,1-.3,3.7Zm-12,0H14.89l-.11-.42a16,16,0,0,1-.49-3.77,15,15,0,0,1,.49-3.77l.11-.41h7.19l-.08.62a30.27,30.27,0,0,0-.25,3.56A30.27,30.27,0,0,0,22,32.91l.08.63Zm20.81-10.9H36.15L36,22.22a27.74,27.74,0,0,0-2.45-6.34l-.67-1.24,1.33.46a15.23,15.23,0,0,1,4.68,2.62,14.84,14.84,0,0,1,1.92,1.88,16.3,16.3,0,0,1,1.56,2.21l.48.83Zm-9.32,0H25.16l.21-.71a26.13,26.13,0,0,1,3.54-7.35l.46-.64.45.64a26.16,26.16,0,0,1,3.55,7.35l.2.71Zm-11,0H15.84l.48-.83a15.11,15.11,0,0,1,8.16-6.71l1.33-.45-.66,1.23a28.4,28.4,0,0,0-2.45,6.34l-.11.42Z" />
</svg>
