<svg xmlns="http://www.w3.org/2000/svg" width="49.563" height="54" viewBox="0 0 49.563 54">
  <path id="Path_69" data-name="Path 69" d="M-2439.2-7047v-4.436h-.019a24.886,24.886,0,0,1-5-.5,24.5,24.5,0,0,1-4.651-1.443,24.858,24.858,0,0,1-4.21-2.284,24.962,24.962,0,0,1-3.667-3.025,24.956,24.956,0,0,1-3.026-3.668,24.838,24.838,0,0,1-2.285-4.209,24.623,24.623,0,0,1-1.443-4.652,24.971,24.971,0,0,1-.5-5,24.96,24.96,0,0,1,.5-4.995,24.648,24.648,0,0,1,1.443-4.653,24.815,24.815,0,0,1,2.285-4.209,24.838,24.838,0,0,1,3.026-3.667,25,25,0,0,1,3.667-3.026,24.858,24.858,0,0,1,4.21-2.284,24.75,24.75,0,0,1,4.651-1.443,24.957,24.957,0,0,1,5-.5,24.942,24.942,0,0,1,5,.5,24.754,24.754,0,0,1,4.652,1.443,24.844,24.844,0,0,1,4.21,2.284,25.032,25.032,0,0,1,3.667,3.026,24.882,24.882,0,0,1,3.026,3.667,24.815,24.815,0,0,1,2.285,4.209,24.684,24.684,0,0,1,1.443,4.653,24.96,24.96,0,0,1,.5,4.995,24.675,24.675,0,0,1-.36,4.235,24.739,24.739,0,0,1-1.072,4.084,24.918,24.918,0,0,1-1.75,3.84,24.824,24.824,0,0,1-2.4,3.509,39.976,39.976,0,0,1-8.14,7.9,40.13,40.13,0,0,1-5.3,3.261A39.37,39.37,0,0,1-2439.2-7047Zm-.046-44.1a14.918,14.918,0,0,0-2.988.3,14.746,14.746,0,0,0-2.784.866,14.841,14.841,0,0,0-2.521,1.373,15.036,15.036,0,0,0-2.2,1.815,14.988,14.988,0,0,0-1.813,2.2,14.839,14.839,0,0,0-1.37,2.523,14.835,14.835,0,0,0-.866,2.788,14.927,14.927,0,0,0-.3,2.992,14.937,14.937,0,0,0,.3,2.992,14.824,14.824,0,0,0,.866,2.788,14.857,14.857,0,0,0,1.37,2.523,15.01,15.01,0,0,0,1.813,2.2,14.977,14.977,0,0,0,2.2,1.816,14.836,14.836,0,0,0,2.521,1.372,14.75,14.75,0,0,0,2.784.867,14.917,14.917,0,0,0,2.988.3,14.953,14.953,0,0,0,3-.3,14.775,14.775,0,0,0,2.794-.87,14.857,14.857,0,0,0,2.529-1.375,15.055,15.055,0,0,0,2.2-1.82,14.988,14.988,0,0,0,1.812-2.2,14.793,14.793,0,0,0,1.369-2.521,14.775,14.775,0,0,0,.864-2.785,14.87,14.87,0,0,0,.3-2.987,14.892,14.892,0,0,0-.3-2.992,14.8,14.8,0,0,0-.867-2.788,14.869,14.869,0,0,0-1.372-2.523,14.989,14.989,0,0,0-1.816-2.2,15.07,15.07,0,0,0-2.2-1.815,14.876,14.876,0,0,0-2.526-1.373,14.8,14.8,0,0,0-2.79-.866A14.987,14.987,0,0,0-2439.245-7091.1Zm.019,27.873h0l-.38-.548a22.1,22.1,0,0,1-2.989-6.2l-.186-.594h7.1l-.177.594a22.033,22.033,0,0,1-2.989,6.2l-.38.548Zm-3-.6h0l-1.113-.38a12.735,12.735,0,0,1-6.887-5.663l-.408-.7h5.69l.093.352a23.1,23.1,0,0,0,2.07,5.347l.556,1.039Zm7.054-.353h-.854l.362-.686a23.942,23.942,0,0,0,2.07-5.347l.1-.352h5.689l-.408.7a12.806,12.806,0,0,1-6.887,5.663l-.074.027Zm8.168-8.52h-6.07l.064-.529a24.979,24.979,0,0,0,.214-3,25.053,25.053,0,0,0-.214-3.007l-.064-.529h6.07l.093.352a13.189,13.189,0,0,1,.418,3.185,13.146,13.146,0,0,1-.418,3.173l-.093.353Zm-8.242,0h-7.973l-.055-.4a22.107,22.107,0,0,1-.251-3.127v-.01a22.09,22.09,0,0,1,.251-3.127l.065-.4h7.964l.055.4a21.969,21.969,0,0,1,.251,3.127v.01a21.964,21.964,0,0,1-.251,3.127l-.055.4Zm-10.127,0h-6.07l-.093-.353a13.64,13.64,0,0,1-.408-3.183,12.681,12.681,0,0,1,.408-3.175l.093-.352h6.07l-.065.529a24.983,24.983,0,0,0-.213,3,25.021,25.021,0,0,0,.213,3.007l.065.529Zm17.561-9.2h-5.69l-.093-.354a23.1,23.1,0,0,0-2.07-5.346l-.566-1.048,1.123.39a12.889,12.889,0,0,1,2.085.933,12.9,12.9,0,0,1,1.87,1.278,12.79,12.79,0,0,1,1.614,1.587,12.826,12.826,0,0,1,1.318,1.863l.408.7Zm-7.862,0h-7.1l.176-.6a22.033,22.033,0,0,1,2.989-6.2l.389-.547.38.547a22.112,22.112,0,0,1,2.989,6.2l.176.6Zm-9.272,0h-5.69l.4-.7a12.723,12.723,0,0,1,6.887-5.661l1.123-.382-.556,1.04a24.019,24.019,0,0,0-2.07,5.346l-.093.354Z" transform="translate(2463.999 7101)" fill="#fff"/>
</svg>
