<svg viewBox="0 0 59 64" xmlns="http://www.w3.org/2000/svg">
  <path d="M29.522 64v-5.258H29.5a29.83 29.83 0 01-5.947-.6 29.418 29.418 0 01-10.55-4.418 29.6 29.6 0 01-7.967-7.933A29.125 29.125 0 01.598 35.288a29.495 29.495 0 01-.6-5.92c0-1.99.202-3.973.602-5.921a29.142 29.142 0 014.438-10.503A29.509 29.509 0 018.64 8.597a29.703 29.703 0 014.365-3.586A29.457 29.457 0 0123.554.593a29.847 29.847 0 0111.893 0A29.456 29.456 0 0150.36 8.597a29.52 29.52 0 013.602 4.347 29.16 29.16 0 014.438 10.503 29.474 29.474 0 01.175 10.94 29.251 29.251 0 01-6.211 13.548 47.512 47.512 0 01-9.69 9.36 47.944 47.944 0 01-6.313 3.867 47.17 47.17 0 01-6.83 2.834l-.01.004zm-.055-52.263c-1.195 0-2.386.12-3.557.36a17.577 17.577 0 00-6.315 2.651 17.789 17.789 0 00-4.77 4.76 17.445 17.445 0 00-3.021 9.836 17.46 17.46 0 003.021 9.836 17.78 17.78 0 007.77 6.384 17.616 17.616 0 006.872 1.386 17.724 17.724 0 0016.32-10.769 17.415 17.415 0 001.383-6.841 17.432 17.432 0 00-3.025-9.836 17.828 17.828 0 00-2.161-2.608 17.759 17.759 0 00-5.628-3.777 17.635 17.635 0 00-3.32-1.027 17.877 17.877 0 00-3.569-.354v-.001zm.022 33.034l-.452-.649a26.134 26.134 0 01-3.559-7.35l-.22-.699h8.452l-.21.7a26.065 26.065 0 01-3.557 7.35l-.453.648zm-3.57-.715l-1.324-.451a15.143 15.143 0 01-8.2-6.71l-.485-.825h6.772l.11.417a27.29 27.29 0 002.464 6.336l.663 1.232v.001zm8.398-.418h-1.016l.43-.814a28.302 28.302 0 002.464-6.336l.122-.417h6.773l-.487.825a15.225 15.225 0 01-8.199 6.71l-.088.033h.001zm9.724-10.1h-7.226l.076-.627c.157-1.178.242-2.365.254-3.553a29.487 29.487 0 00-.254-3.564l-.076-.627h7.226l.11.417c.321 1.233.49 2.5.502 3.773a15.505 15.505 0 01-.502 3.762l-.11.418v.001zm-9.811 0h-9.492l-.065-.473a26.013 26.013 0 01-.301-3.707v-.01c.012-1.242.112-2.48.3-3.708l.078-.473h9.48l.066.473c.189 1.227.29 2.466.301 3.707v.01a25.984 25.984 0 01-.301 3.708l-.066.473zm-12.053 0h-7.226l-.11-.418a16.1 16.1 0 01-.486-3.772c.002-1.27.165-2.534.486-3.763l.11-.417h7.226l-.077.627a29.472 29.472 0 00-.255 3.553c.013 1.192.098 2.382.255 3.564l.077.627zm20.904-10.9h-6.773l-.11-.418a27.267 27.267 0 00-2.465-6.336l-.673-1.243 1.337.462c.858.295 1.689.665 2.481 1.107a15.236 15.236 0 014.147 3.395 15.184 15.184 0 011.57 2.209l.486.825zm-9.359 0H25.27l.21-.705c.793-2.62 1.994-5.1 3.56-7.348l.462-.648.453.648a26.17 26.17 0 013.558 7.348l.21.705zm-11.037 0h-6.772l.476-.825a15.132 15.132 0 018.198-6.71l1.336-.451-.663 1.232a28.345 28.345 0 00-2.463 6.336l-.11.418h-.002z" fill="#2F53EB"/>
</svg>
