<svg xmlns="http://www.w3.org/2000/svg" fill="none" viewBox="0 0 336 191">
  <path fill="#E7F3FE" d="M45 185S-25 59 27 30c42-24 79 17 123-11 58-37 102-12 133 34 24 34 36 56 48 83 18 42-21 51-21 51l-265-2z"/>
  <path fill="#75A1DE" d="M238 186h-32l-1-1 1-1 32-3c3 0 5 1 5 2 0 2-2 3-5 3z"/>
  <path fill="#F09959" d="M197 182l3-7s-23-7-33-13l-13 16c17 5 42 4 43 4z"/>
  <path fill="#F09959" d="M193 173c6 1 15-2 17-2l10 6c2 2 8 7 7 8l-10-5c-1-1-1 1-9 2-7 2-16-2-16-2l1-7z"/>
  <path fill="#E38540" d="M202 179s9-3 10-2c1 0 8 2 12 7-4-2-10-2-12-2l-10-3z"/>
  <path fill="#F09959" d="M204 175c4 5 14 6 15 8 2 1-3 1-6 1-6-1-11 2-16 0-6-2-7-6-7-6l14-3z"/>
  <path fill="#A2DFF2" d="M135 90c-17 9-25 15-30 37-5 23-6 44-3 60l72 3s-1-33-6-59c-5-25-13-34-19-39-7-4-14-2-14-2z"/>
  <path fill="#96CFE0" d="M139 167c-6-6-5-47-15-65l-18 34-6 29 2 22 1 1c15-2 16-8 64-16 2 0-24-1-28-5z"/>
  <path fill="#fff" d="M133 90c-2 5 2 12 9 17s11 2 11-2c-1-4-1-8-3-11-1-2-14-4-14-4h-3z"/>
  <path fill="#F09959" d="M141 65l-6 25v5c3 5 8 13 13 12 5-2 1-12 1-12l8-26-16-4z"/>
  <path fill="#E38540" d="M151 67l-6-3-2 5c1 22 3 31 8 33l-2-7 6-19-4-9z"/>
  <path fill="#F09959" d="M169 77c-1 8-4 16-11 15-6-1-16-8-15-17s15-19 21-18 6 11 5 20zM122 109c1-2-7-3-8-1-12 15-32 57-27 65 5 9 58-3 59-3l-2-8s-30 0-35-3c16-30 10-35 13-50z"/>
  <path fill="#A2DFF2" d="M119 100c-13 6-27 44-27 44l14 4 9 3s11-13 14-24c4-13-2-30-10-27z"/>
  <path fill="#fff" d="M94 140c12 2 19 6 23 9l2-3c-3-2-8-7-16-8l-8-1-1 3z"/>
  <path fill="#fff" d="M97 134l-1 1c11 0 21 5 23 8l1 1 1-1-8-6c-6-3-16-3-16-3z"/>
  <path fill="#75A1DE" d="M168 172h-14l-2-25h18l-2 25z"/>
  <path fill="#F09959" d="M142 162c4 0 10-5 12-6 3-1 14-4 15-2 1 1-10 4-10 4h8l2 6v5l-4-3-6 4c-4 2-10 1-13 0l-9-2 5-6z"/>
  <path fill="#E38540" d="M93 160s6-3 13-2l3 1 2-4c-3 0-11 1-18 5z"/>
  <path fill="#6791C9" d="M285 117v63c0 2-2 3-4 3h-13c-2 0-4 2-4 4h19c4 0 7-3 7-6v-64h-5z"/>
  <path fill="#95BEF5" d="M276 171l-2-1c-2 0-3-1-2-2l16-64c0-1 2-2 3-1h2l2 3-16 63-3 2z"/>
  <path fill="#75A1DE" d="M276 171l-2-2 17-65 2-1h1l1 2-16 65-3 1z"/>
  <path fill="#2E5B9A" d="M320 191H40a2 2 0 110-5h280a2 2 0 010 5z"/>
  <path fill="#F09959" d="M144 55c-13 8-5 16-8 31 2 0 4-4 6-7l3-8 1 8 2 1 3-6c0-1-3-7 0-9 2-2 9 2 9 2l-7-11-9-1z"/>
  <path fill="#2E5B9A" d="M144 55c-13 8-5 16-8 31 2 0 4-4 6-7l3-8 1 8 2 1 3-6c0-1-3-7 0-9 2-2 9 2 9 2l-7-11-9-1z" opacity=".5"/>
  <path fill="#2E5B9A" d="M172 63c-1 8-13 5-18-1-6-7-10-2-15 0-9 3 1-18 19-15 13 3 14 11 14 16z"/>
  <path fill="#F09959" d="M145 71c1 3 0 6-2 6-2 1-4-1-5-4 0-3 1-6 3-6 2-1 4 1 4 4z"/>
  <path fill="#9EC8FF" d="M280 88h-62l-1-1V51l1-1h62l2 1v36l-2 1z"/>
  <path fill="#fff" d="M278 87h-58l-1-1V57l1-1h58l2 1v29l-2 1zM222 54h-2v-1-1h2v2zM226 54h-2v-1l1-1h1v2zM230 54h-1-1v-1l1-1h1l1 1v1h-1z"/>
  <path fill="#9EC8FF" d="M278 85h-57V58h57v27zm-57 0h56V58h-56v27zM277 80h-56 56z"/>
  <path fill="#9EC8FF" d="M277 74h-56v1h56v-1zM277 69h-56 56zM277 63h-56v1h56v-1z"/>
  <path fill="#9EC8FF" d="M270 58h-1v27h1V58zM261 58v27-27zM253 58v27-27zM245 58v27-27zM237 58v27-27zM229 58v27-27z"/>
  <path fill="#F39892" d="M275 62h-2l-1-2 1-1h2l2 1-2 2zM276 73h-3l-1-1v-1l1-1h3l1 1v1l-1 1z"/>
  <path fill="#9EC8FF" d="M235 68h-4l-1-1v-2l1-1h4l1 1v2l-1 1z"/>
  <path fill="#fff" d="M235 68h-3l-1-1v-2h4v3z"/>
  <path fill="#9EC8FF" d="M268 84h-5-1v-3h6v3z"/>
  <path fill="#fff" d="M267 84h-3l-1-1v-1l1-1h3l1 1v1l-1 1z"/>
  <path fill="#9EC8FF" d="M252 65h-3 3zM252 67h-3v-1h3v1zM244 82h-3v-1h4l-1 1zM244 83h-3v-1h3l1 1h-1zM226 71h-3-1 4zM226 73h-3l-1-1h4v1zM260 65h-4 4zM260 67h-4v-1h4v1z"/>
  <path fill="#9CD499" d="M236 79h-5l-1-1v-2l1-1h5l1 1v2l-1 1z"/>
  <path fill="#fff" d="M233 79v-1l-1-1 1 1 2-2-2 2v1z"/>
  <path fill="#9CD499" d="M260 63h-5l-1-1v-2l1-1h5l1 1v2l-1 1z"/>
  <path fill="#fff" d="M257 62l-1-1v-1l1 1 2-2v1l-2 2z"/>
  <path fill="#9EC8FF" d="M259 77a2 2 0 11-4 0 2 2 0 014 0zM235 83a2 2 0 11-3 0 2 2 0 013 0z"/>
  <path fill="#9EC8FF" d="M246 105h-37l-1-1V83h39v21l-1 1z"/>
  <path fill="#fff" d="M245 104h-36V84h37v19l-1 1z"/>
  <path fill="#9EC8FF" d="M244 103h-34V86v-1h34l1 1v16l-1 1z"/>
  <path fill="#fff" d="M227 100a6 6 0 100-12 6 6 0 000 12z"/>
  <path fill="#9EC8FF" d="M233 94a5 5 0 11-11 0 5 5 0 0111 0z"/>
  <path fill="#fff" d="M230 94l-2 1-2 1v-5l2 2 2 1z"/>
  <path fill="#9EC8FF" d="M205 30h-24a1 1 0 010-2h24a1 1 0 010 2zM269 123h-25a1 1 0 010-2h25a1 1 0 010 2zM269 127h-25a1 1 0 010-2h25l1 1-1 1zM269 131h-25a1 1 0 010-2h25a1 1 0 010 2zM221 34h-40l-1-1 1-1h40l1 1-1 1z"/>
  <path fill="#74B570" d="M49 95c-6 6-3 12 1 22 5 11 6 51 6 51l-4-1s1-41-5-52c-5-11-7-16-12-13-4 4 14-7 14-7z"/>
  <path fill="#9CD499" d="M53 88c-1-4-6-8-12-11 1 5 4 14 1 15-4 3 0-9-2-15l-19-7v1c4 9 8 12 7 14-2 1-7-10-13-15-5 0-8 0-11 2-3 3-6 5-2 14 2 2 5 3 8 3 8 1 12 1 6 4-3 1-8 0-11-1a144 144 0 008 13h6c4-2 14-7 17-5 2 2-19 3-17 9 10 6 21 3 23-2 3-7 13-9 11-19z"/>
  <path fill="#74B570" d="M32 127c11-9 22-1 28 8s2 28 2 28h-3c0-1 7-24-8-34-9-6-15-3-16 0s4 8 4 8l-7-10z"/>
  <path fill="#9CD499" d="M57 110c-11 0-14 17-11 27l7 28 3-3s-11-26-8-37c2-12 8-14 9-14v-1z"/>
  <path fill="#74B570" d="M48 137l-3-3 1 3 4 16 1-4v-1l-3-11z"/>
  <path fill="#9CD499" d="M45 137c-21-9-10-21-28-13-2 0-3 2-5 4h6c6-1 4 4-5 5l-5 1c-4 8-6 19 3 23l7 1c3-2-1-15 3-13 5 2-1 11 0 13 4 0 9 0 13-2 2-1 3-2 3-4 2-5-7-9-8-14 0-4 4 10 13 12 9-4 13-9 3-13zM60 121c-2-4 3-6 3-2 0 3 0 11 3 13 6-1 13-3 19-6v-2c-3-5-18-9-14-10 4-2 11 6 17 10 3-3 5-6 5-9 0-5-5-10-12-12-4 0-7 2-11 4-7 4-6-2 1-6-6 1-11 3-15 9l-3 6c-7 10 1 17 11 16 0-3-3-8-4-11z"/>
  <path fill="#74B570" d="M33 126c-6 4-12 9-19 12-7 4-6 15-6 15s-1-10 5-13 10-7 15-8l7-1-1-4c1-1-1-1-1-1zM6 77c20 6 34 18 37 21l3 4-2 4h-1s1-4-3-8c-7-7-16-13-22-16L6 77z"/>
  <path fill="#F39892" d="M60 186h-7c-5 0-10-4-10-9v-18h27v18c0 5-4 9-10 9z"/>
</svg>
