<svg xmlns="http://www.w3.org/2000/svg" fill="none" viewBox="0 0 320 192">
  <path fill="#E7F3FE" d="M117 187C36 182-29 96 14 46 47 7 92 64 134 35c64-43 168-51 182 4s-32 141-66 146-133 2-133 2z"/>
  <path fill="#303C60" d="M128 70c1 21 0 32-7 40-8 9-29 7-29 7s-2 30-31 32c-30 1-34-38-11-48 22-10 29-13 37-36 6-22 28-18 33-9l8 14z"/>
  <path fill="#E38540" d="M118 175l15 3s16-7 17-6l13 6c2 1-1 1-3 1-1 0-10-4-11-3s7 2 7 3l-25 6-12-1-1-9z"/>
  <path fill="#6791C9" d="M106 100c8 1 12 9 14 16 1 7-14-16-14-16z"/>
  <path fill="#75A1DE" d="M94 94l-22 15c-8 4 2 55 5 74s47 2 47 2-3-16 1-42c3-18-7-29-13-37-15-20-18-12-18-12z"/>
  <path fill="#6791C9" d="M80 109c16 20 22 24 18 37-3 11-5 15-5 19-1 3 31-3 31-3l-1 12s-24 12-36 14c-13 3-20 0-20 0l13-79z"/>
  <path fill="#2E5B9A" d="M287 190H91a3 3 0 110-5h196a3 3 0 110 5z"/>
  <path fill="#F09959" d="M99 74l-7 22s8 22 15 17c2-2-1-15-1-15l5-18-12-6zM75 108c-10 1-11 15-16 38-4 23-3 39-1 42 6 7 66-18 74-18 5 0 1-8 1-8l-58 8s8-26 8-40-4-23-8-22z"/>
  <path fill="#F09959" d="M129 162c6-1 15-5 17-3l11 15c2 3-1 1-4-2l-5-3-6 4c-3 2-4-1-9-2s-18 3-18 3l14-12z"/>
  <path fill="#75A1DE" d="M76 106c-6 0-11 6-12 14l-7 34s-1 1 9 3c11 1 19-1 19-1s3-14 2-25c-1-10-3-19-7-23-3-3-4-2-4-2z"/>
  <path fill="#E38540" d="M106 98l5-18-12-6-2 5c0 18 5 24 8 26 1 1 1 0 2-1l-1-6z"/>
  <path fill="#F09959" d="M130 76c0 9-1 21-10 21-13 0-21-10-21-20s7-17 15-17c9 0 16 6 16 16z"/>
  <path fill="#9BD6E8" d="M226 185h-48l20-44 3-2h44c1 0 2 1 1 2l-20 44z"/>
  <path fill="#9BD6E8" d="M226 185h-89c0-4 2-6 5-6h84v6z"/>
  <path fill="#7BCEE8" d="M245 139h-39l-3 2-20 44h43l20-44c1-1 0-2-1-2z"/>
  <path fill="#303C60" d="M116 56c9 0 14 8 16 15v7l-8 1-8 1v-9l-2 8s-2 2-6 0c-5-2-7-9-7-9s-1-5 3-8c3-4 12-6 12-6z"/>
  <path fill="#D54A41" d="M109 78c-1 6-6 10-11 9-4-1-8-6-7-12s6-10 11-9c4 1 8 6 7 12z"/>
  <path fill="#F39892" d="M105 78c-1 5-4 9-8 8-4 0-7-5-6-10 1-6 5-10 9-9 4 0 6 5 5 11z"/>
  <path fill="#F2E5DE" d="M99 76c0 3-2 6-3 5-2 0-3-2-2-5 0-3 2-6 3-5 2 0 3 2 2 5z"/>
  <path fill="#D54A41" d="M99 66c4-15 19-13 22-11 4 2 4 4 4 4s-4-3-11-2c-6 1-10 5-11 9 0 3-4 0-4 0z"/>
  <path fill="#303C60" d="M35 116h-1c1-4 3-8 6-11 4-4 9-7 15-9 14-4 25-10 33-33h1c-4 11-9 19-15 24-5 5-11 7-19 9-6 2-11 5-15 9-3 3-5 7-5 11z"/>
  <path fill="#303C60" d="M41 101v-1s6-5 14-6c16-4 27-14 32-29v1c-3 9-8 16-15 21-5 3-10 6-17 7-8 2-14 6-14 6v1z"/>
  <path fill="#9EC8FF" d="M249 96h-44l-1-1 9-24 1-1h44l1 1-9 24-1 1z"/>
  <path fill="#fff" d="M248 95h-42v-1l8-22 1-1h42v1l-8 22-1 1z"/>
  <path fill="#9EC8FF" d="M247 93h-39v-1l7-19h40s1 0 0 0l-7 19-1 1z"/>
  <path fill="#fff" d="M235 87c4-3 5-7 3-10-2-2-7-2-10 1-4 3-5 8-3 10 2 3 7 2 10-1z"/>
  <path fill="#9EC8FF" d="M238 83c-2 3-5 6-9 6-3 0-5-3-4-6 2-4 5-6 9-6 3 0 5 2 4 6z"/>
  <path fill="#fff" d="M235 83l-3 1-3 1 1-2 1-3 2 1 2 2z"/>
  <path fill="#9CD499" d="M183 68h-6v-2l1-4 4-2h3l2 1v2l-1 3-3 2zm-1-7l-2 2-2 3v1h5l2-1 1-4v-1h-4zM177 83h-3l-2-1v-2l1-3 3-3h4l2 1v2l-2 4c0 1-1 2-3 2zm-1-7l-2 1-1 4 1 1h3l2-2 1-3v-1h-4z"/>
  <path fill="#9EC8FF" d="M172 98h-4l-1-1v-2l1-4 3-2h4l1 1v2l-1 3c0 2-2 3-3 3zm-1-8l-2 2-1 3v1h4l2-1 1-4v-1h-4zM211 66h-19l-1-1 1-1h19l1 1-1 1zM210 68h-19s-1 0 0 0v-1h19l1 1h-1zM206 79h-19v-1h20l-1 1zM205 82h-19v-1l1-1h18l1 1-1 1zM200 94h-19l1-1h19v1h-1zM199 97h-18l-1-1 1-1h19v1l-1 1z"/>
  <path fill="#F37168" d="M182 66h-1l-1-3v-1h1l1 3 8-6h1l-1 1-8 6zM176 81l-2-4h2l1 2 7-6a1 1 0 011 1l-8 7h-1z"/>
  <path fill="#9EC8FF" d="M302 49h-73l2-6h72l-1 6zM299 56h-73l2-5h73l-2 5zM218 118h-53l-1-1 2-1h53l1 1-2 1zM216 124h-53l-1-1 2-2h53l1 2-2 1z"/>
  <path fill="#9CD499" d="M266 171s11-30 4-49c-5-14-6-30-6-30s-10 14-4 36l7 21-2 24 1-2z"/>
  <path fill="#74B570" d="M265 173c0-1 2-20 1-24l-2-10-4-11c-3-11-2-20-1-26l4-10h1s1 16 6 29c3 8 3 17 2 29l-5 20a24 24 0 00-1 2l-1 1zm-2-80l-3 9c-2 6-3 15 1 26l3 11 3 10-2 23 1-1v-1c6-21 8-37 3-48-4-12-5-25-6-29z"/>
  <path fill="#9CD499" d="M268 174c-1-33 7-51 23-65s17-18 17-18-3 28-12 37c-9 10-23 17-25 22s-1 22-1 22l-2 3v-1z"/>
  <path fill="#9CD499" d="M266 177s4-31 17-32c13-2 16 1 25-1l11-3s-3 9-15 13c-8 2-19-2-25-1s-9 14-9 14l-2 7-2 3z"/>
  <path fill="#74B570" d="M268 173c0-1-2-22 7-38 5-9 10-14 15-19 5-4 9-8 12-15h1v1l-13 15c-5 5-10 10-14 18a75 75 0 00-8 38z"/>
  <path fill="#74B570" d="M267 169v-1c3-12 7-19 12-22 5-2 10-1 15-1l3 1c11 1 16-1 16-1 0 1-5 3-16 2l-4-1c-4-1-9-2-13 1-5 3-9 10-12 21l-1 1zM284 123v-1s7-5 16-7v1c-9 2-15 7-15 7h-1zM274 137c5-8 10-10 22-14h1l-1 1c-11 3-17 5-21 13h-1z"/>
  <path fill="#F39892" d="M271 185h-8c-2 0-5-2-5-4l-3-14h25l-3 14c0 2-3 4-6 4z"/>
  <path fill="#D54A41" d="M279 171h-23a1 1 0 110-2h23a1 1 0 110 2z"/>
</svg>
