<svg width="500" height="413" viewBox="0 0 500 413" fill="none" xmlns="http://www.w3.org/2000/svg">
<g clip-path="url(#clip0)">
<path d="M250 412.463C388.071 412.463 500 405.928 500 397.867C500 389.806 388.071 383.271 250 383.271C111.929 383.271 0 389.806 0 397.867C0 405.928 111.929 412.463 250 412.463Z" fill="#F5F5F5"/>
<path d="M468.242 184.924H30.1719V200.642H468.242V184.924Z" fill="#C2C4C4"/>
<path opacity="0.3" d="M147.416 184.924H30.1719V200.642H147.416V184.924Z" fill="white"/>
<path d="M149.285 200.642H139.086L144.424 397.635H149.285H154.146L159.497 200.642H149.285Z" fill="#C2C4C4"/>
<path opacity="0.3" d="M144.424 397.635H149.285V204.871L139.254 206.715L144.424 397.635Z" fill="white"/>
<path d="M52.6202 200.642H42.4082L47.7592 397.635H52.6202H57.4812L62.8193 200.642H52.6202Z" fill="#C2C4C4"/>
<path opacity="0.3" d="M47.7595 397.635H52.6205V204.871L42.5762 206.715L47.7595 397.635Z" fill="white"/>
<path d="M445.795 200.642H435.596L440.934 397.635H445.795H450.656L456.007 200.642H445.795Z" fill="#C2C4C4"/>
<path opacity="0.3" d="M440.934 397.635H445.795V204.871L435.764 206.715L440.934 397.635Z" fill="white"/>
<path d="M349.129 200.642H338.93L344.268 397.635H349.129H353.99L359.328 200.642H349.129Z" fill="#C2C4C4"/>
<path opacity="0.3" d="M344.267 397.635H349.128V204.871L339.084 206.715L344.267 397.635Z" fill="white"/>
<path d="M238.111 100.779H133.877C130.137 100.779 127.713 103.835 128.5 107.587L142.386 173.797C143.173 177.536 146.874 180.605 150.613 180.605H254.847C258.586 180.605 261.01 177.549 260.224 173.797L246.337 107.587C245.551 103.848 241.85 100.779 238.111 100.779Z" fill="#5D5E5E"/>
<path d="M151.58 176.814C149.13 176.814 146.538 174.648 146.01 172.172L132.123 105.962C131.904 104.944 132.084 104.028 132.6 103.383C133.09 102.777 133.889 102.442 134.83 102.442H239.065C241.515 102.442 244.106 104.608 244.635 107.084L258.522 173.294C258.728 174.313 258.56 175.228 258.045 175.873C257.542 176.492 256.768 176.814 255.814 176.814H151.58Z" fill="white"/>
<path d="M230.22 171.528L217.068 108.799C216.732 107.213 217.945 105.717 219.569 105.717H236.486C237.698 105.717 238.742 106.568 238.987 107.742L252.139 170.471C252.474 172.056 251.262 173.552 249.638 173.552H232.721C231.509 173.552 230.464 172.701 230.22 171.528Z" fill="#E8EAEB"/>
<path d="M140.813 111.158L140.246 108.438H161.134L161.702 111.158H140.813Z" fill="#2F53EB"/>
<path d="M150.458 117.902L149.891 115.181H186.496L187.064 117.902H150.458Z" fill="#EBEBEB"/>
<path d="M152.38 124.658L151.812 121.925H192.854L193.421 124.658H152.38Z" fill="#EBEBEB"/>
<path d="M154.313 131.402L153.746 128.681H186.78L187.361 131.402H154.313Z" fill="#EBEBEB"/>
<path d="M147.157 142.349L146.59 139.628H159.806L160.373 142.349H147.157Z" fill="#2F53EB"/>
<path d="M156.802 149.105L156.234 146.385H172.326L172.906 149.105H156.802Z" fill="#EBEBEB"/>
<path d="M176.762 149.105L176.182 146.385H192.286L192.853 149.105H176.762Z" fill="#EBEBEB"/>
<path d="M158.736 155.849L158.156 153.128H212.581L213.149 155.849H158.736Z" fill="#EBEBEB"/>
<path d="M160.657 162.605L160.09 159.885H201.582L202.15 162.605H160.657Z" fill="#EBEBEB"/>
<path d="M286.772 180.205H149.632C145.893 180.205 143.469 182.333 144.256 184.924H295.011C294.212 182.32 290.511 180.205 286.772 180.205Z" fill="#5D5E5E"/>
<path d="M104.569 84.0424L91.4173 21.3136C91.0821 19.7276 92.2941 18.2319 93.9188 18.2319H200.422C201.634 18.2319 202.679 19.0829 202.924 20.2563L216.076 82.9851C216.411 84.5711 215.199 86.0668 213.574 86.0668H107.071C105.859 86.0668 104.814 85.2287 104.569 84.0424Z" fill="#E8EAEB"/>
<path d="M142.427 20.295H120.069L119.566 17.8967H141.924L142.427 20.295Z" fill="#2F53EB"/>
<path opacity="0.4" d="M138.791 24.1375H129.817L129.314 21.7263H138.289L138.791 24.1375Z" fill="#2F53EB"/>
<path opacity="0.4" d="M153.724 24.1375H139.901L139.398 21.7263H153.221L153.724 24.1375Z" fill="#2F53EB"/>
<path opacity="0.4" d="M159.743 27.9669H130.616L130.113 25.5686H159.241L159.743 27.9669Z" fill="#2F53EB"/>
<path opacity="0.4" d="M156.044 31.8091H131.417L130.914 29.3979H155.541L156.044 31.8091Z" fill="#2F53EB"/>
<path opacity="0.4" d="M172.38 72.5669H156.701L157.204 74.9781H172.883L172.38 72.5669Z" fill="#2F53EB"/>
<path d="M152.832 67.3062H129.868L129.365 64.895H152.329L152.832 67.3062Z" fill="#2F53EB"/>
<path opacity="0.4" d="M162.065 76.4092H140.713L141.216 78.8074H162.568L162.065 76.4092Z" fill="#2F53EB"/>
<path opacity="0.4" d="M155.591 72.5669H139.912L140.415 74.9781H156.094L155.591 72.5669Z" fill="#2F53EB"/>
<path opacity="0.4" d="M170.458 68.7373H139.113L139.616 71.1356H170.961L170.458 68.7373Z" fill="#2F53EB"/>
<path d="M141.641 2.41116H116.343L115.84 0H141.138L141.641 2.41116Z" fill="#2F53EB"/>
<path opacity="0.4" d="M154.135 11.5015H126.232L126.735 13.9126H154.625L154.135 11.5015Z" fill="#2F53EB"/>
<path opacity="0.4" d="M148.552 7.67188H125.434L125.936 10.083H149.042L148.552 7.67188Z" fill="#2F53EB"/>
<path opacity="0.4" d="M150.085 3.82959H124.633L125.136 6.24075H150.588L150.085 3.82959Z" fill="#2F53EB"/>
<path d="M141.345 38.0498H123.77L123.268 35.6387H140.855L141.345 38.0498Z" fill="#2F53EB"/>
<path opacity="0.4" d="M168.977 47.1528H134.615L135.118 49.5511H169.467L168.977 47.1528Z" fill="#2F53EB"/>
<path opacity="0.4" d="M148.049 43.3105H133.814L134.317 45.7217H148.552L148.049 43.3105Z" fill="#2F53EB"/>
<path opacity="0.4" d="M163.497 43.3105H149.262L149.765 45.7217H163.999L163.497 43.3105Z" fill="#2F53EB"/>
<path opacity="0.4" d="M164.361 39.481H133.016L133.518 41.8792H164.864L164.361 39.481Z" fill="#2F53EB"/>
<path opacity="0.4" d="M164.308 58.6543H137.012L137.515 61.0655H164.811L164.308 58.6543Z" fill="#2F53EB"/>
<path opacity="0.4" d="M144.156 54.8247H136.213L136.716 57.223H144.646L144.156 54.8247Z" fill="#2F53EB"/>
<path opacity="0.4" d="M156.572 54.8247H145.238L145.741 57.223H157.075L156.572 54.8247Z" fill="#2F53EB"/>
<path opacity="0.4" d="M166.772 50.9824H135.414L135.917 53.3936H167.262L166.772 50.9824Z" fill="#2F53EB"/>
<path opacity="0.4" d="M191.462 50.3377H180.231L179.729 47.9395H190.959L191.462 50.3377Z" fill="#2F53EB"/>
<path opacity="0.4" d="M210.158 50.3377H192.854L192.352 47.9395H209.655L210.158 50.3377Z" fill="#2F53EB"/>
<path opacity="0.4" d="M217.507 54.1802H181.03L180.527 51.769H217.004L217.507 54.1802Z" fill="#2F53EB"/>
<path opacity="0.4" d="M212.66 58.0096H181.831L181.328 55.6113H212.157L212.66 58.0096Z" fill="#2F53EB"/>
<path opacity="0.4" d="M226.469 35.0842H191.539L192.042 37.4825H226.972L226.469 35.0842Z" fill="#2F53EB"/>
<path opacity="0.4" d="M219.674 31.2419H190.74L191.243 33.6531H220.177L219.674 31.2419Z" fill="#2F53EB"/>
<path d="M214.452 27.4124H182.578L183.081 29.8106H214.942L214.452 27.4124Z" fill="#2F53EB"/>
<path opacity="0.4" d="M228.043 73.3533H185.029L185.532 75.7644H228.546L228.043 73.3533Z" fill="#2F53EB"/>
<path opacity="0.4" d="M202.048 69.5237H184.229L184.731 71.9219H202.551L202.048 69.5237Z" fill="#2F53EB"/>
<path opacity="0.4" d="M221.39 69.5237H203.57L204.073 71.9219H221.893L221.39 69.5237Z" fill="#2F53EB"/>
<path opacity="0.4" d="M222.679 65.6814H183.43L183.933 68.0926H223.182L222.679 65.6814Z" fill="#2F53EB"/>
<path opacity="0.4" d="M221.595 84.8674H187.426L187.929 87.2657H222.097L221.595 84.8674Z" fill="#2F53EB"/>
<path opacity="0.4" d="M196.568 81.0251H186.627L187.13 83.4363H197.071L196.568 81.0251Z" fill="#2F53EB"/>
<path opacity="0.4" d="M212.119 81.0251H197.936L198.438 83.4363H212.622L212.119 81.0251Z" fill="#2F53EB"/>
<path opacity="0.4" d="M225.077 77.1956H185.828L186.331 79.5938H225.58L225.077 77.1956Z" fill="#2F53EB"/>
<path opacity="0.4" d="M120.547 87.8333H93.8047L94.3075 90.2444H121.05L120.547 87.8333Z" fill="#2F53EB"/>
<path opacity="0.4" d="M112.628 84.0039H93.0039L93.5068 86.4151H113.131L112.628 84.0039Z" fill="#2F53EB"/>
<path opacity="0.4" d="M133.646 84.0039H114.021L114.524 86.4151H134.149L133.646 84.0039Z" fill="#2F53EB"/>
<path opacity="0.4" d="M131.454 80.1743H92.2051L92.7079 82.5726H131.957L131.454 80.1743Z" fill="#2F53EB"/>
<path d="M431.739 159.885H415.184L417.118 184.924H429.805L431.739 159.885Z" fill="#E8EAEB"/>
<path d="M70.9435 142.49H94.7456L86.6225 184.924H62.8203L70.9435 142.49Z" fill="#5D5E5E"/>
<path d="M101.257 131.105H67.6426L77.0551 184.924H110.67L101.257 131.105Z" fill="#C2C4C4"/>
<path d="M65.6562 131.105H67.6419L77.0545 184.924H75.0688L65.6562 131.105Z" fill="#9D9E9E"/>
<path d="M81.8913 179.174L74.4902 136.856H96.4228L103.824 179.174H81.8913Z" fill="white"/>
<path d="M102.779 179.174L95.3906 136.856H96.4221L103.823 179.174H102.779Z" fill="#E8EAEB"/>
<path d="M267.755 62.2777C268.232 63.3092 268.078 64.4052 267.394 64.7146C266.724 65.0241 265.782 64.4438 265.305 63.4123C264.828 62.3808 264.983 61.2848 265.666 60.9754C266.337 60.653 267.278 61.2461 267.755 62.2777Z" fill="#9D9E9E"/>
<path d="M268.167 64.3535C268.167 64.3535 268.58 71.4065 267.316 75.4681C269.934 76.332 272.68 74.1142 272.68 74.1142L268.167 64.3535Z" fill="#DBDDDE"/>
<path d="M267.884 53.8062C267.78 53.8965 267.651 53.9481 267.497 53.9481C264.557 54.1157 263.306 56.1658 263.255 56.2561C263.061 56.5784 262.662 56.6816 262.339 56.5011C262.017 56.3205 261.914 55.9079 262.094 55.5856C262.159 55.4695 263.732 52.8134 267.419 52.6071C267.793 52.5813 268.103 52.865 268.129 53.2389C268.141 53.471 268.038 53.6773 267.884 53.8062Z" fill="#C2C4C4"/>
<path d="M307.829 67.5642C308.113 60.7562 305.083 54.09 301.202 44.1359C296.109 31.0873 279.23 27.2578 269.289 37.8953C259.206 48.6875 266.182 68.3249 274.189 78.4724C279.269 84.9194 287.457 87.2016 294.484 85.3062C297.862 89.4065 296.637 95.544 288.682 99.9537C288.682 99.9537 280.894 113.002 301.215 107.329C319.692 102.171 319.601 91.3277 319.601 91.3277C315.088 86.2861 311.272 78.0727 307.829 67.5642Z" fill="white" stroke="#C2C4C4" stroke-miterlimit="10"/>
<path d="M323.896 88.6972C323.535 83.6428 323.058 77.8921 319.937 77.7503C316.508 77.5956 296.651 86.4537 292.409 92.7201C288.167 98.9737 296.445 105.098 296.445 105.098L323.896 88.6972Z" fill="white" stroke="#C2C4C4" stroke-miterlimit="10"/>
<path d="M266.105 166.203L257.04 173.256L255.248 180.605L266.414 180.579C266.414 180.579 281.371 179.032 282.042 175.112L283.266 166.783L266.105 166.203Z" fill="white" stroke="#C2C4C4" stroke-miterlimit="10"/>
<path d="M352.082 107.071L351.721 110.759C351.605 111.945 351.437 113.118 351.295 114.279C350.999 116.613 350.625 118.946 350.225 121.267C349.451 125.922 348.446 130.551 347.298 135.206C346.086 139.848 344.758 144.528 343.017 149.221C342.128 151.581 341.199 153.941 340.09 156.339C338.982 158.737 337.782 161.148 336.222 163.624C335.861 164.23 335.436 164.862 335.01 165.481C334.598 166.1 334.159 166.718 333.669 167.363C333.179 167.995 332.741 168.614 332.148 169.259L331.31 170.213C331.039 170.522 330.755 170.832 330.356 171.218C327.364 174.158 324.295 175.938 321.42 177.227C315.669 179.754 310.447 180.721 305.393 181.289C302.879 181.585 300.39 181.701 297.94 181.753C295.49 181.817 293.079 181.766 290.681 181.637C288.283 181.534 285.91 181.289 283.551 181.018C281.152 180.721 278.896 180.36 276.395 179.857L276.807 166.383C285.085 164.733 293.75 163.044 301.177 160.568C303.033 159.975 304.813 159.279 306.412 158.557C308.023 157.86 309.48 157.087 310.563 156.313C311.646 155.539 312.356 154.792 312.433 154.482L312.82 153.889C312.975 153.696 313.129 153.36 313.297 153.09C313.465 152.832 313.632 152.509 313.8 152.174C313.967 151.852 314.148 151.542 314.303 151.155C315.656 148.293 316.972 144.696 318.029 140.931C319.086 137.14 320.092 133.168 320.879 129.094C321.755 125.045 322.452 120.881 323.161 116.716L324.141 110.449L325.017 104.351L352.082 107.071Z" fill="white" stroke="#C2C4C4" stroke-miterlimit="10"/>
<path d="M201.056 166.099L192.855 170.341L187.35 180.205L200.489 180.463C200.489 180.463 209.282 183.351 216.412 175.95L218.14 167.711L201.056 166.099Z" fill="white" stroke="#C2C4C4" stroke-miterlimit="10"/>
<path d="M283.55 386.74H269.444L262.34 354.041H276.459L283.55 386.74Z" fill="#FCFCFC" stroke="#C2C4C4" stroke-miterlimit="10"/>
<path d="M268.658 383.71H284.518C285.098 383.71 285.601 384.11 285.717 384.677L288.502 397.223C288.786 398.525 287.767 399.75 286.439 399.737C280.908 399.647 278.213 399.312 271.237 399.312C266.944 399.312 261.438 399.763 255.519 399.763C249.73 399.763 248.815 393.909 251.252 393.367C262.121 390.982 262.895 387.707 266.376 384.574C266.995 384.019 267.807 383.71 268.658 383.71Z" fill="white" stroke="#C2C4C4" stroke-miterlimit="10"/>
<g opacity="0.2">
<path d="M276.459 354.054H262.34L266.285 372.157L280.133 370.906L276.459 354.054Z" fill="black"/>
</g>
<path d="M313 37.9855C309.519 29.3724 294.214 26.742 294.214 26.742C294.214 26.742 294.614 23.9698 295.632 22.9383C280.778 21.636 270.347 30.9325 270.347 30.9325C270.347 30.9325 270.36 28.6116 269.999 28.0056C267.356 29.8237 260.393 38.5915 262.005 46.7534C263.617 54.9152 267.884 48.739 269.999 52.9295C268.336 57.8808 272.681 68.673 272.681 68.673C272.681 68.673 273.352 67.7833 274.383 66.4037C273.725 63.5154 273.79 60.1501 275.685 58.2418C278.316 55.5857 281.797 57.2232 282.803 60.8722C283.319 62.7418 283.37 64.6888 283.112 66.4939C286.864 68.3764 291.403 71.2002 294.472 74.9523C300.596 82.4308 310.641 75.4423 310.499 71.7804C310.344 68.1186 310.95 58.8607 312.24 50.4668C313.529 42.0729 309.145 36.6316 309.145 36.6316C309.145 36.6316 310.808 36.9282 313 37.9855Z" fill="white" stroke="#C2C4C4" stroke-miterlimit="10"/>
<path d="M309.312 208.159C309.312 208.159 243.759 231.923 241.825 263.384C238.266 321.316 261.965 367.18 261.965 367.18L283.679 364.859C283.679 364.859 279.823 346.215 276.935 293.736C273.312 227.784 385.231 295.284 362.19 208.172L309.312 208.159Z" fill="white" stroke="#C2C4C4" stroke-miterlimit="10"/>
<path d="M255.957 359.186C255.854 359.199 259.413 368.818 259.413 368.818L286.529 366.161L285.175 357.394L255.957 359.186Z" fill="white" stroke="#C2C4C4" stroke-miterlimit="10"/>
<path d="M222.575 388.339H208.456L204.33 355.653H218.449L222.575 388.339Z" fill="white" stroke="#C2C4C4" stroke-miterlimit="10"/>
<path d="M208.34 383.71L223.761 383.684C224.341 383.684 224.844 384.084 224.96 384.651L227.771 397.197C228.068 398.499 227.075 399.737 225.747 399.711C220.19 399.621 212.157 399.312 205.155 399.325C196.981 399.338 195.42 399.789 185.827 399.802C180.038 399.815 178.413 393.948 180.837 393.419C191.875 390.982 195.407 390.724 204.936 384.832C205.98 384.174 207.128 383.71 208.34 383.71Z" fill="white" stroke="#C2C4C4" stroke-miterlimit="10"/>
<path opacity="0.2" d="M204.344 355.653L206.587 373.459L220.577 372.505L218.463 355.653H204.344Z" fill="black"/>
<path d="M286.684 208.159C286.684 208.159 179.265 217.688 180.425 271.636C181.637 327.75 202.59 365.594 202.59 365.594H223.568C223.568 365.594 219.597 336.492 220.293 281.242C220.5 264.686 253.946 259.219 286.607 257.298C314.819 255.635 341.225 239.556 352.185 213.498L354.429 208.159H286.684Z" fill="white" stroke="#C2C4C4" stroke-miterlimit="10"/>
<path d="M197.689 359.946C197.599 359.959 201.287 369.643 201.287 369.643L226.597 367.837L225.127 359.057L197.689 359.946Z" fill="white" stroke="#C2C4C4" stroke-miterlimit="10"/>
<path d="M353.421 108.283C350.533 93.8291 336.35 84.4681 321.96 87.7044C321.844 87.7302 321.715 87.756 321.599 87.7818C312.187 89.9222 298.648 93.3907 290.692 96.4078C290.589 96.4465 290.473 96.4852 290.37 96.5368C283.498 99.18 278.534 104.75 276.419 111.352L273.763 115.826C271.506 119.552 269.25 123.266 266.929 126.915C262.3 134.2 257.478 141.33 252.398 147.751C249.845 150.936 247.24 153.94 244.648 156.455C244.326 156.79 244.004 157.048 243.681 157.344C243.372 157.628 242.985 157.976 242.882 158.092C242.585 158.453 242.147 158.789 241.67 159.162C240.716 159.936 239.426 160.684 237.918 161.329C231.883 164.049 223.128 165.468 215.031 166.564L212.891 179.87C214.27 180.347 215.366 180.76 216.604 181.108C217.803 181.482 219.015 181.791 220.24 182.075C222.677 182.681 225.166 183.068 227.719 183.403C232.812 183.97 238.137 184.048 243.862 183.042C246.711 182.5 249.69 181.688 252.733 180.347C253.494 180.012 254.241 179.651 255.015 179.225C255.776 178.826 256.537 178.374 257.284 177.872C258.122 177.356 258.587 176.969 259.167 176.543C259.721 176.118 260.302 175.705 260.817 175.267C265.059 171.85 268.695 168.291 272.022 164.617C275.452 160.864 278.624 157.022 281.615 153.115C283.988 168.304 285.999 186.807 286.682 208.159H362.176C362.602 198.824 361.029 146.307 353.421 108.283Z" fill="white" stroke="#C2C4C4" stroke-miterlimit="10"/>
<path opacity="0.2" d="M281.617 153.102C281.952 155.269 282.288 157.512 282.61 159.807C286.066 156.197 288.193 148.435 289.405 142.284C286.917 145.933 284.351 149.544 281.617 153.102Z" fill="black"/>
<path d="M393.69 139.422H324.63C320.092 139.422 316.12 142.723 314.87 147.519L301.241 200.036C298.095 212.156 296.367 224.664 296.07 237.261H238.331C231.24 237.261 226.611 243.579 227.977 251.38L230.26 264.403C231.459 271.249 237.493 276.806 243.721 276.806H306.153H321.381H376.012C381.621 276.806 386.16 271.804 386.16 265.64V241.232C386.16 227.307 387.926 213.446 391.395 200.049L403.425 153.657C405.295 146.526 400.434 139.422 393.69 139.422Z" fill="#9D9E9E"/>
<path d="M328.872 289.881H288.192L284.221 276.806H332.844L328.872 289.881Z" fill="#5D5E5E"/>
<path d="M315.799 289.881H301.268V387.114H315.799V289.881Z" fill="#9D9E9E"/>
<path opacity="0.7" d="M315.799 387.127H301.268V292.215L315.799 293.697V387.127Z" fill="white"/>
<path opacity="0.7" d="M312.086 387.127H308.785V293.336L312.086 293.685V387.127Z" fill="white"/>
<path d="M341.947 402.148H275.105C273.313 402.148 272.565 399.866 274.009 398.808L284.621 391.033C289.714 387.294 295.864 385.283 302.182 385.283H314.883C321.201 385.283 327.351 387.294 332.444 391.033L343.056 398.808C344.487 399.866 343.739 402.148 341.947 402.148Z" fill="#9D9E9E"/>
</g>
<defs>
<clipPath id="clip0">
<rect width="500" height="412.463" fill="white"/>
</clipPath>
</defs>
</svg>
