<svg xmlns="http://www.w3.org/2000/svg" fill="none" viewBox="0 0 394 192">
  <path fill="#E7F3FE" d="M20 191s-33-41-14-80c20-39 58-29 111-69C181-6 226-8 283 12c32 12 37 61 89 91 46 28 8 74-16 81-24 8-41 8-41 8l-295-1z"/>
  <path fill="#A2DFF2" d="M216 103c-8 17-19 62-21 65-3 2-20 12-22 17-3 5-2 3-1 3l72 1-9-49-19-37z"/>
  <path fill="#96CFE0" d="M204 189h34l-10-62-12-24-3 8c-1 46 5 59 0 67-4 7-7 10-9 11z"/>
  <path fill="#2E5B9A" d="M351 192H12a3 3 0 110-5h339a3 3 0 110 5z"/>
  <path fill="#A2DFF2" d="M259 83c12 11 38 21 38 21s4 37 1 58c-2 20-1 24-1 24h-54s-7-10-20-41c-9-20-7-42-7-42l33-15 10-5z"/>
  <path fill="#96CFE0" d="M243 186h54s-1-4 1-24c3-18 0-45-1-55l-4-2c-13 4-20 22-22 40-1 12-21 24-34 30l6 11z"/>
  <path fill="#2E5B9A" d="M230 45c-6 15 1 28 1 28l10-25-11-3z"/>
  <path fill="#F09959" d="M255 56l8 30-1 3c-1 2-4 7-10 8l-3 1-3-2-5-29 14-11z"/>
  <path fill="#E38540" d="M253 59l-3 1-9 7 5 26c8-6 10-9 7-34z"/>
  <path fill="#F09959" d="M254 69c-1 10-9 17-16 15-7-1-11-8-10-20 1-11 6-22 13-20s15 16 13 25z"/>
  <path fill="#A2DFF2" d="M297 104c11 3 13 25 17 48l2 25s0 5-4 7c-3 1-5 3-25 3l-46-1s0-7 2-11c3-5 34-13 37-13 1-6-3-27 2-41 3-10 6-15 11-17h4z"/>
  <path fill="#96CFE0" d="M252 187h35c20 0 22-2 25-3 4-2 5-6 5-6l-3-27c-2-15-5-33-10-42 5 16 6 29 6 35l-1 10c-1 3-4 5-7 4-8-2-17 2-17 2s7-3 14 0c6 2 20 17 5 23-5 2-32 3-52 4z"/>
  <path fill="#96CFE0" d="M245 176s2-5 8-5 5 10 5 13c-1 3-5 3-5 3l-12-1 4-10z"/>
  <path fill="#75A1DE" d="M232 189h-77l-2-2v-1l2-2h77l2 2v1l-2 2z"/>
  <path fill="#F09959" d="M243 177c-12-5-15-3-18-4-6-2-8 0-12 12-1 2 1 2 4 2 2 0 5-5 6-5l4-1-2 2c-1 3-3 4-1 4s2-3 6-3c3 1 2 3 11 3s16 0 16-6c0-5 0-7-5-8-3-1-9 4-9 4z"/>
  <path fill="#A86B48" d="M243 177c8-1 6 9 5 10h4s3-4 1-9c-2-4-6-5-6-5l-4 2v2z"/>
  <path fill="#2E5B9A" d="M252 176l-5 2c-3-1-5-2-4-3l4-2c3 0 5 2 5 3z"/>
  <path fill="#3E6BAB" d="M251 175l-4 2-4-2c0-2 2-2 4-2l4 2z"/>
  <path fill="#F0CEB4" d="M250 175l-3 1c-2 0-3-1-3-2l3-1 3 2z"/>
  <path fill="#75A1DE" d="M152 174H75c-5 0-8-3-9-7l-10-56c-1-5 3-10 8-10h78c4 0 8 3 8 7l11 56c1 5-3 10-9 10z"/>
  <path fill="#A8CEFF" d="M156 164l-10-55c-1-4-5-7-9-7H58c-2 2-2 5-2 8l11 57c0 4 4 7 8 7h72c6 0 10-5 9-10z"/>
  <path fill="#75A1DE" d="M137 181h-15c-2 0-4-2-4-5v-27c0-4-4-8-8-8h-8c-4 0-7 4-7 8v30c0 5 4 10 8 10l41-1c0-4-3-7-7-7z"/>
  <path fill="#A8CEFF" d="M95 150v29c0 5 4 9 9 10l39-1-7-1h-16c-3 0-5-3-5-6v-31c0-5-4-8-8-8h-3c-5 0-9 3-9 8z"/>
  <path fill="#F09959" d="M178 178c6-3 13-2 15 1 3 3 3 5-2 5l-20 1c-2-1 7-7 7-7z"/>
  <path fill="#F09959" d="M186 176c7-2 11 2 16 6 5 3 6 6 1 3-8-4-12-4-12-4l-5-5zM181 178l-9-1c-2 0-9 8-8 8 2 1 4 0 5-1 1-2 2-4 4-3l7 1 1-4z"/>
  <path fill="#F7A96F" d="M179 186c-4-2 2-13 3-13 2 0 9 6 9 6s-2 1-7-1c-1-1-2 7-4 8h-1z"/>
  <path fill="#2E5B9A" d="M228 69c0 12 4 14 7 16 2 2 15-1 17-4 4-8 0-15 2-15l4 7 2 2c2-11 7-14 6-25-1-8-6-7-6-7s-3-7-14-6c-7 0-13 3-20 5s8 18 18 12c9-6 4 7 6 8l1 7c1 6-8 11-10 11-8 2-9 1-11-2l-2-9z"/>
  <path fill="#F09959" d="M260 66c-1 3-3 5-5 4s-2-3-2-7c1-3 3-5 5-4s3 3 2 7z"/>
  <path fill="#B7E1FF" d="M91 57H25l-1-1V28l1-2h66l1 2v28l-1 1z"/>
  <path fill="#fff" d="M89 56H27l-1-1V36l1-1h62l1 1v19l-1 1zM29 31h-2-1v-2h3v2zM33 31h-1-1v-2h3v2h-1zM38 31h-1-1v-2h3v2h-1z"/>
  <path fill="#B7E1FF" d="M88 39H53a1 1 0 010-2h35l1 1-1 1zM62 55H28l-1-1 1-1h34l1 1-1 1zM68 55h-3-1v-2h5v2h-1zM74 55h-4v-2h4v2zM88 44H31v-1-1h57l1 1-1 1zM88 47H31v-1-1h57l1 1-1 1z"/>
  <path fill="#9EC8FF" d="M106 79H40l-1-1V49l1-1h66l2 1v29l-2 1z"/>
  <path fill="#fff" d="M105 78H42l-1-1V57l1-1h63l1 1v20l-1 1zM44 53h-1l-1-1v-1l1-1h1l1 1v1l-1 1zM49 53h-2v-2-1h2l1 1v1l-1 1zM54 53h-2v-2-1h2v3z"/>
  <path fill="#9EC8FF" d="M103 61H69l-1-1 1-1h34l1 1-1 1zM77 77H43a1 1 0 010-2h34a1 1 0 010 2zM84 77h-4v-2h4v2zM89 77h-3l-1-1v-1h4v2zM104 65H46l1-1h57v1zM104 68H46l1-1h57v1z"/>
  <path fill="#9CD499" d="M132 72a9 9 0 11-18 0 9 9 0 0118 0z"/>
  <path fill="#fff" d="M122 75l-3-3 1-1 2 2 5-4h1v1l-5 5h-1z"/>
  <path fill="#9EC8FF" d="M189 30h-56c-2 0-3-1-3-2V7c0-1 1-2 3-2h56c2 0 3 1 3 2v21c0 1-1 2-3 2z"/>
  <path fill="#9EC8FF" d="M137 26v14l17-16-17 2z"/>
  <path fill="#fff" d="M186 28h-51c-1 0-2-1-2-3V10c0-2 1-3 2-3h51c2 0 3 1 3 3v15c0 2-1 3-3 3z"/>
  <path fill="#9EC8FF" d="M163 12h-25l-1-1 1-1h25l1 1-1 1zM184 17h-46l-1-1 1-1h46l1 1-1 1zM184 19h-46l-1-1h48l-1 1zM175 27h-2v-2-1h2v3zM180 27h-2v-2-1h2v3zM184 27h-1l-1-1v-1l1-1h1l1 1v1l-1 1z"/>
</svg>
