<svg xmlns="http://www.w3.org/2000/svg" fill="none" viewBox="0 0 311 183">
  <path fill="#E7F3FE" d="M41 179s-73-46-24-95C67 35 134-15 179 4c44 20 40 44 90 80 49 35 37 64 29 78l-11 18-246-1z"/>
  <path fill="#303C60" d="M96 49c11-10 19-4 25 3l9 11 1 3c0 6 3 30 0 39-4 10-52 14-52 14l17-70z"/>
  <path fill="#303C60" d="M127 111l-1-1h1l3-2c6-7 3-31 0-43l1-1v1c1 2 3 12 3 22 1 11 0 18-3 21-1 2-2 3-4 3zM100 46c-20 12-8 51-34 64-7 4-30 24-15 49 9 17 38 13 48-1 9-15 1-112 1-112z"/>
  <path fill="#303C60" d="M45 134l2-8c2-4 6-9 13-14 12-8 20-15 29-51h1c-4 18-9 30-14 37-5 8-10 11-16 15-13 8-14 21-14 21h-1z"/>
  <path fill="#303C60" d="M45 124c3-5 7-9 11-12 18-11 20-17 35-54v1L76 95c-5 8-11 13-19 18l-11 11h-1z"/>
  <path fill="#F09959" d="M100 70c-8 15-6 29-6 29s0 5 4 6c3 1 8-2 7-7 0-4 1-15 3-18 2-4-8-10-8-10z"/>
  <path fill="#6791C9" d="M62 174c0 4-1 3 3 4 3 1 10-2 10-2l-7-13-6 11z"/>
  <path fill="#F09959" d="M94 91c-2 6-17 1-22 3-5 1-10 24-11 44s0 36 3 38c2 3 35 4 38 3s-25-14-25-14-2-23 0-35 23-28 23-28l-6-11zM101 93c6 8 20 7 25 13 4 7 14 43 14 43l11-36s9-2 6 4c-5 11-7 45-12 50-6 6-12 1-16-8-3-10-11-29-17-37s-12-20-12-20l1-9z"/>
  <path fill="#75A1DE" d="M78 94c11 12 32 12 36 10l5-1s3-2 7 2a166 166 0 0114 44s-5 7-5 13c0 7 2 7 2 7s-6-2-8-6l-15-40H76l1 42s-4-3-8 0c-5 3-6 10-5 11h-2s-4-19-1-49c3-31 9-34 12-34l5 1z"/>
  <path fill="#6791C9" d="M136 168zM137 150c-2 1-6 9-6 9s-8-19-11-44l-3 17 12 31c1 4 7 6 8 6l-1-2-2-1c-2-1-1-6 0-11 2-5 5-5 3-5zM78 123l-4-19c-5 7-5 29-3 44 1 12 3 15 5 16l1 1-1-42h2z"/>
  <path fill="#75A1DE" d="M66 104c8 21 4 25 14 50 6 14 17 24 17 24s9 2 20 1l19-1s-12-7-12-12c-1-5-3-24 0-37 2-11-7-22-7-22h-16l-35-3z"/>
  <path fill="#6791C9" d="M80 136c-2-5 5 2 17 3s25-1 18 1c-6 2-24-1-21 6 4 7 9 14 15 19 4 3 14 5 5 4-10-2-21-13-25-21l-9-12z" opacity=".5"/>
  <path fill="#E38540" d="M105 97c0-6 2-14 3-17s-4-7-6-8l-3-1-1 3c-2 17 5 24 9 25l5 1-7-3z"/>
  <path fill="#F5CE5C" d="M101 104h-3c-2-1-7-3-8-10 1 7 6 9 8 9 3 1 7 0 8-1v-5h1l-1 5-5 2z"/>
  <path fill="#F09959" d="M125 77c-2 9-6 16-13 15s-14-11-12-20 9-15 16-14c6 2 11 7 9 19zM148 122l-13 37 1 5 11-18 1-24zM149 120c1-3-1-7-1-7h5l-4 7z"/>
  <path fill="#4381DB" d="M154 115h-13l-1-2 8-26 1-1h13l1 1-8 27-1 1z"/>
  <path fill="#2E5B9A" d="M155 115h-12l-1-2 8-26 1-1h12c1 0 2 0 1 1l-7 27-2 1z"/>
  <path fill="#9CBEED" d="M146 95l-2 9 3-8 2-9-3 8z"/>
  <path fill="#F09959" d="M155 122c0-4 4-8 5-9l1-2v-8l-3-10v9l-2-1c-1-1-5 3-5 3s-1 5 3 3c5-2 1 4-2 7-3 4-1 4-1 4h3l1 4z"/>
  <path fill="#F5CE5C" d="M154 126h-2c-1-1-3-2-4-6h1c0 4 2 5 3 5h3v1h-1z"/>
  <path fill="#F5CE5C" d="M153 125h-1l-4-3 3 2h4l-2 1z"/>
  <path fill="#fff" d="M117 82h-1c-2-1-3-3-3-7l2-3 3-2c2 1 4 3 3 7 0 3-2 5-4 5zm1-11l-2 1-2 4c0 2 1 5 3 5 1 0 3-2 3-5 0-2 0-4-2-5zM124 82c-2 0-3-3-2-6 0-2 2-4 3-4l2 2v3l-3 5zm1-10l-2 4c-1 3 0 5 1 5s2-1 2-4v-3l-1-2zM114 73l-16-4-1-1h1l17 4-1 1z"/>
  <path fill="#303C60" d="M126 63c-25 15-27 5-27 5l2-14h15l10 9z"/>
  <path fill="#F09959" d="M101 71c1 3 0 5-2 6l-4-4 2-6c2 0 4 2 4 4z"/>
  <path fill="#F5CE5C" d="M100 75a1 1 0 11-3 0 1 1 0 013 0z"/>
  <path fill="#2E5B9A" d="M297 182H41a2 2 0 010-4h256a2 2 0 110 4z"/>
  <path fill="#DBE5EB" d="M102 177l-10 1a732 732 0 0046 2l12-2-27-1h-21z"/>
  <path fill="#F09959" d="M107 171s7-3 9-2l8 8-17-6z"/>
  <path fill="#2E5B9A" d="M123 177s0 1 0 0l-14-10-1-2h2l13 12z"/>
  <path fill="#F09959" d="M86 170l13 4c1 0 9-5 11-4 3 0 15 7 15 7-1 1-4 2-15 2l-27-2 3-7z"/>
  <path fill="#F37168" d="M230 178h-47l-1-1v-8l1-1h47c1 0 3 1 3 3v4c0 2-2 3-3 3z"/>
  <path fill="#F2E5DE" d="M226 170h-44l-1 1v4l1 1h44c2 0 3-1 3-3s-1-3-3-3z"/>
  <path fill="#7BCEE8" d="M228 168h-36v-5-1h36l2 2v2l-2 2z"/>
  <path fill="#F2E5DE" d="M225 163h-33l-1 1v2l1 1h33l2-2-2-2z"/>
  <path fill="#9EC8FF" d="M234 41h-38c-1 0-2-1-1-2l5-16 3-2h38c2 0 2 1 2 2l-6 16-3 2z"/>
  <path fill="#fff" d="M233 39h-34l-2-2 5-13 3-2h34c1 0 2 1 1 2l-5 13-2 2z"/>
  <path fill="#9EC8FF" d="M211 40c-3 8-8 11-8 11s4-5 3-7c0-2-2-3-2-3l7-1zM236 27h-22l-1-1h23s1 0 0 0v1zM235 30h-22l-1-1h23s1 0 0 0v1zM233 33h-22v-1h23l-1 1zM210 29c-1 3-3 5-5 5s-3-2-2-5c1-2 3-4 5-4s3 2 2 4zM213 82h-2l-1-1 1-1 1-1h2v2l-1 1zM219 82h-2l-1-1 1-1 1-1h2v2l-1 1zM225 82h-2l-1-1 1-1 1-1h2v2l-1 1zM189 70h-38c-2 0-2-1-2-2l6-16 3-2h38c1 0 2 1 1 2l-5 16-3 2z"/>
  <path fill="#fff" d="M187 68h-34l-1-1 5-14 2-1h34l2 1-5 14-3 1z"/>
  <path fill="#9EC8FF" d="M153 69c-3 8 0 11 0 11s0-5 2-7l5-3-7-1zM178 57h-19l1-1h19v1h-1zM177 60h-19v-1h20v1h-1zM176 63h-19l1-1h18l1 1h-1zM223 88h-36l-1-1h39l-2 1zM221 93h-36l-1-1 2-1h36l1 1-2 1zM185 64h-3l-2-2 2-5c1-2 2-2 3-2h3c1 0 2 0 2 2l-2 5-3 2z"/>
  <path fill="#9CD499" d="M278 171c5-27 4-37-9-59-13-21-14-62-19-50s-4 42 11 56c15 15 18 21 18 27 1 6-2 24-2 24l1 2z"/>
  <path fill="#74B570" d="M281 153l-4-18c-3-5-13-13-16-24s-8-19-11-26c-4-9-1-21 2-25h-1l-1 2c-5 12-4 42 11 56 15 15 18 21 18 27v7l2 1z"/>
  <path fill="#9CD499" d="M272 166c3-32 2-42-5-68-7-25 39-82 37-72-1 10-6 34-19 50a46 46 0 00-11 41c3 14 0 45 0 45l-2 5v-1z"/>
  <path fill="#74B570" d="M273 153v-18l-3-27c-2-4-3-18 4-33l11-18 16-29h1v1a636 636 0 01-27 46c-8 15-6 29-5 33 1 5 4 19 4 27v18h-1z"/>
  <path fill="#9CD499" d="M273 177c2-21 2-10-7-39-10-33 27-62 33-50s13 49 10 48c-2-1-20-36-20-34-1 1-24 13-23 25 1 13 10 32 10 32l-1 18h-2z"/>
  <path fill="#74B570" d="M275 177h-2v-6c1-9 1-9-2-17l-5-16a45 45 0 014-33c5-9 12-16 19-19 5-2 9-1 10 2 3 5 6 15 8 27 2 7 4 20 3 21h-1l-13-21-7-13-4 2c-6 5-20 14-19 23 1 13 10 32 10 32v18h-1zm-2-1l2 1v-18c0-1-9-20-10-32 0-9 13-19 20-23l3-3h1l8 14 12 21v-7a178 178 0 00-10-41c-2-3-5-3-10-1-12 5-30 27-22 51l5 16c3 8 3 8 2 17l-1 5z"/>
  <path fill="#7BCEE8" d="M280 178h-11l-1-1-4-28 2-2h18l2 2-4 28-2 1z"/>
  <path fill="#A2DFF2" d="M279 177h-1l-2-1 1-24 2-2h2l2 2-2 24-2 1z"/>
  <path fill="#74B570" d="M267 138h1a70 70 0 01-1 0zM267 118l-1 6c3-11 21-21 23-22v-1c-7-2-18 8-22 17z"/>
  <path fill="#74B570" d="M309 135l-3-13c-3-11-6-24-9-30l-7-2c-5 1-15 4-23 23h-1c9-19 19-23 24-23 4 0 6 1 7 2 4 6 7 18 9 30l4 13h-1z"/>
  <path fill="#74B570" d="M300 118h-1c1-1 2-12-1-23 0-1 0 0 0 0a72 72 0 012 23zM296 111a102 102 0 001-19 103 103 0 01-1 19zM285 57s8-5 14-14c-5 10-14 14-14 14zM278 68s8-2 16-9v1c-8 7-15 8-15 8h-1zM273 79v-1s5 0 13-5c0-1 0 0 0 0-7 5-12 6-13 6z"/>
</svg>
