<svg width="500" height="420" viewBox="0 0 500 420" fill="none" xmlns="http://www.w3.org/2000/svg">
<g clip-path="url(#clip0)">
<path d="M249.951 419.987C387.995 419.987 499.902 413.459 499.902 405.406C499.902 397.353 387.995 390.824 249.951 390.824C111.907 390.824 0 397.353 0 405.406C0 413.459 111.907 419.987 249.951 419.987Z" fill="#F5F5F5"/>
<path d="M404.493 398.064H403.113C402.572 398.064 402.108 397.587 402.018 396.943L393.535 337.909H399.981L405.601 396.544C405.679 397.355 405.163 398.064 404.493 398.064Z" fill="#9D9E9E"/>
<path d="M422.178 398.064H420.799C420.258 398.064 419.793 397.587 419.703 396.943L411.221 337.909H417.666L423.287 396.544C423.352 397.355 422.836 398.064 422.178 398.064Z" fill="#9D9E9E"/>
<path d="M323.637 398.064H325.017C325.558 398.064 326.022 397.587 326.112 396.943L334.608 337.909H328.162L322.542 396.544C322.451 397.355 322.967 398.064 323.637 398.064Z" fill="#9D9E9E"/>
<path d="M305.95 398.064H307.33C307.871 398.064 308.335 397.587 308.425 396.943L316.908 337.909H310.462L304.842 396.544C304.764 397.355 305.28 398.064 305.95 398.064Z" fill="#9D9E9E"/>
<path d="M283.03 267.939H326.449C334.158 241.211 361.874 220.125 390.261 220.125H404.364C434.079 220.125 453.248 243.22 447.189 271.726C446.081 276.956 444.186 282.005 441.659 286.758L434.814 328.222C433.924 333.568 429.657 337.909 425.274 337.909H294.594C290.211 337.909 285.931 333.568 285.054 328.222L276.701 277.626C275.798 272.28 278.634 267.939 283.03 267.939Z" fill="#E8EAEB"/>
<path d="M272.163 382.786L282.914 387.72C283.301 387.9 283.481 388.312 283.327 388.699L279.949 397.445C279.601 398.347 278.389 398.81 277.487 398.372C273.774 396.595 272.085 395.551 267.354 393.387C264.441 392.048 256.474 387.591 252.89 385.015C249.384 382.49 251.962 378.961 253.715 379.734C261.566 383.199 266.568 383.508 270.255 382.619C270.899 382.464 271.583 382.529 272.163 382.786Z" fill="white" stroke="#C2C4C4" stroke-miterlimit="10"/>
<path d="M348.415 251.091C348.415 251.091 279.665 251.941 278.608 279.017C277.087 317.943 271.324 382.555 271.324 382.555L282.914 387.72C282.914 387.72 303.23 322.877 303.952 292.477C323.238 287.673 373.012 292.516 378.851 276.672C383.634 263.714 381.043 251.078 381.043 251.078H348.415V251.091Z" fill="white" stroke="#C2C4C4" stroke-miterlimit="10"/>
<path opacity="0.2" d="M348.415 251.091C348.415 251.091 279.665 251.941 278.608 279.017C277.087 317.943 271.324 382.555 271.324 382.555L282.914 387.72C282.914 387.72 303.23 322.877 303.952 292.477C323.238 287.673 373.012 292.516 378.851 276.672C383.634 263.714 381.043 251.078 381.043 251.078H348.415V251.091Z" fill="white" stroke="#C2C4C4" stroke-miterlimit="10"/>
<path d="M363.033 179.845C362.44 182.344 361.835 184.599 361.138 186.943C360.455 189.261 359.746 191.567 359.011 193.86C357.503 198.446 355.84 203.006 353.919 207.514C352.011 212.035 349.884 216.505 347.293 220.923C345.978 223.126 344.586 225.341 342.923 227.492C341.26 229.644 339.391 231.795 336.928 233.817L336.735 233.972C336.606 234.088 336.451 234.191 336.31 234.281C334.672 235.363 333.138 235.685 331.978 235.826C330.792 235.955 329.838 235.904 329.039 235.801C327.415 235.608 326.216 235.234 325.094 234.848C322.89 234.062 321.072 233.16 319.319 232.22C315.851 230.352 312.77 228.265 309.741 226.14C306.75 223.989 303.862 221.76 301.052 219.442C298.267 217.085 295.534 214.766 292.879 212.203C291.319 210.696 291.267 208.209 292.776 206.638C294.039 205.324 295.998 205.079 297.52 205.93L297.584 205.968C300.626 207.656 303.694 209.446 306.776 211.095C309.844 212.795 312.899 214.47 315.954 216.028C318.997 217.613 322.078 219.094 325.017 220.305C326.474 220.897 327.93 221.413 329.129 221.683C329.709 221.812 330.238 221.876 330.38 221.851C330.47 221.851 330.405 221.799 330.109 221.825C329.825 221.851 329.181 221.941 328.278 222.507L327.672 222.971C328.768 221.941 329.928 220.485 331.011 218.862C332.081 217.226 333.138 215.449 334.118 213.581C336.065 209.82 337.805 205.775 339.404 201.64C340.989 197.492 342.472 193.242 343.851 188.939C345.256 184.689 346.52 180.219 347.693 176.045L347.731 175.891C348.905 171.692 353.249 169.244 357.452 170.416C361.577 171.563 364.013 175.749 363.033 179.845Z" fill="white" stroke="#C2C4C4" stroke-miterlimit="10"/>
<path d="M335.177 388.377H348.069C348.533 388.377 348.894 388.699 348.919 389.163L349.538 399.364C349.603 400.421 348.61 401.425 347.527 401.4C343.041 401.322 340.888 401.065 335.216 401.065C331.722 401.065 324.684 401.425 319.875 401.425C315.157 401.425 315.196 396.659 317.232 396.234C326.385 394.302 329.943 391.636 333.179 389.085C333.785 388.635 334.481 388.377 335.177 388.377Z" fill="white" stroke="#C2C4C4" stroke-miterlimit="10"/>
<path d="M366.941 251.091C366.941 251.091 304.586 256.359 306.12 283.409C307.796 313.036 335.177 388.39 335.177 388.39H347.785C347.785 388.39 336.995 319.386 333.192 289.219C350.763 289.219 391.525 292.529 397.378 276.685C402.161 263.727 399.569 251.091 399.569 251.091H366.941Z" fill="white" stroke="#C2C4C4" stroke-miterlimit="10"/>
<path d="M298.525 207.256C298.525 207.256 296.733 204.345 295.019 202.954C292.466 205.337 291.035 212.306 291.035 212.306L294.567 212.628C294.554 212.628 298.602 211.314 298.525 207.256Z" fill="#C2C4C4"/>
<path d="M285.583 200.996L281.574 199.257C280.491 198.793 279.24 199.193 278.635 200.197L276.74 203.34C276.198 204.242 276.327 205.401 277.049 206.174L282.554 211.919L291.732 211.546C292.789 211.507 293.743 210.902 294.22 209.961L295.277 207.887C295.948 206.586 295.574 204.963 294.362 204.165C291.384 202.181 285.583 200.996 285.583 200.996Z" fill="white" stroke="#C2C4C4" stroke-miterlimit="10"/>
<path d="M347.823 177.192C345.98 188.746 343.608 213.813 348.468 251.567L399.582 251.09C399.273 224.942 403.385 200.378 407.381 176.38C408.052 172.4 405.306 168.703 401.31 168.124C389.037 166.359 369.21 166.423 357.182 168.085C352.4 168.742 348.584 172.426 347.823 177.192Z" fill="white" stroke="#C2C4C4" stroke-miterlimit="10"/>
<path d="M407.846 173.121C409.341 176.844 410.553 180.412 411.79 184.096C413.015 187.754 414.085 191.477 415.103 195.225C416.083 198.987 417.011 202.786 417.72 206.689C418.442 210.592 419.074 214.56 419.293 218.772C419.358 219.815 419.383 220.897 419.396 221.979L419.37 223.628C419.345 224.787 419.164 226.565 418.094 228.446C417.579 229.36 416.779 230.3 415.954 230.944C415.516 231.305 415.103 231.576 414.678 231.795C414.227 232.052 413.84 232.22 413.44 232.361C411.868 232.941 410.643 233.018 409.65 233.018C407.704 232.98 406.376 232.645 405.138 232.31C402.715 231.614 400.781 230.751 398.886 229.85C397.017 228.935 395.264 227.956 393.549 226.964C386.729 222.92 380.593 218.424 374.65 213.439C372.987 212.048 372.768 209.562 374.16 207.9C375.333 206.496 377.28 206.123 378.866 206.87L378.956 206.908C385.621 210.077 392.402 213.336 399.002 216.067C400.652 216.75 402.289 217.381 403.888 217.909C405.461 218.45 407.059 218.926 408.297 219.107C408.877 219.197 409.418 219.184 409.354 219.133C409.302 219.12 409.032 219.068 408.323 219.3C408.155 219.364 407.974 219.442 407.73 219.57C407.51 219.686 407.291 219.841 407.033 220.034C406.569 220.395 406.079 220.962 405.783 221.464C405.164 222.533 405.138 223.345 405.113 223.577L405.035 222.417C404.958 221.619 404.893 220.833 404.777 219.996C403.901 213.388 402.032 206.355 399.969 199.437C397.893 192.533 395.534 185.461 393.111 178.75L393.085 178.686C391.615 174.59 393.742 170.069 397.842 168.6C401.864 167.209 406.273 169.218 407.846 173.121Z" fill="white" stroke="#C2C4C4" stroke-miterlimit="10"/>
<path d="M387.413 142.22L381.225 147.346L372.807 154.328C373.052 155.461 373.245 156.621 373.335 157.729C373.735 161.786 372.846 165.522 367.908 167.415C366.039 168.124 364.415 169.489 363.834 171.395C363.164 173.559 363.95 175.955 370.744 175.955C380.709 175.955 385.905 171.524 387.864 169.347C388.418 168.729 388.418 167.827 387.941 167.157C384.009 161.567 385.801 149.201 387.413 142.22Z" fill="white" stroke="#C2C4C4" stroke-miterlimit="10"/>
<path d="M370.498 173.766C370.498 173.766 371.156 174.487 371.362 175.517C371.878 174.642 373.231 173.766 373.231 173.766C373.231 173.766 376.183 175.08 376.802 177.952C374.907 177.836 371.439 175.955 371.439 175.955C371.439 175.955 369.647 176.986 367.855 177.076C367.933 174.848 370.498 173.766 370.498 173.766Z" fill="#C2C4C4"/>
<path d="M373.23 173.765C376.092 176.986 376.647 181.275 376.647 181.275C376.647 181.275 393.148 177.153 392.374 166.41C390.982 165.534 387.798 165.006 387.798 165.006C387.798 165.006 384.24 171.447 373.23 173.765Z" fill="white" stroke="#C2C4C4" stroke-miterlimit="10"/>
<path d="M370.499 173.765C367.637 176.986 366.863 181.275 366.863 181.275C366.863 181.275 358.394 173.572 366.644 166.5C368.101 165.908 371.001 165.586 371.001 165.586C371.001 165.586 365.535 170.03 370.499 173.765Z" fill="white" stroke="#C2C4C4" stroke-miterlimit="10"/>
<path d="M372.807 154.328C373.052 155.462 373.245 156.621 373.335 157.729C376.481 157.097 380.67 153.761 381.109 150.554C381.276 149.343 381.302 148.184 381.225 147.346L372.807 154.328Z" fill="#C2C4C4"/>
<path d="M363.77 120.026C356.009 125.526 360.354 138.433 366.967 133.486C373.606 128.553 370.1 115.543 363.77 120.026Z" fill="white" stroke="#C2C4C4" stroke-miterlimit="10"/>
<path d="M390.223 134.903C389.901 134.826 389.578 134.8 389.256 134.826C389.475 133.783 389.707 132.675 389.965 131.528C392.118 121.649 383.468 112.967 373.219 115.723C362.816 118.519 359.18 133.126 359.941 142.323C360.792 152.537 372.433 158.566 381.212 151.777C384.074 149.575 385.711 147.037 386.884 143.868C388.547 143.405 390.3 142.336 391.564 140.687C393.227 138.497 392.775 135.534 390.223 134.903Z" fill="white" stroke="#C2C4C4" stroke-miterlimit="10"/>
<path d="M385.388 124.199C379.909 122.692 365.78 126.286 360.765 120.94C355.39 115.208 363.241 112.426 365.548 114.41C362.622 111.061 363.717 107.48 367.856 107.802C370.885 108.033 371.839 111.383 371.839 111.383C371.839 111.383 371.336 105.522 376.532 105.934C381.25 106.295 381.263 112.658 381.263 112.658C381.263 112.658 392.53 109.476 396.294 120.219C403.384 120.064 403.23 134.981 388.959 140.288C383.183 137.415 382.913 127.239 385.388 124.199Z" fill="white" stroke="#C2C4C4" stroke-miterlimit="10"/>
<path d="M394.786 122.37C394.103 122.37 393.497 121.881 393.381 121.185C393.239 120.412 393.755 119.665 394.528 119.523C394.657 119.485 395.044 119.176 395.353 118.48C395.688 117.746 395.908 116.664 395.508 115.801C395.186 115.08 395.495 114.229 396.217 113.907C396.939 113.572 397.79 113.894 398.112 114.616C398.976 116.496 398.512 118.635 397.803 119.987C397.119 121.288 396.101 122.151 395.031 122.344C394.954 122.357 394.876 122.37 394.786 122.37Z" fill="white" stroke="#C2C4C4" stroke-miterlimit="10"/>
<path d="M373.038 132.417C372.909 133.229 372.381 133.834 371.852 133.77C371.324 133.706 370.989 132.997 371.117 132.186C371.246 131.374 371.775 130.769 372.303 130.833C372.832 130.91 373.154 131.619 373.038 132.417Z" fill="#9D9E9E"/>
<path d="M363.833 131.335C363.704 132.147 363.176 132.752 362.647 132.688C362.119 132.624 361.783 131.915 361.912 131.104C362.041 130.292 362.57 129.687 363.098 129.751C363.627 129.815 363.962 130.524 363.833 131.335Z" fill="#9D9E9E"/>
<path d="M366.631 131.657C366.631 131.657 364.697 135.586 362.789 137.428C363.924 138.639 366.063 138.227 366.063 138.227L366.631 131.657Z" fill="#C2C4C4"/>
<path d="M369.84 142.387C373.076 142.387 374.881 140.378 374.958 140.288C375.049 140.184 375.036 140.03 374.932 139.953C374.829 139.862 374.675 139.875 374.597 139.978C374.572 140.004 372.522 142.297 368.938 141.872C368.809 141.859 368.68 141.949 368.667 142.078C368.654 142.207 368.745 142.336 368.874 142.349C369.209 142.374 369.531 142.387 369.84 142.387Z" fill="#9D9E9E"/>
<path d="M376.738 127.754C376.815 127.742 376.893 127.703 376.957 127.638C377.151 127.458 377.176 127.162 376.996 126.956C375.243 124.985 373.038 125.346 372.948 125.359C372.703 125.371 372.51 125.655 372.561 125.912C372.613 126.17 372.858 126.35 373.115 126.299C373.206 126.286 374.907 126.041 376.274 127.587C376.39 127.742 376.57 127.793 376.738 127.754Z" fill="#C2C4C4"/>
<path d="M360.546 127.226C360.688 127.265 360.856 127.239 360.985 127.136C362.673 125.732 364.401 126.196 364.414 126.209C364.672 126.286 364.929 126.131 365.007 125.874C365.084 125.616 364.929 125.358 364.672 125.281C364.581 125.255 362.428 124.676 360.366 126.402C360.16 126.569 360.134 126.878 360.301 127.085C360.379 127.149 360.456 127.2 360.546 127.226Z" fill="#C2C4C4"/>
<path d="M377.33 200.223L371.684 196.72C369.995 195.663 367.765 196.204 366.733 197.905L366.063 199C365.264 200.326 365.406 202.027 366.424 203.199L370.317 207.668C370.317 207.668 373.708 215.565 377.639 213.478L380.63 208.287L377.33 200.223Z" fill="white" stroke="#C2C4C4" stroke-miterlimit="10"/>
<path d="M383.132 210.309C383.132 210.309 381.714 206.818 380.18 205.054C377.344 207.475 375.049 215.217 375.049 215.217L378.517 215.964C378.53 215.964 382.706 214.921 383.132 210.309Z" fill="#C2C4C4"/>
<path d="M426.344 267.939H359.411C355.028 267.939 352.179 272.28 353.069 277.626L361.422 328.222C362.312 333.581 366.579 337.909 370.962 337.909H418.054L426.344 267.939Z" fill="#E8EAEB"/>
<path d="M117.532 402.404H119.465C120.123 402.404 120.664 401.851 120.716 401.129L131.351 241.546H123.359L116.281 400.962C116.242 401.747 116.823 402.404 117.532 402.404Z" fill="#C2C4C4"/>
<path d="M95.6156 402.404H97.5493C98.2068 402.404 98.7482 401.851 98.7998 401.129L109.435 241.546H101.443L94.3651 400.962C94.3265 401.747 94.8937 402.404 95.6156 402.404Z" fill="#C2C4C4"/>
<path d="M365.884 402.404H363.95C363.293 402.404 362.751 401.851 362.7 401.129L352.064 241.546H360.057L367.134 400.962C367.16 401.747 366.593 402.404 365.884 402.404Z" fill="#C2C4C4"/>
<path d="M387.8 402.404H385.866C385.209 402.404 384.667 401.851 384.616 401.129L373.98 241.546H381.973L389.05 400.962C389.089 401.747 388.522 402.404 387.8 402.404Z" fill="#C2C4C4"/>
<path d="M397.017 238.274H85.9473V241.559H397.017V238.274Z" fill="#C2C4C4"/>
<path d="M80.7647 187.445L77.8255 209.047C76.8973 216.234 75.9304 223.448 75.2343 230.532C75.1312 231.421 75.0667 232.297 75.0022 233.173L74.8991 234.487C74.912 234.397 74.8991 234.049 74.8476 233.843C74.8218 233.637 74.7573 233.405 74.6929 233.224C74.6542 233.07 74.5639 232.889 74.4995 232.774C74.4479 232.671 74.3706 232.555 74.319 232.477C74.087 232.181 74.0612 232.22 74.1256 232.284C74.1772 232.361 74.3577 232.503 74.5639 232.645C75.0022 232.954 75.6081 233.315 76.2656 233.637C78.9986 234.976 82.389 236.11 85.7279 237.153C92.4959 239.201 99.5861 240.979 106.599 242.705L105.813 248.862C98.3099 248.592 90.9489 247.896 83.459 246.543C79.7076 245.835 75.982 245.049 71.9728 243.516C70.9544 243.117 69.923 242.666 68.7886 242.022C68.2214 241.687 67.6413 241.327 66.9838 240.798C66.3521 240.27 65.656 239.665 64.9212 238.609C64.5602 238.068 64.2121 237.424 63.9414 236.638C63.8125 236.239 63.7094 235.788 63.632 235.363C63.5676 234.938 63.5547 234.358 63.5547 234.036L63.5805 232.606C63.6063 231.653 63.6191 230.7 63.6707 229.759C63.9801 222.237 64.6505 214.895 65.4626 207.552C66.249 200.21 67.1901 192.932 68.3374 185.616L80.7647 187.445Z" fill="white" stroke="#C2C4C4" stroke-miterlimit="10"/>
<path d="M122.856 249.21L118.125 253.525C117.016 254.53 115.417 254.762 114.064 254.118L108.843 251.606C108.843 251.606 101.095 251.284 99.9863 246.557L101.984 242.885L113.986 241.559C115.224 241.417 116.462 241.7 117.519 242.344L122.469 245.359C123.861 246.196 124.042 248.115 122.856 249.21Z" fill="#7F3E3B"/>
<path d="M94.5463 143.057C95.7709 150.464 96.8152 164.002 91.5039 168.768C91.5039 168.768 104.447 175.543 112.942 187.368C122.018 180.18 114.425 169.45 114.425 169.45C106.265 167.248 106.651 161.155 108.263 155.474L94.5463 143.057Z" fill="white" stroke="#C2C4C4" stroke-miterlimit="10"/>
<path d="M118.768 174.01C118.768 174.01 118.085 167.724 114.656 164.62C111.768 162.005 96.6467 163.461 91.8769 163.989C90.9745 164.092 90.201 164.646 89.8143 165.457L86.3594 172.671L118.768 174.01Z" fill="white" stroke="#C2C4C4" stroke-miterlimit="10"/>
<path d="M76.8588 170.7C67.5254 173.74 65.5144 186.234 66.3523 195.972L85.1866 207.553C85.1866 207.553 89.7631 193.345 89.7244 185.745C89.6986 177.668 83.2014 168.639 76.8588 170.7Z" fill="white" stroke="#C2C4C4" stroke-miterlimit="10"/>
<path d="M80.5071 204.719C80.0559 204.719 79.6047 204.538 79.2696 204.216C79.1922 204.126 79.1149 204.036 79.0633 203.946C78.9988 203.856 78.9344 203.753 78.8957 203.637C78.857 203.534 78.8184 203.431 78.7926 203.315C78.7668 203.199 78.7539 203.096 78.7539 202.98C78.7539 202.516 78.9473 202.065 79.2696 201.743C79.927 201.086 81.1001 201.086 81.7447 201.743C82.067 202.065 82.2604 202.516 82.2604 202.98C82.2604 203.096 82.2475 203.199 82.2217 203.315C82.1959 203.431 82.1701 203.534 82.1186 203.637C82.0799 203.753 82.0283 203.856 81.9639 203.946C81.8994 204.036 81.8221 204.126 81.7447 204.216C81.4224 204.538 80.9712 204.719 80.5071 204.719Z" fill="#C2C4C4"/>
<path d="M76.884 203.534C76.2265 203.276 75.8011 202.645 75.7753 201.962C75.2725 202.413 74.5377 202.555 73.8803 202.246C73.2357 201.949 72.849 201.292 72.8618 200.623C72.3333 201.048 71.5856 201.138 70.9539 200.79C70.3222 200.455 69.9871 199.785 70.0386 199.115C69.4843 199.502 68.7366 199.553 68.1178 199.18C67.2928 198.69 67.0349 197.608 67.5248 196.784C68.0276 195.96 69.1105 195.689 69.9355 196.191C70.5156 196.552 70.8121 197.196 70.7734 197.827C71.2891 197.454 71.9981 197.389 72.604 197.711C73.197 198.033 73.5451 198.652 73.5322 199.296C74.0221 198.896 74.7311 198.793 75.3499 199.077C75.9687 199.36 76.3425 199.966 76.3683 200.597C76.8453 200.185 77.5285 200.03 78.1731 200.275C79.0626 200.635 79.5138 201.653 79.1529 202.542C78.8821 203.237 78.2247 203.65 77.5285 203.65C77.3094 203.65 77.1031 203.611 76.884 203.534Z" fill="#C2C4C4"/>
<path d="M66.3646 197.724C66.2485 197.724 66.1325 197.711 66.0165 197.686C65.9005 197.66 65.7973 197.634 65.6942 197.583C65.5782 197.544 65.4751 197.492 65.3848 197.428C65.2946 197.364 65.2043 197.286 65.127 197.209C65.0367 197.132 64.9723 197.042 64.9078 196.951C64.8434 196.848 64.7918 196.745 64.7402 196.642C64.7016 196.539 64.6629 196.423 64.6371 196.32C64.6242 196.204 64.6113 196.088 64.6113 195.972C64.6113 195.856 64.6242 195.741 64.6371 195.638C64.6629 195.522 64.7016 195.419 64.7402 195.303C64.7789 195.2 64.8434 195.096 64.9078 195.006C64.9723 194.916 65.0367 194.826 65.127 194.736C65.2043 194.659 65.2946 194.581 65.3848 194.517C65.4751 194.465 65.5782 194.401 65.6942 194.362C65.7973 194.324 65.9005 194.285 66.0165 194.259C66.5837 194.156 67.1896 194.336 67.5892 194.736C67.6795 194.826 67.7439 194.916 67.8084 195.006C67.8728 195.096 67.9244 195.2 67.976 195.303C68.0147 195.419 68.0533 195.522 68.0662 195.638C68.092 195.741 68.1049 195.856 68.1049 195.972C68.1049 196.088 68.092 196.204 68.0662 196.32C68.0533 196.423 68.0147 196.539 67.976 196.642C67.9244 196.745 67.8728 196.848 67.8084 196.951C67.7439 197.042 67.6795 197.132 67.5892 197.209C67.267 197.531 66.8158 197.724 66.3646 197.724Z" fill="#C2C4C4"/>
<path d="M136.211 188.875C135.424 199.592 133.039 217.625 127.161 247.999L76.704 246.505C78.0318 227.892 76.0336 214.019 71.4701 181.443C70.6321 175.504 74.9121 170.056 80.8937 169.45C84.1294 169.115 87.8164 168.845 91.5162 168.768C100.025 168.613 106.986 168.549 114.424 169.45C116.886 169.747 119.426 170.133 121.85 170.545C130.642 172.052 136.868 179.974 136.211 188.875Z" fill="white" stroke="#C2C4C4" stroke-miterlimit="10"/>
<path d="M120.65 129.416C120.766 130.408 121.398 131.155 122.042 131.078C122.687 131 123.125 130.124 123.009 129.132C122.893 128.141 122.261 127.394 121.617 127.471C120.959 127.561 120.534 128.424 120.65 129.416Z" fill="#9D9E9E"/>
<path d="M121.334 127.561L123.642 126.582C123.642 126.595 122.636 128.605 121.334 127.561Z" fill="#9D9E9E"/>
<path d="M120.998 130.962C120.998 130.962 123.202 135.045 125.304 136.887C124.131 138.265 121.836 137.982 121.836 137.982L120.998 130.962Z" fill="#C2C4C4"/>
<path d="M120.766 120.696C120.882 120.528 120.908 120.309 120.805 120.116C120.663 119.82 120.315 119.704 120.018 119.833C117.079 121.224 116.679 123.916 116.667 124.032C116.628 124.354 116.847 124.65 117.169 124.689C117.492 124.727 117.788 124.508 117.827 124.186C117.84 124.096 118.175 122.009 120.521 120.889C120.637 120.85 120.714 120.786 120.766 120.696Z" fill="#C2C4C4"/>
<path d="M113.031 132.585C115.081 139.244 119.954 155.358 109.19 158.939C100.772 161.747 74.396 163.989 71.3536 148.544C68.2081 132.585 82.466 121.211 82.466 121.211C82.466 121.211 71.1731 111.962 78.4052 101.889C87.7257 88.9051 110.041 96.2473 116.667 105.419C123.113 114.345 113.031 132.585 113.031 132.585Z" fill="white" stroke="#C2C4C4" stroke-miterlimit="10"/>
<path d="M92.6257 161.155C88.307 161.155 82.9571 160.279 78.5354 158.373C72.5409 155.796 69.0473 151.816 68.4285 146.857C66.3143 130.021 81.9903 120.773 82.145 120.683L82.7637 121.765C82.609 121.855 67.6421 130.704 69.6532 146.715C70.3622 152.396 75.1449 155.577 79.0123 157.239C86.6698 160.537 96.5575 160.511 98.9553 158.759L99.6902 159.764C98.4655 160.678 95.8356 161.155 92.6257 161.155Z" fill="#C2C4C4"/>
<path d="M77.6061 118.802C77.4643 120.953 75.6724 123.916 83.1494 125.024C90.6264 126.131 101.004 126.028 103.131 124.238C105.258 122.447 107.359 118.145 102.912 118.532C98.4515 118.918 77.851 115.131 77.6061 118.802Z" fill="white" stroke="#C2C4C4" stroke-miterlimit="10"/>
<path d="M211.38 400.601C211.38 400.601 202.034 390.464 197.819 379.772L193.784 359.008L181.82 359.24L187.609 389.072L189.594 389.034L194.763 396.376L211.38 400.601Z" fill="white" stroke="#C2C4C4" stroke-miterlimit="10"/>
<path d="M184.785 381.627C184.733 382.954 184.836 384.461 185.03 385.801C185.726 390.721 187.904 403.783 187.904 403.783L189.026 403.796C189.026 403.796 187.956 395.011 188.111 391.765C188.265 388.519 190.354 394.251 192.88 397.497C195.407 400.743 199.958 403.693 207.319 403.912C215.93 404.182 219.372 403.821 216.614 401.67C213.855 399.519 207.976 398.115 207.976 398.115C207.976 398.115 201.195 395.68 196.348 388.403C193.203 383.688 187.943 380.262 185.648 379.154C184.978 379.27 184.836 380.571 184.785 381.627Z" fill="white" stroke="#C2C4C4" stroke-miterlimit="10"/>
<path d="M238.981 339.699L228.165 323.637L217.594 332.666L229.982 348.536L234.262 348.665L234.327 349.824L235.629 352.581L248.017 353.495L262.456 341.915C262.469 341.915 249.642 342.649 238.981 339.699Z" fill="white" stroke="#C2C4C4" stroke-miterlimit="10"/>
<path d="M231.259 350.932C232.2 351.872 233.373 352.825 234.469 353.598C238.517 356.419 249.462 363.645 249.462 363.645L250.158 362.769C250.158 362.769 243.042 357.591 240.76 355.26C238.478 352.928 243.97 355.195 247.915 355.427C251.86 355.659 256.836 354.1 261.541 348.471C267.059 341.889 268.915 338.939 265.628 339.635C262.34 340.331 257.687 343.989 257.687 343.989C257.687 343.989 251.718 347.647 243.364 346.475C237.95 345.715 232.187 347.518 229.97 348.549C229.635 349.167 230.511 350.185 231.259 350.932Z" fill="white" stroke="#C2C4C4" stroke-miterlimit="10"/>
<path d="M109.564 247.123C109.564 247.123 191.243 235.054 199.7 255.973C214.409 292.374 235.19 334.083 235.19 334.083L225.161 342.379C225.161 342.379 189.542 309.442 176.87 272.86C161.735 277.754 113.586 293.495 95.9503 293.495C77.116 293.495 69.4198 277.445 76.2265 250.807C76.8324 248.437 78.9981 246.788 81.4475 246.801C93.3204 246.853 109.564 247.123 109.564 247.123Z" fill="white" stroke="#C2C4C4" stroke-miterlimit="10"/>
<path d="M117.389 257.75C117.389 257.75 184.437 255.728 184.991 279.468C185.932 318.716 196.993 374.955 196.993 374.955L184.759 376.088C184.759 376.088 164.765 331.352 159.479 293.018C135.591 294.564 113.586 293.495 95.9503 293.495C76.1878 293.495 74.5506 271.803 93.7845 246.505C105.554 246.505 117.389 257.75 117.389 257.75Z" fill="white" stroke="#C2C4C4" stroke-miterlimit="10"/>
<path d="M76.0339 243.517L74.6029 247.986C74.4096 248.334 74.8221 248.695 75.4022 248.721L127.329 250.266C127.78 250.279 128.167 250.073 128.205 249.79L128.798 245.294C128.837 244.985 128.45 244.702 127.96 244.689L76.8718 243.169C76.4851 243.156 76.1499 243.298 76.0339 243.517Z" fill="white" stroke="#C2C4C4" stroke-miterlimit="10"/>
<path d="M82.7242 249.429L81.3577 249.39C81.087 249.377 80.8807 249.236 80.9065 249.068L81.7186 243.22C81.7444 243.053 81.9894 242.911 82.2601 242.924L83.6266 242.963C83.8973 242.975 84.1036 243.117 84.0778 243.285L83.2656 249.133C83.2398 249.3 82.9949 249.442 82.7242 249.429Z" fill="#C2C4C4"/>
<path d="M123.474 250.64L122.108 250.601C121.837 250.588 121.631 250.447 121.656 250.279L122.469 244.431C122.494 244.264 122.739 244.122 123.01 244.135L124.377 244.173C124.647 244.186 124.854 244.328 124.828 244.496L124.016 250.344C123.99 250.511 123.745 250.653 123.474 250.64Z" fill="#C2C4C4"/>
<path d="M103.105 250.034L101.739 249.996C101.468 249.983 101.262 249.841 101.287 249.674L102.099 243.826C102.125 243.658 102.37 243.516 102.641 243.529L104.007 243.568C104.278 243.581 104.484 243.723 104.459 243.89L103.646 249.738C103.621 249.906 103.376 250.047 103.105 250.034Z" fill="#C2C4C4"/>
<path d="M165.28 193.358H197.896C198.94 193.358 199.687 194.362 199.391 195.354L187.209 237.153C187.015 237.823 186.409 238.274 185.713 238.274H153.098C152.054 238.274 151.306 237.269 151.603 236.277L163.785 194.478C163.978 193.808 164.597 193.358 165.28 193.358Z" fill="#2F53EB"/>
<path d="M164.894 194.504L196.594 194.633L184.85 234.294L153.15 234.152L164.894 194.504Z" fill="white"/>
<path d="M190.908 225.045L185.519 224.684C184.179 224.594 182.838 224.955 181.729 225.702L173.234 231.408C168.155 231.254 163.05 230.983 158.112 230.507C155.134 230.197 152.195 229.798 149.488 229.18C148.147 228.871 146.858 228.51 145.775 228.072C144.718 227.66 143.816 227.067 143.725 226.874C143.687 226.823 143.738 226.835 143.777 226.887L143.3 226.101C142.991 225.547 142.668 224.993 142.398 224.388C141.817 223.216 141.302 221.966 140.825 220.678C139.871 218.115 139.149 215.358 138.517 212.55C137.924 209.742 137.434 206.857 137.073 203.946C136.88 202.49 136.725 201.035 136.596 199.566C136.48 198.136 136.364 196.578 136.3 195.315L123.77 195.522C123.782 197.389 123.873 198.948 124.027 200.635C124.169 202.284 124.35 203.933 124.556 205.582C125.007 208.866 125.626 212.151 126.477 215.423C127.315 218.695 128.385 221.953 129.803 225.161C130.499 226.771 131.298 228.368 132.239 229.927C132.69 230.713 133.206 231.485 133.722 232.245L134.547 233.405C135.062 234.075 135.617 234.68 136.171 235.157C138.414 237.063 140.451 237.746 142.333 238.338C144.215 238.892 145.994 239.201 147.735 239.433C151.202 239.858 154.515 239.923 157.79 239.845C163.488 239.704 169.005 239.072 174.536 238.106C177.875 238.828 181.961 236.921 181.961 236.921L188.471 236.715C189.529 236.677 190.47 236.007 190.831 235.002L193.19 228.549C193.77 226.913 192.635 225.174 190.908 225.045Z" fill="white" stroke="#C2C4C4" stroke-miterlimit="10"/>
<path d="M132.059 176.329C140.181 183.967 138.221 203.869 138.221 203.869L122.661 206.587C122.661 206.587 113.057 192.314 116.435 186.338C119.954 180.103 127.676 172.194 132.059 176.329Z" fill="white" stroke="#C2C4C4" stroke-miterlimit="10"/>
<path d="M138.223 205.62C137.772 205.62 137.307 205.427 136.985 205.105C136.908 205.028 136.83 204.938 136.766 204.835C136.714 204.744 136.65 204.641 136.611 204.538C136.573 204.435 136.534 204.319 136.508 204.203C136.495 204.1 136.482 203.985 136.482 203.869C136.482 203.405 136.663 202.954 136.985 202.632C137.075 202.555 137.153 202.477 137.256 202.413C137.346 202.349 137.449 202.297 137.552 202.258C137.668 202.207 137.772 202.181 137.888 202.155C138.442 202.039 139.048 202.233 139.46 202.632C139.783 202.954 139.976 203.405 139.976 203.869C139.976 203.985 139.963 204.1 139.937 204.203C139.912 204.319 139.886 204.435 139.834 204.538C139.796 204.641 139.744 204.744 139.679 204.835C139.615 204.938 139.538 205.028 139.46 205.105C139.138 205.427 138.687 205.62 138.223 205.62Z" fill="#C2C4C4"/>
<path d="M124.094 206.548C124.016 205.582 124.725 204.732 125.692 204.654C126.363 204.59 126.994 204.925 127.329 205.479C127.536 204.873 128.064 204.397 128.735 204.294C129.405 204.203 130.049 204.5 130.423 205.028C130.591 204.41 131.094 203.907 131.751 203.778C132.421 203.637 133.079 203.907 133.479 204.41C133.608 203.778 134.084 203.25 134.742 203.07V203.083C135.683 202.825 136.637 203.392 136.882 204.319C137.127 205.247 136.573 206.213 135.631 206.458C134.948 206.638 134.239 206.38 133.814 205.852C133.672 206.509 133.156 207.05 132.447 207.205C131.751 207.334 131.055 207.037 130.668 206.483C130.488 207.14 129.946 207.656 129.237 207.759C128.528 207.862 127.845 207.514 127.497 206.947C127.278 207.578 126.711 208.068 125.989 208.132C125.937 208.132 125.898 208.132 125.847 208.132C124.944 208.132 124.184 207.449 124.094 206.548Z" fill="#C2C4C4"/>
<path d="M122.675 208.338C122.559 208.338 122.443 208.326 122.327 208.3C122.211 208.274 122.108 208.235 122.005 208.197C121.889 208.158 121.798 208.094 121.695 208.042C121.605 207.978 121.515 207.9 121.438 207.823C121.347 207.746 121.283 207.656 121.218 207.553C121.154 207.462 121.102 207.359 121.051 207.256C121.012 207.14 120.973 207.037 120.961 206.921C120.935 206.818 120.922 206.703 120.922 206.587C120.922 206.471 120.935 206.355 120.961 206.239C120.973 206.136 121.012 206.02 121.051 205.917C121.102 205.814 121.154 205.711 121.218 205.608C121.283 205.517 121.347 205.427 121.438 205.35C121.515 205.273 121.605 205.195 121.695 205.131C121.798 205.067 121.889 205.015 122.005 204.976C122.108 204.925 122.211 204.899 122.327 204.873C122.894 204.757 123.5 204.938 123.9 205.35C123.99 205.427 124.054 205.517 124.119 205.608C124.183 205.711 124.235 205.814 124.287 205.917C124.325 206.02 124.364 206.136 124.39 206.239C124.403 206.355 124.415 206.471 124.415 206.587C124.415 206.703 124.403 206.818 124.39 206.921C124.364 207.037 124.325 207.14 124.287 207.256C124.235 207.359 124.183 207.462 124.119 207.553C124.054 207.643 123.99 207.746 123.9 207.823C123.577 208.145 123.126 208.338 122.675 208.338Z" fill="#C2C4C4"/>
<path d="M118.149 118.957C117.363 122.615 116.048 126.106 114.939 128.63C114.062 128.063 113.083 127.754 112.038 127.883C108.803 128.282 107.501 131.709 108.97 134.478C110.246 136.9 112.528 138.51 114.694 139.154C114.758 139.167 114.81 139.18 114.862 139.193C115.983 144.113 116.641 149.948 114.681 154.122C118.768 151.906 121.81 147.836 122.429 142.426C123.228 135.483 122.081 126.015 118.149 118.957Z" fill="white" stroke="#C2C4C4" stroke-miterlimit="10"/>
<path d="M79.258 408.201H80.7147C81.2819 408.201 81.7718 407.698 81.8749 407.016L90.8473 344.62H84.0407L78.0977 406.604C78.0075 407.454 78.5489 408.201 79.258 408.201Z" fill="#9D9E9E"/>
<path d="M60.5646 408.201H62.0213C62.5885 408.201 63.0784 407.698 63.1815 407.016L72.154 344.62H65.3473L59.4044 406.604C59.3141 407.454 59.8556 408.201 60.5646 408.201Z" fill="#9D9E9E"/>
<path d="M164.714 408.201H163.258C162.69 408.201 162.201 407.698 162.097 407.016L153.125 344.62H159.932L165.875 406.604C165.965 407.454 165.423 408.201 164.714 408.201Z" fill="#9D9E9E"/>
<path d="M183.408 408.201H181.951C181.384 408.201 180.894 407.698 180.791 407.016L171.818 344.62H178.625L184.568 406.604C184.658 407.454 184.117 408.201 183.408 408.201Z" fill="#9D9E9E"/>
<path d="M207.642 270.657H161.749C153.601 242.409 124.312 220.112 94.3008 220.112H79.3984C47.9949 220.112 27.7297 244.534 34.1238 274.65C35.2969 280.176 37.2951 285.509 39.9636 290.545L47.1957 334.38C48.1238 340.034 52.6487 344.62 57.2896 344.62H195.421C200.062 344.62 204.574 340.034 205.515 334.38L214.345 280.897C215.274 275.243 212.283 270.657 207.642 270.657Z" fill="#E8EAEB"/>
<path d="M201 66H191.016L191 67H201V66Z" fill="#2F53EB"/>
<path d="M152 81H151V74C151 69.1181 155.114 66 160 66H183V67L160 66.8848C155.836 66.8848 152 69.8394 152 74V81Z" fill="#2F53EB"/>
<path d="M277.145 125.175L160.001 125C157 125 155 123 155 120L155.145 75.1746C155.145 72.1746 157.145 70.1746 160.145 70.1746H277.145C280.145 70.1746 282.145 72.1746 282.145 75.2371V120.175C282.145 123.175 280.145 125.175 277.145 125.175Z" fill="#2F53EB"/>
<path d="M162 121V135C162 137.679 165.594 139.471 167.708 137.823L189 121H162Z" fill="#2F53EB"/>
<rect x="162" y="82" width="42" height="2" rx="1" fill="white"/>
<rect x="210" y="82" width="42" height="2" rx="1" fill="white"/>
<rect x="162" y="94" width="113" height="2" rx="1" fill="white"/>
<rect x="162" y="106" width="90" height="2" rx="1" fill="white"/>
<path d="M343.713 1H226.182C223.784 1 221.838 2.94504 221.838 5.34092V51.3907C221.838 53.7866 223.784 55.7316 226.169 55.7316H319.013L335.836 68.7415C337.964 70.3903 341.045 68.8703 341.045 66.1911V55.7316H343.687C346.085 55.7316 348.032 53.7866 348.032 51.3907V5.34092C348.058 2.94504 346.111 1 343.713 1Z" fill="white" stroke="#2F53EB" stroke-miterlimit="10"/>
<rect x="229" y="13" width="112" height="2" rx="1" fill="#2F53EB"/>
<rect x="280" y="23" width="61" height="2" rx="1" fill="#2F53EB"/>
<rect x="240" y="23" width="34" height="2" rx="1" fill="#2F53EB"/>
<rect x="251" y="33" width="90" height="2" rx="1" fill="#2F53EB"/>
</g>
<defs>
<clipPath id="clip0">
<rect width="499.902" height="420" fill="white"/>
</clipPath>
</defs>
</svg>
