<svg xmlns="http://www.w3.org/2000/svg" width="24.44" height="24.44" viewBox="0 0 24.44 24.44">
  <path d="M21.148,0H3.3A3.293,3.293,0,0,0,0,3.293V21.147A3.293,3.293,0,0,0,3.3,24.44H12.1l.015-8.733H9.846a.535.535,0,0,1-.535-.533L9.3,12.358a.535.535,0,0,1,.535-.537H12.1V9.1c0-3.157,1.928-4.876,4.744-4.876h2.311a.535.535,0,0,1,.535.535V7.134a.535.535,0,0,1-.535.535H17.737c-1.531,0-1.828.728-1.828,1.8v2.355h3.365a.535.535,0,0,1,.532.6l-.334,2.815a.535.535,0,0,1-.532.472H15.924l-.015,8.733h5.239a3.293,3.293,0,0,0,3.293-3.293V3.293A3.293,3.293,0,0,0,21.148,0Z" transform="translate(-0.002)" fill="#fff" opacity="0.599"/>
</svg>
