<svg xmlns="http://www.w3.org/2000/svg" width="24.44" height="24.44" viewBox="0 0 24.44 24.44">
  <g opacity="0.599">
    <path d="M17.159,0H7.281A7.289,7.289,0,0,0,0,7.281v9.878A7.289,7.289,0,0,0,7.281,24.44h9.878a7.289,7.289,0,0,0,7.281-7.281V7.281A7.289,7.289,0,0,0,17.159,0Zm4.822,17.159a4.822,4.822,0,0,1-4.822,4.822H7.281a4.822,4.822,0,0,1-4.822-4.822V7.281A4.822,4.822,0,0,1,7.281,2.459h9.878a4.822,4.822,0,0,1,4.822,4.822v9.878Z" fill="#fff"/>
    <path d="M139.321,133a6.321,6.321,0,1,0,6.321,6.321A6.328,6.328,0,0,0,139.321,133Zm0,10.183a3.862,3.862,0,1,1,3.862-3.862A3.862,3.862,0,0,1,139.321,143.183Z" transform="translate(-127.101 -127.101)" fill="#fff"/>
    <circle cx="1.515" cy="1.515" r="1.515" transform="translate(17.038 4.432)" fill="#fff"/>
  </g>
</svg>
