<svg xmlns="http://www.w3.org/2000/svg" width="24.44" height="24.44" viewBox="0 0 24.44 24.44">
  <path d="M86.871,70.9h-7.5c-6.847,0-8.469,1.621-8.469,8.469v7.5c0,6.847,1.621,8.469,8.469,8.469h7.5c6.847,0,8.469-1.621,8.469-8.469v-7.5C95.34,72.521,93.7,70.9,86.871,70.9Zm3.76,17.437H88.855c-.673,0-.88-.535-2.087-1.759-1.052-1.018-1.518-1.156-1.777-1.156-.362,0-.466.1-.466.6v1.6c0,.431-.138.69-1.276.69a6.921,6.921,0,0,1-5.433-3.26C75.609,81.956,75,79.627,75,79.144c0-.259.1-.5.6-.5h1.776c.448,0,.621.207.793.69.88,2.535,2.346,4.76,2.949,4.76.224,0,.328-.1.328-.673V80.8c-.069-1.207-.707-1.311-.707-1.742a.428.428,0,0,1,.448-.414h2.794c.379,0,.517.207.517.655v3.536c0,.379.172.517.276.517.224,0,.414-.138.828-.552a15.136,15.136,0,0,0,2.19-3.639.786.786,0,0,1,.776-.5h1.777c.535,0,.655.276.535.655a22.431,22.431,0,0,1-2.4,4.1c-.19.31-.259.448,0,.793.19.259.811.793,1.225,1.276a7.677,7.677,0,0,1,1.5,2.087C91.39,88.079,91.131,88.337,90.631,88.337Z" transform="translate(-70.9 -70.9)" fill="#fff" fill-rule="evenodd" opacity="0.599"/>
</svg>
