<svg width="44" height="37" viewBox="0 0 44 37" fill="none" xmlns="http://www.w3.org/2000/svg">
<g clip-path="url(#clip0)">
<path d="M0 0V31.7685C0 34.375 2.12008 36.4951 4.72656 36.4951H39.2734C41.8799 36.4951 44 34.375 44 31.7685V0H0ZM41.4219 31.7685C41.4219 32.9536 40.4585 33.917 39.2734 33.917H4.72656C3.54234 33.917 2.57812 32.9536 2.57812 31.7685V8.99508H41.4219V31.7685ZM2.57812 2.57812H6.96094V6.41695H2.57812V2.57812ZM41.4219 6.41695H9.53906V2.57812H41.4219V6.41695Z" fill="#2E4DE6"/>
<path d="M6.96094 19.9951H15.0391V11.917H6.96094V19.9951ZM9.53906 14.4951H12.4609V17.417H9.53906V14.4951Z" fill="#2E4DE6"/>
<path d="M17.9609 17.417H22.3721V19.9951H17.9609V17.417Z" fill="#2E4DE6"/>
<path d="M25.294 17.417H29.7052V19.9951H25.294V17.417Z" fill="#2E4DE6"/>
<path d="M17.9609 28.4169H22.3721V30.9951H17.9609V28.4169Z" fill="#2E4DE6"/>
<path d="M25.294 28.4169H29.7052V30.9951H25.294V28.4169Z" fill="#2E4DE6"/>
<path d="M17.9609 11.917H37.0391V14.4951H17.9609V11.917Z" fill="#2E4DE6"/>
<path d="M6.96094 30.9951H15.0391V22.9169H6.96094V30.9951ZM9.53906 25.4951H12.4609V28.4169H9.53906V25.4951Z" fill="#2E4DE6"/>
<path d="M17.9609 22.9169H37.0391V25.4951H17.9609V22.9169Z" fill="#2E4DE6"/>
</g>
<defs>
<clipPath id="clip0">
<rect width="44" height="36.4951" fill="white"/>
</clipPath>
</defs>
</svg>
