<svg width="44" height="41" viewBox="0 0 44 41" fill="none" xmlns="http://www.w3.org/2000/svg">
<g clip-path="url(#clip0)">
<path d="M30.3583 5.65812C29.9991 2.4793 27.2955 0 24.0221 0H19.9779C16.7045 0 14.0009 2.4793 13.6417 5.65812H0V11.7477V40.1895H44V11.7468V5.65812H30.3583ZM19.9779 2.58844H24.0221C25.8655 2.58844 27.4055 3.91102 27.7432 5.65812H16.2568C16.5945 3.91102 18.1345 2.58844 19.9779 2.58844ZM2.58844 8.24656H41.4116V11.7477C41.4116 16.4725 37.5676 20.3165 32.8427 20.3165H11.1573C6.43242 20.3165 2.58844 16.4725 2.58844 11.7477V8.24656ZM19.7897 22.9049H24.2112V23.3587C24.2112 24.3813 23.3793 25.2141 22.3558 25.2141H21.6442C20.6216 25.2141 19.7888 24.3822 19.7888 23.3587L19.7897 22.9049ZM41.4116 37.6011H2.58844V18.8848C4.63719 21.34 7.71805 22.9049 11.1573 22.9049H17.2004V23.3587C17.2004 25.8088 19.1941 27.8025 21.6442 27.8025H22.3558C24.8059 27.8025 26.7996 25.8088 26.7996 23.3587V22.9049H32.8427C36.2828 22.9049 39.3637 21.34 41.4116 18.8848V37.6011Z" fill="#2E4DE6"/>
<path d="M17.0535 31.0174H26.9466V33.6058H17.0535V31.0174Z" fill="#2E4DE6"/>
</g>
<defs>
<clipPath id="clip0">
<rect width="44" height="40.1895" fill="white"/>
</clipPath>
</defs>
</svg>
