<svg width="45" height="44" viewBox="0 0 45 44" fill="none" xmlns="http://www.w3.org/2000/svg">
<g clip-path="url(#clip0)">
<path d="M34.917 29.7286H32.3379V32.3507H29.8164V34.9298H32.3379V37.5518H34.917V34.9298H37.5537V32.3507H34.917V29.7286Z" fill="#2E4DE6"/>
<path d="M34.9169 23.4404V11.2265L23.6913 0H0V42.6241H28.5427C30.0578 43.499 31.8136 44 33.6854 44C39.3738 44 44.0017 39.3721 44.0017 33.6837C44.0017 28.4112 40.027 24.0514 34.9169 23.4404ZM24.4467 4.40361L30.4282 10.3851H24.4467V4.40361ZM2.57909 2.57909H21.8676V12.9633H32.3378V23.4541C27.2836 24.1159 23.3682 28.4507 23.3682 33.6828C23.3682 36.0814 24.1906 38.2909 25.5683 40.045H2.57909V2.57909ZM33.6854 41.4209C29.4193 41.4209 25.9481 37.9498 25.9481 33.6837C25.9481 29.4176 29.4193 25.9464 33.6854 25.9464C37.9515 25.9464 41.4226 29.4176 41.4226 33.6837C41.4226 37.9498 37.9515 41.4209 33.6854 41.4209Z" fill="#2E4DE6"/>
<path d="M6.43188 16.89H28.4697V19.469H6.43188V16.89Z" fill="#2E4DE6"/>
<path d="M6.43188 11.7318H16.7482V14.3108H6.43188V11.7318Z" fill="#2E4DE6"/>
<path d="M6.43188 27.2063H16.7482V29.7854H6.43188V27.2063Z" fill="#2E4DE6"/>
<path d="M6.43188 22.0481H21.9064V24.6272H6.43188V22.0481Z" fill="#2E4DE6"/>
</g>
<defs>
<clipPath id="clip0">
<rect width="44.0017" height="44" fill="white"/>
</clipPath>
</defs>
</svg>
