<svg width="44" height="40" viewBox="0 0 44 40" fill="none" xmlns="http://www.w3.org/2000/svg">
<g clip-path="url(#clip0)">
<path d="M43.0873 22.6316C43.0873 21.6562 42.7771 20.7513 42.2512 20.0114C43.3151 19.1812 44.0009 17.887 44.0009 16.4364C44.0009 13.9373 41.9676 11.9041 39.4685 11.9041H30.4202C31.1532 10.3134 31.894 7.95008 31.894 4.89586C31.894 2.1957 29.6983 0 26.999 0C24.2997 0 22.104 2.1957 22.104 4.895C22.104 6.80711 20.9971 7.95094 19.4648 9.53477C18.7412 10.2824 17.9936 11.0559 17.2941 11.9952C16.6401 12.8726 16.1975 13.7638 15.8073 14.5492C14.9256 16.3238 14.6541 16.6134 13.8669 16.6134H12.827V14.8655H0V39.5562H12.827V37.9414C13.0591 38.0729 13.2937 38.2241 13.5386 38.3831C14.3885 38.9331 15.3519 39.557 16.6366 39.557H36.728C39.227 39.557 41.2603 37.5238 41.2603 35.0247C41.2603 34.0493 40.9501 33.1444 40.4241 32.4045C41.488 31.5743 42.1738 30.2801 42.1738 28.8295C42.1738 27.8541 41.8636 26.9491 41.3377 26.2092C42.4016 25.3765 43.0873 24.0831 43.0873 22.6316ZM9.95758 36.6867H2.86945V17.7349H9.95758V36.6867ZM39.4677 18.0993H30.6084V20.9688H38.5541C39.4711 20.9688 40.217 21.7147 40.217 22.6316C40.217 23.5486 39.4711 24.2945 38.5541 24.2945H30.6084V27.164H37.6406C38.5576 27.164 39.3035 27.9099 39.3035 28.8269C39.3035 29.7438 38.5576 30.4898 37.6406 30.4898H30.6084V33.3592H36.728C37.6449 33.3592 38.3909 34.1052 38.3909 35.0221C38.3909 35.9391 37.6449 36.685 36.728 36.685H16.6366C16.2198 36.685 15.7807 36.4143 15.0975 35.9717C14.4702 35.5661 13.7388 35.0934 12.8262 34.8305V19.482H13.866C16.5602 19.482 17.5673 17.4539 18.3769 15.8245C18.7301 15.1138 19.0953 14.3791 19.5946 13.7079C20.1841 12.9164 20.8673 12.2109 21.5273 11.5285C23.2212 9.77711 24.9734 7.96641 24.9734 4.89328C24.9734 3.77609 25.8818 2.86773 26.999 2.86773C28.1162 2.86773 29.0245 3.77609 29.0245 4.89328C29.0245 9.69117 26.8323 12.3862 26.8159 12.4059L24.7981 14.7718H39.4677C40.3846 14.7718 41.1305 15.5177 41.1305 16.4347C41.1305 17.3534 40.3846 18.0993 39.4677 18.0993Z" fill="#2E4DE6"/>
<path d="M6.28367 35.0831C7.07628 35.0831 7.71882 34.4406 7.71882 33.648C7.71882 32.8554 7.07628 32.2128 6.28367 32.2128C5.49105 32.2128 4.84851 32.8554 4.84851 33.648C4.84851 34.4406 5.49105 35.0831 6.28367 35.0831Z" fill="#2E4DE6"/>
</g>
<defs>
<clipPath id="clip0">
<rect width="44" height="39.5562" fill="white"/>
</clipPath>
</defs>
</svg>
