<svg width="45" height="44" viewBox="0 0 45 44" fill="none" xmlns="http://www.w3.org/2000/svg">
<g clip-path="url(#clip0)">
<path d="M38.5306 16.2698L33.4316 21.3688V0H0V44H33.4316V32.3127L44.0026 21.7417L38.5306 16.2698ZM30.8534 41.4217H2.57828V2.57828H30.8534V23.947L21.4409 33.3595L21.4547 38.8426L26.9155 38.8288L30.8542 34.8901L30.8534 41.4217ZM25.8446 36.2531L24.0261 36.2574L24.0218 34.4243L38.5306 19.9155L40.3569 21.7417L25.8446 36.2531Z" fill="#2E4DE6"/>
<path d="M21.9996 5.16003H11.4312V7.73831H21.9996V5.16003Z" fill="#2E4DE6"/>
<path d="M28.2725 10.3209H5.15997V12.8991H28.2725V10.3209Z" fill="#2E4DE6"/>
<path d="M28.2725 15.4817H5.15997V18.06H28.2725V15.4817Z" fill="#2E4DE6"/>
<path d="M28.2725 20.6417H5.15997V23.2199H28.2725V20.6417Z" fill="#2E4DE6"/>
<path d="M11.4321 36.2617H5.15997V38.84H11.4321V36.2617Z" fill="#2E4DE6"/>
<path d="M14.012 31.1017H5.15997V33.68H14.012V31.1017Z" fill="#2E4DE6"/>
</g>
<defs>
<clipPath id="clip0">
<rect width="44.0026" height="44" fill="white"/>
</clipPath>
</defs>
</svg>
