<svg viewBox="0 0 270 180" fill="none" xmlns="http://www.w3.org/2000/svg">
  <path fill="#fff" d="M0 0h270v180H0z"/>
  <g clip-path="url(#clip0)">
    <path d="M21 162a26 26 0 002 3c216 0 145 12 199-3s17-32 17-58c0-25-29-60-45-61-6 0-11 1-17 3a155 155 0 01-66 9h-1c-9 0-18-2-27-4h-1c-29-7-56 16-49 42 2 9 1 20-7 28-13 13-6 39-5 41z" fill="#2F53EB" fill-opacity=".1"/>
    <path d="M93 168c25 0 45-2 45-3 0-2-20-3-45-3-24 0-44 1-44 3 0 1 20 3 44 3zm81-2l30-1c0-1-14-2-30-2s-29 1-29 2l29 1z" fill="#3F3D56"/>
    <path d="M84 28a8 8 0 100-16 8 8 0 000 16zm-25 88l5-17 2 1s-2 13-5 16h-2z" fill="#2F2E41"/>
    <path d="M78 24s1 7-1 9c-1 2 1 6 1 6l4 5 7-3 1-6-1-3a7 7 0 01-1-6c1-4-10-2-10-2z" fill="#FFB9B9"/>
    <path opacity=".1" d="M78 24s1 7-1 9c-1 2 1 6 1 6l4 5 7-3 1-6-1-3a7 7 0 01-1-6c1-4-10-2-10-2z" fill="#000"/>
    <path d="M82 150v4l6 2-1-8-5 2zm17-2l-1 6 2 2 5-3-1-5h-5z" fill="#FFB9B9"/>
    <path d="M88 155a4 4 0 00-6-1l-2 4s-5 6 0 7l8-1s-1 1 0 0c2 0 1-3 1-3l-1-6zm14-3l-3 2a1 1 0 00-2-1s-3 11-1 11h4s2-2 2 0l10 1c3 0 2-2 2-2l-4-4-5-7h-3zM71 82l5 43 3 26s3 2 9 0l-2-34 3-21 6 15 2 38c1 0 7 2 8 0 2-2 1-27 1-27s0-39-5-41c-5-1-30 1-30 1z" fill="#2F2E41"/>
    <path d="M84 28a7 7 0 100-14 7 7 0 000 14z" fill="#FFB9B9"/>
    <path d="M84 41l-1-5-3-1-3-3-10 7-2 4 6 14s3 8 1 12c-2 5-4 13-1 15 4 2 22 6 25 3 3-4 6-5 7-5 0 0-4-14-3-16V56l4-13s0-8-10-9l-5-3-5 10z" fill="#575A89"/>
    <path d="M64 84v7c0 1-3 10 1 11s3-12 3-12v-6h-4zm44-5v6c0 1 3 11-1 11-5 1-4-11-4-11v-6h5z" fill="#FFB9B9"/>
    <path d="M63 115l4-17a6 6 0 011 7l-2 10h-3z" fill="#2F2E41"/>
    <path d="M66 41l-1 2-2 36c1 2-2 6 0 6s5 2 6 1l2-5 1-9s2-9 1-15l-3-14-4-2zm34-2l4 4 4 21 1 17h-6a2 2 0 01-2 0l-1-7-1-8-1-8 1-10 1-9z" fill="#575A89"/>
    <path d="M77 138l-2 5a1172 1172 0 01-5 14c-1 2-22-2-24-3s-2-4-2-9v-5a64 64 0 012-7l5-12 5-4c2-2 10-4 10-4 2 0 7 9 10 12 2 3 1 13 1 13z" fill="#3F3D56"/>
    <path d="M65 122a1 1 0 100-2 1 1 0 000 2zm2 1a1 1 0 100-1 1 1 0 000 1z" fill="#2F2E41"/>
    <path d="M75 143l-1 4-29-10 1-4 29 10zm-2 6l-2 4-27-9v-4l29 9z" fill="#F2F2F2"/>
    <path d="M65 121s2 9 1 18c-1 8 3 15 3 15" stroke="#2F2E41" stroke-width="3" stroke-miterlimit="10"/>
    <path d="M67 122l-5 17c0 2-1 17-4 19" stroke="#2F2E41" stroke-width="3" stroke-miterlimit="10"/>
    <path d="M78 17s-2-5 1-6v2s6-4 8-3l-1 2s6 0 7 3h-2l2 4-5 1 3 1s-10 1-12-2l-1-2z" fill="#2F2E41"/>
    <path d="M77 17s2 4 4 3c3-1 0-5 0-5l-2-1-2 3z" fill="#2F2E41"/>
    <path d="M137 68l-3 3 10 9 3-4-10-8zm64 61l-3 3 8 8 3-3-8-8z" fill="#2F53EB"/>
    <path d="M216 103v3a44 44 0 110-3z" fill="#2F53EB"/>
    <path d="M172 153a50 50 0 01-36-83l1 1a48 48 0 0070 66l1 1a49 49 0 01-36 15z" fill="#2F53EB"/>
    <path d="M179 152h-12v13h12v-13z" fill="#2F53EB"/>
    <path opacity=".5" d="M137 76v1l1 1h1-3a44 44 0 00-8 28l1 1h3v1h2l1 1a3 3 0 003 2h1l1 1v2l-2 3v1h-1a2 2 0 001 2l1 1v2a4 4 0 003 3l1 1v1l2 4-1 2v3l5 4a1 1 0 000-1l1-1a1 1 0 000-1 2 2 0 001 0 1 1 0 000-1v-2h4l-1-1a2 2 0 001-1v-3l3-2h1a1 1 0 000-1l-1-1 2-4v-1a2 2 0 000-2l-2-1-1-1h-1l-2-1h-1l-1-1a3 3 0 00-2-3h-1l-1-1-2-1a992 992 0 01-6 1h-2l-1-1a1 1 0 010-1 2 2 0 000-2 3 3 0 00-2-1v-1l1-1-1-1a2 2 0 00-2 2v1a1 1 0 01-1 0l-1-1v-4l4-1a1 1 0 010-1 1 1 0 011-1l1 1 1 1 1 1a1 1 0 000-1v-1l2-2 2-2v-1l7-4h1l-1-1a1 1 0 000-1h-1l1-1h3v1a1 1 0 000 1l1 1c1 0 2-1 1-2l-1-1 1-2h-1a2 2 0 010-2 2 2 0 01-2-1l-2-1h-2v3l-2 1-1 1h-1a1 1 0 000-1l-1-1h-1l-1-1a3 3 0 012-2h2v-1l2 1h1v-1h-1a5 5 0 015-2l-1 1v1h2l1 1v-1a1 1 0 011-1l1 1v-2l-1-1-6-1v1h-1a1 1 0 000 1v1l-1-1a5 5 0 00-1-1h-2v1a1 1 0 010 1h-1l-2-1 1-1v-1l-3-1h-1l-1 1zm79 30l-3-1v2c0 1 2 2 1 3a5 5 0 01-2-3l-1-4-1-1-1-1a2 2 0 00-2-1h-2l-1 2v2l-1 2a2 2 0 01-2 1l-1-1-2-7-1 1-3-3-5-1-2-1a2 2 0 000 2 1 1 0 002 0 1 1 0 011 0v1l1 1a1 1 0 010 1l-1 1-2 2a3 3 0 01-4 1c1-2-1-3-1-4v-1l-1-2a6 6 0 01-2-4v-1a1 1 0 00-1-1l-3-1a1 1 0 010-1 1 1 0 011 0h4v-2l-1-1v-1l-1 1h-3v2h-2v3a1 1 0 01-1 0 1 1 0 01-1-2l1-1h-1a844 844 0 00-1 2h-1l-2-3a3 3 0 00-4 1v1a5 5 0 01-4 2l-1-1v-2l2-1a1 1 0 001-1l-1-1v-1h2a2 2 0 002-2 1 1 0 002-2 1 1 0 011 0l1 1 2-1h2v-2a3 3 0 002 0l-2-1v-2a1 1 0 00-1 0l-2 1v1a1 1 0 011 1 1 1 0 01-1 1 1 1 0 010 1h-1l-1-1a1 1 0 000-1h-2a1 1 0 010-1l1-1 2-2 2-1 1-1h6a2 2 0 011 2h-2l1 1 2-1a1 1 0 001 0h1l6-1a1 1 0 010-1l1 1 1 1 1-1-1-1v-1a31 31 0 016-1 1 1 0 001 0 2 2 0 01-3-1h6l2 1-1 1a1 1 0 001 0h1c8 8 12 18 13 29a1 1 0 00-1 1l1 2v3z" fill="#fff"/>
    <path d="M202 82a4 4 0 100-8 4 4 0 000 8z" fill="#3F3D56"/>
    <path d="M202 51a8 8 0 00-8 8c0 4 9 19 9 19s7-15 7-19a8 8 0 00-8-8zm0 12a4 4 0 110-8 4 4 0 010 8z" fill="#57B894"/>
  </g>
  <defs>
    <clipPath id="clip0">
      <path fill="#fff" d="M18 10h233v160H18z"/>
    </clipPath>
  </defs>
</svg>
