<svg width="270" height="180" fill="none" xmlns="http://www.w3.org/2000/svg"><path fill="#fff" d="M0 0h270v180H0z"/><g clip-path="url(#clip0)"><path d="M216 40s11 8 13 4c3-3-5-6-5-6h-6l-2 2z" fill="#2F2E41"/><path d="M118 157c51 0 93-2 93-5s-42-5-93-5-93 2-93 5 42 5 93 5zM208 162c20 0 37-1 37-2s-17-2-37-2-36 1-36 2 16 2 36 2zM106 166l36-1c0-1-16-2-36-2s-37 1-37 2l37 1z" fill="#3F3D56"/><path d="M195 110l3-3 7-8a1 1 0 000-2 1 1 0 00-2 0l-7 9-1 4zM224 27s-4-4-10 3c-5 7-14 10-16 13l11-5 3-1s-4 3-5 6l-1 7c-1 3 24 2 24 2s3-4 2-9c-1-4 0-16-8-16z" fill="#2F2E41"/><path d="M216 38s1 7-3 8c-5 2-3 4-3 4l6 3 7-2 2-3s-3-1-2-4l1-3-8-3z" fill="#FFB9B9"/><path opacity=".1" d="M216 38s1 7-3 8c-5 2-3 4-3 4l6 3 7-2 2-3s-3-1-2-4l1-3-8-3z" fill="#000"/><path d="M234 58l-1 13v20s2 11-1 11c-2 1-2-11-2-11l-2-17V58h6z" fill="#FFB9B9"/><path opacity=".1" d="M234 58l-1 13v20s2 11-1 11c-2 1-2-11-2-11l-2-17V58h6z" fill="#000"/><path d="M206 97s-5 17-4 26l2 21-1 5 3 3 2-1 1-1v-1-9c1-4 2-13 1-16l8-26-12-1z" fill="#FFB9B9"/><path d="M206 150s-2-2-3-1l-3 5s-6 6-2 7c5 0 7-2 7-3l6-4-1-5c-1-1-2 2-2 2l-2-1z" fill="#2F2E41"/><path d="M221 98v17l1 7-2 26v4h3l1-4 5-15s2-10 1-13c-1-4 4-26 4-26l-13 4z" fill="#FFB9B9"/><path d="M219 151h1l1-1 2 1h1l2 4c1 1 3 5 1 5h-6l-1-3-2-1 1-5z" fill="#2F2E41"/><path d="M221 43a7 7 0 100-13 7 7 0 000 13z" fill="#FFB9B9"/><path d="M210 47h1l4 2c4 0 8 1 10-2l1 1 2 1-1 3-1 7-2 5-5-1-6-4-2-6v-5l-1-1z" fill="#2F53EB"/><path d="M227 49l1-1s5 1 5 3l-3 8v6l-2 4-1 4-18 1-1-2v-1-1-1c1-1-1-6-1-6v-5l-4-7 2-2 5-2 1 2 1 10 2 6 8-1 3-5 2-6v-4z" fill="#2F53EB"/><path d="M232 51h1l1 9-5 1 3-10z" fill="#2F53EB"/><path d="M202 59a197 197 0 000 34s-2 11 1 11c2 1 2-12 2-12l2-16V60l-5-1z" fill="#FFB9B9"/><path d="M209 47l1 9-1 17 1 1h-1v2l-1 6-3 16 13 2c4 0 19-5 19-7a446 446 0 00-8-21l1-3-3-13 2-8-2-1-2 8c-4 2-8 2-12 1l-2-10-2 1z" fill="#2F2E41"/><path d="M204 51h-1l-2 9 7 1-1-7-3-3z" fill="#2F53EB"/><path d="M53 13v138h118V13H53zm6 126a2 2 0 110-4 2 2 0 010 4zm0-10a2 2 0 110-4 2 2 0 010 4zm0-9a2 2 0 110-4 2 2 0 010 4zm0-10a2 2 0 110-4 2 2 0 010 4zm0-10a2 2 0 110-4 2 2 0 010 4zm0-10a2 2 0 110-4 2 2 0 010 4zm0-10a2 2 0 110-4 2 2 0 010 4zm0-10a2 2 0 110-4 2 2 0 010 4zm0-10a2 2 0 110-4 2 2 0 010 4zm0-10a2 2 0 110-4 2 2 0 010 4zm0-10a2 2 0 110-4 2 2 0 010 4zm0-9a2 2 0 110-5 2 2 0 010 5z" fill="#EEF1FE"/><path d="M80 48l-4 3h-3a2 2 0 01-2-2 2 2 0 012-1h2l2 3 1 1h4a3 3 0 002-2M87 44v9l2-1a3 3 0 003-1 2 2 0 00-1-2l-2-1h-1M99 47h-2a3 3 0 00-2 1c-1 1 0 3 1 4h4" stroke="#3F3D56" stroke-width="2" stroke-miterlimit="10"/><path d="M82 37c-2 2-4 2-6 0a8 8 0 01-2-6V13h10v18a8 8 0 01-2 6zM128 132v-5a27 27 0 01-23-12 27 27 0 1143 2 43 43 0 01-20 15zm0-48a16 16 0 100 32 16 16 0 000-32zm0 30l-1-1-3-6v-1h7v1l-3 6v1zm-4-1h-1c-3-1-6-3-7-6l-1-1h7l2 6v1zm8 0h-1v-1l3-6h6v1c-2 3-5 5-8 6zm9-9h-7v-1a27 27 0 000-6v-1h7a14 14 0 010 7v1zm-9 0h-9v-1-3-4h9v8zm-11 0h-7v-1a15 15 0 010-7h7v1a27 27 0 000 6v1zm19-10h-6v-1l-3-5v-2l1 1a14 14 0 018 6v1zm-9 0h-7v-1l3-7h1l3 7v1zm-10 0h-6l1-1c1-3 4-5 7-6l1-1v2l-2 5-1 1z" fill="#2F53EB"/></g><defs><clipPath id="clip0"><path fill="#fff" d="M25 13h220v154H25z"/></clipPath></defs></svg>