<svg viewBox="0 0 270 180" fill="none" xmlns="http://www.w3.org/2000/svg">
  <path fill="#fff" d="M0 0h270v180H0z"/>
  <path d="M241.84 148.217a26.439 26.439 0 01-1.952 2.678H24l.029-.023c.194-.151 1.335-1.074 3.108-2.655a123.645 123.645 0 004.662-4.377C46.463 129.416 74.633 95.276 51.172 64c-21.809-29.074 1.673-34.351 17.163-34.966a44.255 44.255 0 0117.456 2.854 155.093 155.093 0 0037.276 8.8 163.207 163.207 0 0029.647.62 161.348 161.348 0 0026.559-4.11c.565-.137 1.123-.267 1.678-.4 29.067-6.724 55.863 16.2 49.163 42.1-2.477 9.582-1.847 19.794 6.41 28.056 13.525 13.484 6.57 39.324 5.316 41.263z" fill="#2F53EB" fill-opacity=".08"/>
  <path d="M245.028 142.086a36.638 36.638 0 01-3.188 6.129 26.439 26.439 0 01-1.931 2.655H24.029c.194-.151 1.335-1.074 3.108-2.655a123.645 123.645 0 004.662-4.377l22.753-4.7c.294-.061.594-.091.894-.091l24.257-.035h.025l12.015-.016h.027l10.14-.012h13.437l27.86-.039h11.988l4.785-.054h1.581l13.917-.019h6.581l16.075-.021h4.787l15.226-.021 12.852-.016c.358 0 .715.042 1.063.126l12.966 3.146z" fill="#454B69"/>
  <path opacity=".4" d="M27.137 148.217h214.7a26.439 26.439 0 01-1.931 2.655H24.029c.19-.161 1.331-1.084 3.108-2.655z" fill="#000"/>
  <path d="M166.429 87.803l-.431.084-19.5 3.745c-5.663 1.088-11.407 2.182-17.159 1.764-4.167-.3-8.06-1.539-12.063-2.622-2.263-.614-4.662-.859-5.43-3.392-1.059-3.5.664-8.674 1.07-12.217.516-3.476.491-7.01-.074-10.478a18.702 18.702 0 00-.606-2.281c-.694-2.057-1.783-4.2-1.195-6.284.464-1.657 1.88-2.84 3.205-3.936 2.6-2.137 5.245-4.532 6.275-7.735.505-1.554.6-3.227 1.144-4.769a11.132 11.132 0 016.506-6.288 24.444 24.444 0 019.163-1.408c2.745 0 5.487.182 8.208.545a23.513 23.513 0 018.576 2.5 10.679 10.679 0 015.416 6.826c.861 4.159-1.529 8.588-.247 12.627.645 2.042 2.137 3.691 3.172 5.56a13.242 13.242 0 01.971 10.3c-1.239 3.84-4.274 7.726-2.72 11.45.989 2.368 3.514 3.633 5.274 5.509.163.165.312.331.445.5z" fill="#454B69"/>
  <path opacity=".1" d="M166.001 87.313v.573l-19.5 3.745c-5.663 1.088-11.407 2.18-17.159 1.764-4.167-.3-8.06-1.54-12.063-2.622-2.263-.614-4.662-.86-5.43-3.392-1.059-3.5.664-8.674 1.07-12.217.389-3.477 6.37-16.172 5.678-19.608l35.743 1.554c.241 1.9 9.688 11.424 9.1 13.244-1.239 3.84-4.274 7.726-2.72 11.45.997 2.368 3.522 3.633 5.281 5.509z" fill="#000"/>
  <path d="M129.481 77.701a5.285 5.285 0 01-.289 3.574c-.818 1.406-2.6 1.855-4.2 2.174l-5.536 1.107a2.15 2.15 0 00-1.059.42c-.306.33-.481.76-.493 1.21a13.905 13.905 0 001.133 5.89c1.307 3.868 2.4 7.817 4.058 11.549a24.77 24.77 0 007.16 9.789 13.841 13.841 0 0011.488 2.848c3.454-.849 6.286-3.287 8.728-5.872a21.135 21.135 0 004.876-7.24c.6-1.93.971-3.924 1.105-5.94l.983-9.239c.153-1.445.254-3.071-.684-4.18a4.977 4.977 0 00-1.542-1.113 63.29 63.29 0 01-6.34-3.421 10.17 10.17 0 01-4.332-5.556c-.359-1.395-.3-2.914-.907-4.213a5.693 5.693 0 00-3.691-2.877 12.588 12.588 0 00-4.794-.194c-1.6.181-7.77.643-8.433 2.448-.355.971 1.119 3.056 1.469 4.011a28.052 28.052 0 011.3 4.825z" fill="#EFB7B9"/>
  <path opacity=".1" d="M129.481 77.701a5.285 5.285 0 01-.289 3.574c-.818 1.406-2.6 1.855-4.2 2.174l-5.536 1.107a2.15 2.15 0 00-1.059.42c-.306.33-.481.76-.493 1.21a13.905 13.905 0 001.133 5.89c1.307 3.868 2.4 7.817 4.058 11.549a24.77 24.77 0 007.16 9.789 13.841 13.841 0 0011.488 2.848c3.454-.849 6.286-3.287 8.728-5.872a21.135 21.135 0 004.876-7.24c.6-1.93.971-3.924 1.105-5.94l.983-9.239c.153-1.445.254-3.071-.684-4.18a4.977 4.977 0 00-1.542-1.113 63.29 63.29 0 01-6.34-3.421 10.17 10.17 0 01-4.332-5.556c-.359-1.395-.3-2.914-.907-4.213a5.693 5.693 0 00-3.691-2.877 12.588 12.588 0 00-4.794-.194c-1.6.181-7.77.643-8.433 2.448-.355.971 1.119 3.056 1.469 4.011a28.052 28.052 0 011.3 4.825z" fill="#000"/>
  <path d="M142.805 98.825l3.246-6.873c1.521-3.221 3.075-6.6 2.914-10.162-.031-.707-.039-1.591.583-1.911.27-.11.564-.148.853-.109 3.417.175 6.789.857 10.006 2.024.64.18 1.225.518 1.7.983.398.53.66 1.151.763 1.807a52.874 52.874 0 011.113 6.579 103.91 103.91 0 010 16.512l-.862 16.79c.005.238-.044.475-.142.692a1.495 1.495 0 01-1.129.592 24.502 24.502 0 01-5.064.163c-11.889-.451-23.839-1.142-35.65.3a56.674 56.674 0 00-.084-5.245c-.468-7.555-2.426-14.925-4.349-22.244-1.121-4.274-2.207-8.936-.4-12.963a5.546 5.546 0 011.125-1.713 6.392 6.392 0 012.852-1.432 18.152 18.152 0 015.5-.622l12.248 26.666c.56 1.22 1.02 2.5 1.577 3.708.5-2.081-.1-4.518.5-6.774a42.665 42.665 0 012.7-6.768z" fill="#fff"/>
  <path d="M141.526 117.172a7.639 7.639 0 005.828-2.572 18.03 18.03 0 003.343-5.633 55.612 55.612 0 002.873-8.957c.687-2.586.889-5.276.594-7.935-.556-3.642-2.617-6.952-2.968-10.62a1.938 1.938 0 01.493-1.777 2.05 2.05 0 011.134-.3c3.664-.218 7.689-.177 10.527 2.148.864.707 1.566 1.591 2.411 2.319 2.013 1.748 4.856 2.638 6.148 4.959.396.837.724 1.704.981 2.593a23.861 23.861 0 003.3 5.651c-1.237 5.222-2.659 10.447-3.9 15.669a68.512 68.512 0 01-2.593 9.072c-.746 1.923-1.684 3.885-1.455 5.944.129.805.329 1.597.6 2.366a27.194 27.194 0 011.144 8.456l-55.429.136c2.656-3.807 3.434-8.477 3.164-13.11a14.327 14.327 0 00-1.748-6.376c-1.76-3.011-4.856-4.973-7.908-6.653-2.137-1.166-4.431 5.393-6.741 4.641.394-5.149.524-10.315.389-15.477a7.09 7.09 0 01.14-2.6c.183-.569.519-1.078.746-1.632.911-2.216.043-5.051 1.515-6.937 1.018-1.311 2.8-1.684 4.254-2.492a25.526 25.526 0 003.94-3.252 17.522 17.522 0 018.967-4 11.299 11.299 0 011.711 5.051c.1 1.129.027 2.273.185 3.4a16.718 16.718 0 001.469 4.355 158.19 158.19 0 008.495 17.254 18.269 18.269 0 003.291 4.318 7.517 7.517 0 005.1 1.991z" fill="#2F53EB"/>
  <path opacity=".1" d="M141.526 117.172a7.639 7.639 0 005.828-2.572 18.03 18.03 0 003.343-5.633 55.612 55.612 0 002.873-8.957c.687-2.586.889-5.276.594-7.935-.556-3.642-2.617-6.952-2.968-10.62a1.938 1.938 0 01.493-1.777 2.05 2.05 0 011.134-.3c3.664-.218 7.689-.177 10.527 2.148.864.707 1.566 1.591 2.411 2.319 2.013 1.748 4.856 2.638 6.148 4.959.396.837.724 1.704.981 2.593a23.861 23.861 0 003.3 5.651c-1.237 5.222-2.659 10.447-3.9 15.669a68.512 68.512 0 01-2.593 9.072c-.746 1.923-1.684 3.885-1.455 5.944.129.805.329 1.597.6 2.366a27.194 27.194 0 011.144 8.456l-55.429.136c2.656-3.807 3.434-8.477 3.164-13.11a14.327 14.327 0 00-1.748-6.376c-1.76-3.011-4.856-4.973-7.908-6.653-2.137-1.166-4.431 5.393-6.741 4.641.394-5.149.524-10.315.389-15.477a7.09 7.09 0 01.14-2.6c.183-.569.519-1.078.746-1.632.911-2.216.043-5.051 1.515-6.937 1.018-1.311 2.8-1.684 4.254-2.492a25.526 25.526 0 003.94-3.252 17.522 17.522 0 018.967-4 11.299 11.299 0 011.711 5.051c.1 1.129.027 2.273.185 3.4a16.718 16.718 0 001.469 4.355 158.19 158.19 0 008.495 17.254 18.269 18.269 0 003.291 4.318 7.517 7.517 0 005.1 1.991z" fill="#000"/>
  <path d="M138.595 77.261c9.197 0 16.652-7.455 16.652-16.652 0-9.197-7.455-16.652-16.652-16.652-9.197 0-16.652 7.455-16.652 16.652 0 9.197 7.455 16.652 16.652 16.652z" fill="#EFB7B9"/>
  <path d="M129.857 82.8c.456-4.31-1.335-8.525-3.363-12.354a24.871 24.871 0 01-2.5-5.665 7.141 7.141 0 01.9-5.94c1.061-1.406 2.743-2.166 4.3-2.992 4.392-2.33 8.407-5.758 10.338-10.34-1.092.594-.808 2.368.155 3.151a9.97 9.97 0 003.462 1.307c4.32 1.36 6.912 5.668 8.99 9.693.392.632.626 1.349.682 2.09a4.24 4.24 0 01-.7 2.026c-1.026 1.826-2.281 3.58-2.747 5.622a13.565 13.565 0 00.761 7.07 15.146 15.146 0 003.673 6.627c1.865 1.744 4.757 2.611 7.052 1.484-2.29-3.938-4.662-8.338-3.769-12.8.431-2.137 1.591-4.079 2.084-6.2.94-4.054-.625-8.225-2.162-12.094l-4.592-11.549c-.7-1.766-1.5-3.65-3.108-4.65a8.418 8.418 0 00-3.679-.972c-4.1-.365-8.353-.245-12.172 1.282-6.958 2.78-11.321 9.633-14.783 16.281-1.037 1.991-2.061 4.107-2.018 6.352.088 1.23.305 2.447.647 3.631 1.138 4.888 1.2 9.952 1.259 14.97.045 3.85-.155 7.478-1.84 10.984 2.308.458 5.655 1.7 7.939.791 2.984-1.182 4.816-4.809 5.191-7.806z" fill="#454B69"/>
  <g opacity=".1" fill="#000">
    <path opacity=".1" d="M118.56 78.744c.008-.548.008-1.101 0-1.66-.058-5.017-.12-10.081-1.259-14.968a25.196 25.196 0 01-.594-2.891c-.04.334-.057.671-.052 1.008.088 1.23.305 2.447.647 3.63 1.132 4.858 1.202 9.89 1.258 14.88zM159.18 65.574c.255-1.135.34-2.302.253-3.462-.038.577-.123 1.15-.253 1.713-.493 2.137-1.653 4.062-2.084 6.2a10.28 10.28 0 00-.155 2.87c.031-.376.083-.751.155-1.122.431-2.137 1.591-4.07 2.084-6.2zM152.668 60.859a2.81 2.81 0 00.152-.857 4.678 4.678 0 00-.682-2.09c-2.079-4.025-4.662-8.33-8.99-9.693a9.986 9.986 0 01-3.462-1.307 2.468 2.468 0 01-.851-1.71 23.022 23.022 0 01-9.643 8.9c-1.554.827-3.238 1.586-4.3 2.993a6.624 6.624 0 00-1.113 4.7 5.942 5.942 0 011.113-2.955c1.061-1.406 2.743-2.166 4.3-2.992a23.022 23.022 0 009.643-8.9 2.466 2.466 0 00.851 1.709 10.151 10.151 0 003.462 1.307c4.32 1.36 6.912 5.668 8.99 9.693.211.385.388.787.53 1.202zM153.813 81.347a15.2 15.2 0 01-3.673-6.628 19.212 19.212 0 01-.932-4.217 15.37 15.37 0 00.932 5.966 15.147 15.147 0 003.673 6.628c1.865 1.744 4.757 2.61 7.052 1.484-.276-.472-.55-.952-.822-1.436a6.8 6.8 0 01-6.23-1.797zM129.857 81.05c-.375 3-2.209 6.624-5.194 7.809-2.073.822-5.023-.122-7.275-.645a16.812 16.812 0 01-.664 1.6c2.308.458 5.655 1.7 7.939.79 2.986-1.184 4.819-4.811 5.194-7.808.077-.75.092-1.505.043-2.257-.012.17-.03.342-.043.51z"/>
  </g>
  <path d="M153.395 129.215c-3-.476-6.047-1.395-9.023-.777a12.547 12.547 0 00-4.736 2.253 5.458 5.458 0 012.906 3.99c.359 1.16.587 2.356.68 3.567a5.433 5.433 0 01-.917 3.452c3.784.373 7.452-.559 11.143-1.47a3.044 3.044 0 001.179-.476 2.532 2.532 0 00.758-2.018 13.843 13.843 0 00-.752-3.9c-.451-1.528-.785-3.102-1.238-4.621z" fill="#fff"/>
  <path d="M173.659 96.453a5.484 5.484 0 013.5 2.632c2.387 3.438 3.417 7.607 4.563 11.634a154.696 154.696 0 005.025 14.787c.415 1.12.919 2.205 1.508 3.244.55.758.98 1.596 1.274 2.485.513 2.2-1.3 4.274-3.2 5.5a12.645 12.645 0 01-3.273 1.577 19.46 19.46 0 01-3.481.594l-10.783 1.165c-4.963.54-9.971 1.08-14.936.56-.313-1.088.3-1.857.256-2.99a6.675 6.675 0 00-.707-2.31 14.76 14.76 0 01-1.152-4.178 5.654 5.654 0 00-.278-1.568 1.477 1.477 0 00-1.166-.971c2.914-.289 5.127-.839 8.04-1.131a7.17 7.17 0 003.129-.806 6.52 6.52 0 002.294-3.246c1.261-3.089 2.073-6.492 1.41-9.763-.544-2.683-2.061-5.181-2.053-7.918a11.844 11.844 0 011.212-4.7 7.772 7.772 0 013.129-3.99 10.6 10.6 0 015.689-.607z" fill="#2F53EB"/>
  <path opacity=".08" d="M173.659 96.453a5.484 5.484 0 013.5 2.632c2.387 3.438 3.417 7.607 4.563 11.634a154.696 154.696 0 005.025 14.787c.415 1.12.919 2.205 1.508 3.244.55.758.98 1.596 1.274 2.485.513 2.2-1.3 4.274-3.2 5.5a12.645 12.645 0 01-3.273 1.577 19.46 19.46 0 01-3.481.594l-10.783 1.165c-4.963.54-9.971 1.08-14.936.56-.313-1.088.3-1.857.256-2.99a6.675 6.675 0 00-.707-2.31 14.76 14.76 0 01-1.152-4.178 5.654 5.654 0 00-.278-1.568 1.477 1.477 0 00-1.166-.971c2.914-.289 5.127-.839 8.04-1.131a7.17 7.17 0 003.129-.806 6.52 6.52 0 002.294-3.246c1.261-3.089 2.073-6.492 1.41-9.763-.544-2.683-2.061-5.181-2.053-7.918a11.844 11.844 0 011.212-4.7 7.772 7.772 0 013.129-3.99 10.6 10.6 0 015.689-.607z" fill="#000"/>
  <path d="M106.133 93.926a14.111 14.111 0 001.441-5.22 18.09 18.09 0 00-1.387-5.694 32.932 32.932 0 01-1.5-7.03.97.97 0 01.1-.674c.2-.198.465-.317.746-.334a6.05 6.05 0 003.2-2.486 27.255 27.255 0 003.275-5.47c.643-1.432 1.513-3.178 3.083-3.192a88.922 88.922 0 01-2.347 8.79c1.642-.42 3.2-1.03 4.843-1.45.321-.1.658-.145.995-.131a1.502 1.502 0 011.014 2.24c.8.94 2.137 1.193 3.186 1.838s1.8 2.242.87 3.052c-.203.13-.387.289-.546.47-.451.7.653 1.494.561 2.317-.074.674-.938.989-1.593.81a7.178 7.178 0 01-1.748-1.028 1.83 1.83 0 00-1.91-.21 15.26 15.26 0 01-1.105 5.356c-.289.608-.66 1.177-.894 1.809a8.931 8.931 0 00-.412 2.123l-.702 6.444a11.426 11.426 0 01-9.17-2.33z" fill="#EFB7B9"/>
  <path d="M105.313 99.705l-.62-4.194a5.124 5.124 0 01.742-3.815 25.536 25.536 0 0010.917 2.172 1.703 1.703 0 001.379-.437c.288.413.474.89.542 1.389.067.499.014 1.007-.154 1.482-.274.94-.8 1.787-1.15 2.7a3.856 3.856 0 01-.659 1.329 2.853 2.853 0 01-2.148.659 13.697 13.697 0 01-2.424-.231c-2.071-.382-4.356-1.425-6.425-1.054z" fill="#fff"/>
  <path d="M118.1 99.534a86.042 86.042 0 01-7.932-1.282 16.053 16.053 0 00-3.9-.52 4.685 4.685 0 01-2.525-.217 12.156 12.156 0 01-.1 7.564c-.519 1.457-1.309 2.815-1.69 4.315-.793 3.137.3 6.558-.7 9.639a2.435 2.435 0 01-.6 1.072c-.3.278-.717.422-1 .723a2.466 2.466 0 00-.439 1.713l-.017 5.352c-.012 3.407.033 7.02 1.832 9.907a9.41 9.41 0 0010.129 4.01 7.54 7.54 0 002.751-1.346 12.847 12.847 0 002.951-4 17.161 17.161 0 002.255-5.5c.17-1.401.149-2.819-.062-4.215-.878-7.77-2.784-15.475-2.374-23.274a7.055 7.055 0 011.421-3.941z" fill="#2F53EB"/>
  <path d="M129.223 131.778a23.657 23.657 0 01-4.054 0c-.971-.117-1.919-.355-2.883-.519a18.486 18.486 0 00-14.878 4.134c-.746.637-1.5 1.614-1.088 2.506.443.96 1.8.932 2.84.754a8.55 8.55 0 00-2.914 2.279 1.706 1.706 0 00-.511 1.237c.118.962 1.424 1.136 2.389 1.053a.81.81 0 00-.115.651.798.798 0 00.415.515c.425.19.902.225 1.35.1a10.02 10.02 0 002.867-.993 1.098 1.098 0 00.583 1.27 2.4 2.4 0 001.5.138c2.374-.389 4.355-2.04 6.671-2.688 3.7-1.036 7.576.616 11.424.732a7.971 7.971 0 003.537-.583c1.346-.612 2.432-1.76 3.854-2.168 1.579-.451 3.392.068 4.837-.711 1.051-.565.1-4.922-.165-5.762-.492-1.535-.985-2.553-2.622-2.708-4.148-.403-8.862.525-13.037.763z" fill="#EFB7B9"/>
  <path d="M139.56 130.592s6.273 5.309 2.654 11.1l6.993-2.415v-5.068c0-.241-2.656-3.86-2.656-3.86l-3.137-.484-3.854.727z" fill="#fff"/>
  <path d="M73.883 130.263h2.354a4.858 4.858 0 014.856 4.856v7.209H69.027v-7.209a4.857 4.857 0 014.856-4.856z" fill="#3F3D56"/>
  <path opacity=".1" d="M73.883 130.263h2.354a4.858 4.858 0 014.856 4.856v7.209H69.027v-7.209a4.857 4.857 0 014.856-4.856z" fill="#000"/>
  <path d="M74.576 132.916a.965.965 0 100-1.93.965.965 0 000 1.93z" fill="#3F3D56"/>
  <path d="M74.576 131.71a.965.965 0 100-1.93.965.965 0 000 1.93z" fill="#3F3D56"/>
  <path d="M74.576 130.504a.965.965 0 100-1.93.965.965 0 000 1.93z" fill="#3F3D56"/>
  <path d="M74.576 129.297a.965.965 0 100-1.93.965.965 0 000 1.93z" fill="#3F3D56"/>
  <path d="M74.576 128.091a.965.965 0 100-1.93.965.965 0 000 1.93z" fill="#3F3D56"/>
  <path d="M74.576 126.885a.965.965 0 100-1.93.965.965 0 000 1.93z" fill="#3F3D56"/>
  <path d="M74.576 125.676a.965.965 0 100-1.93.965.965 0 000 1.93z" fill="#3F3D56"/>
  <path d="M76.026 126.16a.965.965 0 100-1.93.965.965 0 000 1.93z" fill="#3F3D56"/>
  <path d="M76.991 125.676a.965.965 0 100-1.93.965.965 0 000 1.93z" fill="#3F3D56"/>
  <path d="M77.956 125.194a.965.965 0 100-1.93.965.965 0 000 1.93zM74.576 124.47a.965.965 0 100-1.93.965.965 0 000 1.93z" fill="#3F3D56"/>
  <path d="M74.576 123.263a.965.965 0 100-1.93.965.965 0 000 1.93z" fill="#3F3D56"/>
  <path d="M74.576 122.057a.965.965 0 100-1.93.965.965 0 000 1.93z" fill="#3F3D56"/>
  <path d="M74.576 120.851a.965.965 0 100-1.93.965.965 0 000 1.93z" fill="#3F3D56"/>
  <path d="M78.587 116.772c-.24.035-.482.06-.723.076.224-.195.432-.408.622-.637a4.08 4.08 0 00-.583-1.133c-.24.135-.504.218-.777.245-.239.035-.48.06-.721.078.326-.306.634-.63.923-.971a4.103 4.103 0 00-5.156-.285 4.1 4.1 0 106.44 2.612l-.025.015zM81.805 121.568a1.877 1.877 0 01-.812.27 9.18 9.18 0 01-.721.078c.256-.23.495-.478.715-.742a2.417 2.417 0 10.818.388v.006z" fill="#2F53EB"/>
  <path d="M73.129 126.16a.965.965 0 100-1.93.965.965 0 000 1.93z" fill="#3F3D56"/>
  <path d="M72.164 125.676a.965.965 0 100-1.93.965.965 0 000 1.93z" fill="#3F3D56"/>
  <path d="M71.198 125.194a.965.965 0 100-1.93.965.965 0 000 1.93z" fill="#3F3D56"/>
  <path d="M67.351 121.568c.246.151.524.244.812.27.239.035.48.062.721.078a6.866 6.866 0 01-.715-.742 2.414 2.414 0 012.881 1.51 2.417 2.417 0 11-3.699-1.121v.005z" fill="#2F53EB"/>
  <path d="M73.883 130.979h2.352a4.859 4.859 0 014.856 4.856v6.385a.825.825 0 01-.824.824H69.845a.826.826 0 01-.824-.824v-6.385a4.86 4.86 0 013.002-4.488 4.847 4.847 0 011.86-.368z" fill="#3F3D56"/>
  <g opacity=".1" fill="#000">
    <path opacity=".1" d="M78.652 117.036a3.702 3.702 0 01-.311.3c.11-.004.22-.014.33-.029a3.8 3.8 0 00-.019-.271zM76.892 115.882c.243-.016.482-.041.723-.076.216-.027.427-.085.627-.171a4.27 4.27 0 00-.338-.558 1.451 1.451 0 01-.389.165c-.19.23-.399.444-.623.64zM70.957 117.955a4.093 4.093 0 016.313-3.45l.062-.066a4.101 4.101 0 10-5.4 6.164 4.08 4.08 0 01-.975-2.648z"/>
  </g>
  <g opacity=".1" fill="#000">
    <path opacity=".1" d="M80.273 122.398c.241-.016.482-.041.721-.076.288-.027.566-.12.812-.272a2.42 2.42 0 01.971 1.709 2.404 2.404 0 00-.957-2.198 1.877 1.877 0 01-.812.27l-.194.025a4.935 4.935 0 01-.541.542zM80.37 121.575c.08.001.161.007.241.018.126-.134.251-.278.377-.418a2.42 2.42 0 00-1.094-.035 2.42 2.42 0 00-1.689 1.3 2.408 2.408 0 00-.235 1.307 2.412 2.412 0 012.4-2.172z"/>
  </g>
  <g opacity=".1" fill="#000">
    <path opacity=".1" d="M68.883 122.398a9.174 9.174 0 01-.721-.076 1.879 1.879 0 01-.812-.272 2.42 2.42 0 00-.971 1.709 2.404 2.404 0 01.957-2.198c.246.151.524.244.812.27l.194.025a4.6 4.6 0 00.541.542zM68.787 121.575a1.976 1.976 0 00-.243.018c-.124-.134-.249-.278-.375-.418a2.42 2.42 0 011.094-.035 2.42 2.42 0 011.689 1.3 2.41 2.41 0 01.235 1.307 2.412 2.412 0 00-2.4-2.172z"/>
  </g>
  <path d="M62.239 145.379H43.26a.806.806 0 01-.806-.806v-8.982a.804.804 0 01.758-.806.813.813 0 01.394.077c5.453 2.588 11.327 3.475 18.26.041a.811.811 0 011.063.329c.067.12.102.255.103.392v8.936a.802.802 0 01-.485.753.813.813 0 01-.308.066z" fill="#2F53EB"/>
  <path opacity=".1" d="M62.239 145.379H43.26a.806.806 0 01-.806-.806v-8.982a.804.804 0 01.758-.806.813.813 0 01.394.077c5.453 2.588 11.327 3.475 18.26.041a.811.811 0 011.063.329c.067.12.102.255.103.392v8.936a.802.802 0 01-.485.753.813.813 0 01-.308.066z" fill="#000"/>
  <path d="M52.618 138.551c.62 0 1.123-.659 1.123-1.471 0-.813-.503-1.471-1.123-1.471s-1.123.658-1.123 1.471c0 .812.503 1.471 1.123 1.471z" fill="#3F3D56"/>
  <path d="M52.618 136.755c.62 0 1.123-.659 1.123-1.471s-.503-1.471-1.123-1.471-1.123.659-1.123 1.471.503 1.471 1.123 1.471z" fill="#3F3D56"/>
  <path d="M52.618 134.956c.62 0 1.123-.659 1.123-1.471s-.503-1.471-1.123-1.471-1.123.659-1.123 1.471.503 1.471 1.123 1.471z" fill="#3F3D56"/>
  <path d="M52.618 133.159c.62 0 1.123-.659 1.123-1.471s-.503-1.471-1.123-1.471-1.123.659-1.123 1.471.503 1.471 1.123 1.471z" fill="#3F3D56"/>
  <path d="M52.618 131.36c.62 0 1.123-.659 1.123-1.471s-.503-1.471-1.123-1.471-1.123.659-1.123 1.471.503 1.471 1.123 1.471z" fill="#3F3D56"/>
  <path d="M52.618 129.561c.62 0 1.123-.659 1.123-1.471 0-.813-.503-1.471-1.123-1.471s-1.123.658-1.123 1.471c0 .812.503 1.471 1.123 1.471z" fill="#3F3D56"/>
  <path d="M52.618 127.765c.62 0 1.123-.659 1.123-1.471s-.503-1.471-1.123-1.471-1.123.659-1.123 1.471.503 1.471 1.123 1.471z" fill="#3F3D56"/>
  <path d="M56.829 113.989c.153-.196.292-.402.418-.616l-2.953-.486 3.194.023a5.382 5.382 0 00.1-4.274l-4.283 2.222 3.951-2.914a5.393 5.393 0 00-3.456-2.554 5.39 5.39 0 00-4.224.79 5.368 5.368 0 00-2.3 3.629 5.384 5.384 0 001.089 4.157c-.24.303-.446.632-.614.981l3.831 2.013-4.079-1.379a5.39 5.39 0 00.868 5.051 5.385 5.385 0 004.231 8.711 5.383 5.383 0 004.231-8.711 5.384 5.384 0 000-6.655l-.004.012z" fill="#2F53EB"/>
  <path opacity=".1" d="M47.212 117.315a5.36 5.36 0 001.152 3.328 5.385 5.385 0 004.231 8.711 5.383 5.383 0 004.231-8.711c.72-.914-9.614-3.928-9.614-3.328z" fill="#000"/>
  <path d="M62.239 145.855H43.26a.806.806 0 01-.806-.806v-9.458a.804.804 0 01.758-.806.813.813 0 01.394.077c5.453 2.588 9.777 5.6 18.26.041a.793.793 0 011.073.322c.066.122.098.26.093.399v9.422a.805.805 0 01-.793.809z" fill="#2F53EB"/>
  <path d="M203.072 143.18l-28 3.7-1.4.185-13.689-7.312v-1.711l42.779-4.666.31 9.804z" fill="#9C9CA1"/>
  <path d="M167.916 140.533l30.333-3.576-.311 5.6-23.628 1.733-6.394-3.757z" fill="#939498"/>
  <path opacity=".4" d="M175.072 145.045v1.838l-1.4.194-13.692-7.32v-1.711l13.068 6.993a8.672 8.672 0 002.024.006z" fill="#000"/>
  <path d="M180.447 115.877l-6.286 29.148a1.857 1.857 0 00.45 1.656 1.856 1.856 0 001.613.584l39.77-5.264a1.86 1.86 0 001.523-1.259l8.58-25.875a1.87 1.87 0 00-.285-1.712 1.863 1.863 0 00-1.572-.736l-42.061 2a1.866 1.866 0 00-1.732 1.458z" fill="#3F3D56"/>
  <path d="M202.05 134.342l.014-.808a4.541 4.541 0 01-.908-.107 4.543 4.543 0 01-2.259-1.27 4.478 4.478 0 01-1.266-3.215 4.54 4.54 0 01.386-1.75c.118-.267.261-.521.429-.759.166-.237.354-.458.563-.658a4.442 4.442 0 011.45-.942 4.553 4.553 0 013.512.061 4.505 4.505 0 011.417.992 4.564 4.564 0 01.942 1.451 4.553 4.553 0 01.245 2.532c-.05.252-.121.5-.213.74a4.458 4.458 0 01-.778 1.325 7.29 7.29 0 01-3.536 2.407l.002.001zm.132-8.028a2.618 2.618 0 00-.545.047 2.68 2.68 0 00-1.716 1.107 2.714 2.714 0 00-.423.96 2.75 2.75 0 00-.019 1.088 2.671 2.671 0 00.389.975 2.755 2.755 0 00.718.744 2.705 2.705 0 002.56.294 2.696 2.696 0 00.87-.567 2.697 2.697 0 00-.332-4.158 2.651 2.651 0 00-.96-.424 2.612 2.612 0 00-.542-.069v.003zm-.089 5.074l-.067-.101a4.028 4.028 0 01-.524-1.138l-.032-.109 1.291.023-.033.107a4.033 4.033 0 01-.564 1.119l-.071.099zm-.544-.119l-.199-.071a2.32 2.32 0 01-1.235-1.053l-.072-.129 1.036.019.016.064c.078.34.199.669.359.979l.097.191h-.002zm1.285-.042l-.155-.002.068-.124c.17-.305.302-.63.394-.967l.02-.063 1.036.018-.076.126c-.29.477-.741.836-1.272 1.009h-.014l-.001.003zm1.514-1.525l-1.1-.019.014-.099c.027-.181.043-.364.048-.547a4.535 4.535 0 00-.029-.547l-.01-.101 1.099.02.016.064c.046.19.068.385.066.58a2.396 2.396 0 01-.086.577l-.018.064v.008zm-1.5-.026l-1.452-.025-.008-.072a3.892 3.892 0 01-.036-.571c.005-.19.023-.38.055-.568l.014-.073 1.449.026.009.073c.026.188.038.379.036.57-.005.19-.024.38-.056.569l-.011.071zm-1.844-.032l-1.105-.019-.015-.065a2.291 2.291 0 01.02-1.156l.018-.064 1.105.02-.014.099a4.753 4.753 0 00-.049.546c-.001.183.009.366.03.548l.01.1v-.009zm3.229-1.619l-1.036-.018-.016-.064a4.194 4.194 0 00-.36-.98l-.096-.192.199.074a2.387 2.387 0 01.713.415 2.293 2.293 0 01.523.637l.072.128h.001zm-1.431-.025l-1.292-.022.033-.108c.129-.4.319-.777.564-1.119l.073-.099.067.102c.233.349.41.733.524 1.138l.03.108h.001zm-1.687-.029l-1.036-.018.074-.126c.288-.478.74-.837 1.272-1.008l.201-.065-.103.187c-.17.305-.302.629-.394.966l-.018.064h.004z" fill="#fff"/>
</svg>
