<svg width="270" height="180" viewBox="0 0 270 180" fill="none" xmlns="http://www.w3.org/2000/svg">
<rect width="270" height="180" fill="white"/>
<path d="M241.84 148.217C241.252 149.141 240.607 150.028 239.909 150.872C239.903 150.88 239.896 150.888 239.888 150.895H24L24.029 150.872C24.223 150.721 25.364 149.798 27.137 148.217C28.409 147.084 30.006 145.612 31.799 143.84C46.463 129.416 74.633 95.2759 51.172 63.9999C29.363 34.9259 52.845 29.6489 68.335 29.0339C74.2864 28.8009 80.2237 29.7716 85.791 31.8879C97.805 36.3501 110.326 39.306 123.067 40.6879C123.626 40.7499 124.19 40.8119 124.761 40.8689C133.783 41.7873 142.865 41.9522 151.914 41.3619C152.18 41.3459 152.448 41.3269 152.714 41.3079C161.666 40.6792 170.55 39.3047 179.273 37.1989C179.838 37.0609 180.396 36.9309 180.951 36.7989C210.018 30.0739 236.814 52.9989 230.114 78.8989C227.637 88.4799 228.267 98.6919 236.524 106.954C250.049 120.438 243.094 146.278 241.84 148.217Z" fill="#2F53EB" fill-opacity="0.08"/>
<path d="M245.028 142.086C244.161 144.225 243.093 146.277 241.84 148.215C241.252 149.139 240.607 150.026 239.909 150.87H24.029C24.223 150.719 25.364 149.796 27.137 148.215C28.409 147.082 30.006 145.61 31.799 143.838L54.552 139.138C54.8461 139.077 55.1457 139.047 55.446 139.047L79.703 139.012H79.728L91.743 138.996H91.77L101.91 138.984H115.347L143.207 138.945H155.195L159.98 138.891H161.561L175.478 138.872H182.059L198.134 138.851H202.921L218.147 138.83L230.999 138.814C231.357 138.814 231.714 138.856 232.062 138.94L245.028 142.086Z" fill="#454B69"/>
<path opacity="0.4" d="M27.137 148.217H241.837C241.249 149.141 240.604 150.028 239.906 150.872H24.029C24.219 150.711 25.36 149.788 27.137 148.217Z" fill="black"/>
<path d="M166.429 87.803L165.998 87.887L146.498 91.632C140.835 92.72 135.091 93.814 129.339 93.396C125.172 93.096 121.279 91.857 117.276 90.774C115.013 90.16 112.614 89.915 111.846 87.382C110.787 83.882 112.51 78.708 112.916 75.165C113.432 71.6894 113.407 68.1549 112.842 64.687C112.688 63.9146 112.486 63.1527 112.236 62.406C111.542 60.349 110.453 58.206 111.041 56.122C111.505 54.465 112.921 53.282 114.246 52.186C116.846 50.049 119.491 47.654 120.521 44.451C121.026 42.897 121.121 41.224 121.665 39.682C122.249 38.237 123.13 36.9306 124.251 35.8475C125.371 34.7643 126.707 33.9285 128.171 33.394C131.108 32.3444 134.218 31.8665 137.334 31.986C140.079 31.9859 142.821 32.168 145.542 32.531C148.534 32.8086 151.445 33.6572 154.118 35.031C155.45 35.7236 156.621 36.6896 157.555 37.8658C158.488 39.0421 159.162 40.4021 159.534 41.857C160.395 46.016 158.005 50.445 159.287 54.484C159.932 56.526 161.424 58.175 162.459 60.044C163.304 61.6078 163.825 63.3257 163.992 65.0952C164.159 66.8648 163.968 68.6498 163.43 70.344C162.191 74.184 159.156 78.07 160.71 81.794C161.699 84.162 164.224 85.427 165.984 87.303C166.147 87.4676 166.296 87.6343 166.429 87.803Z" fill="#454B69"/>
<path opacity="0.1" d="M166.001 87.3129V87.8859L146.501 91.6309C140.838 92.7189 135.094 93.8119 129.342 93.3949C125.175 93.0949 121.282 91.8559 117.279 90.7729C115.016 90.1589 112.617 89.9139 111.849 87.3809C110.79 83.8809 112.513 78.7069 112.919 75.1639C113.308 71.6869 119.289 58.9919 118.597 55.5559L154.34 57.1099C154.581 59.0099 164.028 68.5339 163.44 70.3539C162.201 74.1939 159.166 78.0799 160.72 81.8039C161.717 84.1719 164.242 85.4369 166.001 87.3129Z" fill="black"/>
<path d="M129.481 77.701C129.804 78.8896 129.702 80.1537 129.192 81.275C128.374 82.681 126.592 83.13 124.992 83.449L119.456 84.556C119.072 84.5981 118.706 84.7432 118.397 84.976C118.091 85.306 117.916 85.7361 117.904 86.186C117.849 88.2083 118.235 90.2185 119.037 92.076C120.344 95.944 121.437 99.893 123.095 103.625C124.634 107.431 127.094 110.795 130.255 113.414C131.84 114.708 133.693 115.635 135.679 116.127C137.666 116.62 139.737 116.666 141.743 116.262C145.197 115.413 148.029 112.975 150.471 110.39C152.583 108.342 154.243 105.876 155.347 103.15C155.947 101.22 156.318 99.2265 156.452 97.21L157.435 87.971C157.588 86.526 157.689 84.9 156.751 83.791C156.313 83.3243 155.79 82.9464 155.209 82.678C153.032 81.6589 150.916 80.5168 148.869 79.257C146.809 77.9803 145.273 76.01 144.537 73.701C144.178 72.306 144.237 70.787 143.63 69.488C143.254 68.7741 142.73 68.1484 142.094 67.6524C141.458 67.1563 140.723 66.8014 139.939 66.611C138.368 66.2396 136.741 66.1737 135.145 66.417C133.545 66.598 127.375 67.06 126.712 68.865C126.357 69.836 127.831 71.921 128.181 72.876C128.757 74.4423 129.192 76.0571 129.481 77.701Z" fill="#EFB7B9"/>
<path opacity="0.1" d="M129.481 77.701C129.804 78.8896 129.702 80.1537 129.192 81.275C128.374 82.681 126.592 83.13 124.992 83.449L119.456 84.556C119.072 84.5981 118.706 84.7432 118.397 84.976C118.091 85.306 117.916 85.7361 117.904 86.186C117.849 88.2083 118.235 90.2185 119.037 92.076C120.344 95.944 121.437 99.893 123.095 103.625C124.634 107.431 127.094 110.795 130.255 113.414C131.84 114.708 133.693 115.635 135.679 116.127C137.666 116.62 139.737 116.666 141.743 116.262C145.197 115.413 148.029 112.975 150.471 110.39C152.583 108.342 154.243 105.876 155.347 103.15C155.947 101.22 156.318 99.2265 156.452 97.21L157.435 87.971C157.588 86.526 157.689 84.9 156.751 83.791C156.313 83.3243 155.79 82.9464 155.209 82.678C153.032 81.6589 150.916 80.5168 148.869 79.257C146.809 77.9803 145.273 76.01 144.537 73.701C144.178 72.306 144.237 70.787 143.63 69.488C143.254 68.7741 142.73 68.1484 142.094 67.6524C141.458 67.1563 140.723 66.8014 139.939 66.611C138.368 66.2396 136.741 66.1737 135.145 66.417C133.545 66.598 127.375 67.06 126.712 68.865C126.357 69.836 127.831 71.921 128.181 72.876C128.757 74.4423 129.192 76.0571 129.481 77.701Z" fill="black"/>
<path d="M142.805 98.825L146.051 91.952C147.572 88.731 149.126 85.352 148.965 81.79C148.934 81.083 148.926 80.199 149.548 79.879C149.818 79.7687 150.112 79.7311 150.401 79.77C153.818 79.9448 157.19 80.6269 160.407 81.794C161.047 81.9741 161.632 82.3122 162.107 82.777C162.505 83.3079 162.767 83.9283 162.87 84.584C163.379 86.7513 163.751 88.9487 163.983 91.163C164.421 96.6583 164.421 102.18 163.983 107.675L163.121 124.465C163.126 124.703 163.077 124.94 162.979 125.157C162.846 125.333 162.676 125.477 162.481 125.58C162.286 125.682 162.07 125.74 161.85 125.749C160.172 125.978 158.475 126.033 156.786 125.912C144.897 125.461 132.947 124.77 121.136 126.212C121.189 124.465 121.161 122.717 121.052 120.967C120.584 113.412 118.626 106.042 116.703 98.723C115.582 94.449 114.496 89.787 116.303 85.76C116.568 85.1242 116.95 84.5433 117.428 84.047C118.242 83.3362 119.224 82.8435 120.28 82.615C122.071 82.1277 123.926 81.9179 125.78 81.993L138.028 108.659C138.588 109.879 139.048 111.159 139.605 112.367C140.105 110.286 139.505 107.849 140.105 105.593C140.81 103.264 141.714 101 142.805 98.825Z" fill="white"/>
<path d="M141.526 117.172C142.625 117.188 143.715 116.966 144.721 116.522C145.727 116.078 146.625 115.423 147.354 114.6C148.803 112.942 149.936 111.033 150.697 108.967C151.906 106.068 152.867 103.071 153.57 100.01C154.257 97.4245 154.459 94.734 154.164 92.075C153.608 88.433 151.547 85.123 151.196 81.455C151.124 81.1411 151.132 80.8143 151.218 80.5041C151.304 80.1938 151.466 79.9099 151.689 79.678C152.03 79.4696 152.424 79.3653 152.823 79.378C156.487 79.16 160.512 79.201 163.35 81.526C164.214 82.233 164.916 83.117 165.761 83.845C167.774 85.593 170.617 86.483 171.909 88.804C172.305 89.6405 172.633 90.5077 172.89 91.397C173.725 93.4233 174.836 95.3249 176.19 97.048C174.953 102.27 173.531 107.495 172.29 112.717C171.635 115.797 170.769 118.828 169.697 121.789C168.951 123.712 168.013 125.674 168.242 127.733C168.371 128.538 168.571 129.33 168.842 130.099C169.666 132.84 170.052 135.694 169.986 138.555L114.557 138.691C117.213 134.884 117.991 130.214 117.721 125.581C117.643 123.348 117.045 121.165 115.973 119.205C114.213 116.194 111.117 114.232 108.065 112.552C105.928 111.386 103.634 117.945 101.324 117.193C101.718 112.044 101.848 106.878 101.713 101.716C101.599 100.848 101.646 99.9666 101.853 99.116C102.036 98.547 102.372 98.038 102.599 97.484C103.51 95.268 102.642 92.433 104.114 90.547C105.132 89.236 106.914 88.863 108.368 88.055C109.787 87.1053 111.107 86.0158 112.308 84.803C114.855 82.6422 117.966 81.2544 121.275 80.803C122.24 82.3259 122.827 84.0579 122.986 85.854C123.086 86.983 123.013 88.127 123.171 89.254C123.458 90.7663 123.952 92.2319 124.64 93.609C127.119 99.5273 129.956 105.289 133.135 110.863C134.011 112.458 135.12 113.914 136.426 115.181C137.815 116.462 139.636 117.173 141.526 117.172V117.172Z" fill="#2F53EB"/>
<path opacity="0.1" d="M141.526 117.172C142.625 117.188 143.715 116.966 144.721 116.522C145.727 116.078 146.625 115.423 147.354 114.6C148.803 112.942 149.936 111.033 150.697 108.967C151.906 106.068 152.867 103.071 153.57 100.01C154.257 97.4245 154.459 94.734 154.164 92.075C153.608 88.433 151.547 85.123 151.196 81.455C151.124 81.1411 151.132 80.8143 151.218 80.5041C151.304 80.1938 151.466 79.9099 151.689 79.678C152.03 79.4696 152.424 79.3653 152.823 79.378C156.487 79.16 160.512 79.201 163.35 81.526C164.214 82.233 164.916 83.117 165.761 83.845C167.774 85.593 170.617 86.483 171.909 88.804C172.305 89.6405 172.633 90.5077 172.89 91.397C173.725 93.4233 174.836 95.3249 176.19 97.048C174.953 102.27 173.531 107.495 172.29 112.717C171.635 115.797 170.769 118.828 169.697 121.789C168.951 123.712 168.013 125.674 168.242 127.733C168.371 128.538 168.571 129.33 168.842 130.099C169.666 132.84 170.052 135.694 169.986 138.555L114.557 138.691C117.213 134.884 117.991 130.214 117.721 125.581C117.643 123.348 117.045 121.165 115.973 119.205C114.213 116.194 111.117 114.232 108.065 112.552C105.928 111.386 103.634 117.945 101.324 117.193C101.718 112.044 101.848 106.878 101.713 101.716C101.599 100.848 101.646 99.9666 101.853 99.116C102.036 98.547 102.372 98.038 102.599 97.484C103.51 95.268 102.642 92.433 104.114 90.547C105.132 89.236 106.914 88.863 108.368 88.055C109.787 87.1053 111.107 86.0158 112.308 84.803C114.855 82.6422 117.966 81.2544 121.275 80.803C122.24 82.3259 122.827 84.0579 122.986 85.854C123.086 86.983 123.013 88.127 123.171 89.254C123.458 90.7663 123.952 92.2319 124.64 93.609C127.119 99.5273 129.956 105.289 133.135 110.863C134.011 112.458 135.12 113.914 136.426 115.181C137.815 116.462 139.636 117.173 141.526 117.172V117.172Z" fill="black"/>
<path d="M138.595 77.261C147.792 77.261 155.247 69.8057 155.247 60.609C155.247 51.4124 147.792 43.957 138.595 43.957C129.398 43.957 121.943 51.4124 121.943 60.609C121.943 69.8057 129.398 77.261 138.595 77.261Z" fill="#EFB7B9"/>
<path d="M129.857 82.7991C130.313 78.4901 128.522 74.2751 126.494 70.4461C125.428 68.6692 124.588 66.7662 123.994 64.7811C123.703 63.7851 123.633 62.7376 123.788 61.7117C123.944 60.6858 124.321 59.7062 124.894 58.8411C125.955 57.4351 127.637 56.6751 129.194 55.8491C133.586 53.5181 137.601 50.0911 139.532 45.5091C138.44 46.1031 138.724 47.8771 139.687 48.6601C140.749 49.308 141.924 49.7513 143.149 49.9671C147.469 51.3271 150.061 55.6351 152.139 59.6601C152.531 60.292 152.765 61.0088 152.821 61.7501C152.765 62.4742 152.524 63.1719 152.121 63.7761C151.095 65.6021 149.84 67.3561 149.374 69.3981C148.995 71.7802 149.257 74.2203 150.135 76.4671C150.778 78.9521 152.042 81.2329 153.808 83.0951C155.673 84.8391 158.565 85.7061 160.86 84.5791C158.57 80.6411 156.198 76.2411 157.091 71.7791C157.522 69.6421 158.682 67.7001 159.175 65.5791C160.115 61.5251 158.55 57.3541 157.013 53.4851L152.421 41.9361C151.721 40.1701 150.921 38.2861 149.313 37.2851C148.177 36.6849 146.918 36.3527 145.634 36.3141C141.534 35.9491 137.281 36.0691 133.462 37.5961C126.504 40.3761 122.141 47.2291 118.679 53.8771C117.642 55.8681 116.618 57.9841 116.661 60.2291C116.749 61.4587 116.966 62.6757 117.308 63.8601C118.446 68.7481 118.508 73.8121 118.567 78.8291C118.612 82.6791 118.412 86.3081 116.727 89.8141C119.035 90.2721 122.382 91.5141 124.666 90.6051C127.65 89.4231 129.482 85.7961 129.857 82.7991Z" fill="#454B69"/>
<g opacity="0.1">
<path opacity="0.1" d="M118.56 78.7439C118.568 78.1959 118.568 77.6429 118.56 77.0849C118.502 72.0669 118.44 67.0029 117.301 62.1159C117.047 61.1646 116.848 60.1993 116.707 59.2249C116.667 59.5594 116.65 59.8961 116.655 60.2329C116.743 61.4625 116.96 62.6795 117.302 63.8639C118.434 68.7209 118.504 73.7539 118.56 78.7439Z" fill="black"/>
<path opacity="0.1" d="M159.18 65.5739C159.435 64.4388 159.52 63.272 159.433 62.1119C159.395 62.6887 159.31 63.2616 159.18 63.8249C158.687 65.9619 157.527 67.8869 157.096 70.0249C156.91 70.9699 156.858 71.9363 156.941 72.8959C156.972 72.519 157.024 72.144 157.096 71.7729C157.527 69.6359 158.687 67.7029 159.18 65.5739Z" fill="black"/>
<path opacity="0.1" d="M152.668 60.8589C152.763 60.5829 152.814 60.2937 152.82 60.0019C152.762 59.2609 152.528 58.5445 152.138 57.9119C150.059 53.8869 147.476 49.5819 143.148 48.2189C141.923 48.0027 140.748 47.5594 139.686 46.9119C139.438 46.698 139.234 46.4366 139.088 46.1431C138.942 45.8497 138.856 45.53 138.835 45.2029C136.552 49.0421 133.202 52.1344 129.192 54.1029C127.638 54.9289 125.954 55.6879 124.892 57.0949C123.943 58.4657 123.545 60.144 123.779 61.7949C123.877 60.7276 124.261 59.7065 124.892 58.8399C125.953 57.4339 127.635 56.6739 129.192 55.8479C133.202 53.8794 136.552 50.7871 138.835 46.9479C138.856 47.275 138.942 47.5947 139.088 47.8882C139.234 48.1816 139.438 48.443 139.686 48.6569C140.75 49.301 141.924 49.7441 143.148 49.9639C147.468 51.3239 150.06 55.6319 152.138 59.6569C152.349 60.0416 152.526 60.4437 152.668 60.8589V60.8589Z" fill="black"/>
<path opacity="0.1" d="M153.813 81.3469C152.049 79.4831 150.785 77.2029 150.14 74.7189C149.672 73.3527 149.359 71.9381 149.208 70.5019C149.121 72.5326 149.438 74.5605 150.14 76.4679C150.783 78.9528 152.047 81.2336 153.813 83.0959C155.678 84.8399 158.57 85.7069 160.865 84.5799C160.589 84.1079 160.315 83.6279 160.043 83.1439C158.937 83.3867 157.788 83.3496 156.7 83.0358C155.612 82.7219 154.62 82.1414 153.813 81.3469V81.3469Z" fill="black"/>
<path opacity="0.1" d="M129.857 81.0499C129.482 84.0499 127.648 87.6739 124.663 88.8589C122.59 89.6809 119.64 88.7369 117.388 88.2139C117.194 88.7583 116.973 89.2923 116.724 89.8139C119.032 90.2719 122.379 91.5139 124.663 90.6049C127.649 89.4199 129.482 85.7929 129.857 82.7959C129.934 82.0461 129.949 81.2911 129.9 80.5389C129.888 80.7099 129.87 80.8809 129.857 81.0499Z" fill="black"/>
</g>
<path d="M153.395 129.215C150.395 128.739 147.348 127.82 144.372 128.438C142.652 128.847 141.038 129.615 139.636 130.691C140.4 131.081 141.061 131.645 141.566 132.338C142.071 133.032 142.406 133.834 142.542 134.681C142.901 135.841 143.129 137.037 143.222 138.248C143.314 139.469 142.991 140.686 142.305 141.7C146.089 142.073 149.757 141.141 153.448 140.23C153.87 140.156 154.272 139.994 154.627 139.754C154.894 139.494 155.101 139.179 155.232 138.83C155.363 138.481 155.415 138.107 155.385 137.736C155.323 136.407 155.07 135.093 154.633 133.836C154.182 132.308 153.848 130.734 153.395 129.215Z" fill="white"/>
<path d="M173.659 96.4531C174.392 96.6274 175.081 96.9511 175.684 97.404C176.286 97.8569 176.788 98.4292 177.159 99.0851C179.546 102.523 180.576 106.692 181.722 110.719C183.147 115.729 184.824 120.665 186.747 125.506C187.162 126.626 187.666 127.711 188.255 128.75C188.805 129.508 189.235 130.346 189.529 131.235C190.042 133.435 188.229 135.509 186.329 136.735C185.32 137.415 184.217 137.947 183.056 138.312C181.916 138.615 180.751 138.814 179.575 138.906L168.792 140.071C163.829 140.611 158.821 141.151 153.856 140.631C153.543 139.543 154.156 138.774 154.112 137.641C154.019 136.834 153.779 136.052 153.405 135.331C152.818 134.003 152.429 132.595 152.253 131.153C152.235 130.62 152.141 130.092 151.975 129.585C151.887 129.333 151.732 129.109 151.527 128.938C151.322 128.766 151.073 128.655 150.809 128.614C153.723 128.325 155.936 127.775 158.849 127.483C159.94 127.456 161.01 127.18 161.978 126.677C163.062 125.86 163.864 124.725 164.272 123.431C165.533 120.342 166.345 116.939 165.682 113.668C165.138 110.985 163.621 108.487 163.629 105.75C163.704 104.117 164.117 102.516 164.841 101.05C165.409 99.4076 166.51 98.0028 167.97 97.0601C169.775 96.3401 171.743 96.1301 173.659 96.4531V96.4531Z" fill="#2F53EB"/>
<path opacity="0.08" d="M173.659 96.4531C174.392 96.6274 175.081 96.9511 175.684 97.404C176.286 97.8569 176.788 98.4292 177.159 99.0851C179.546 102.523 180.576 106.692 181.722 110.719C183.147 115.729 184.824 120.665 186.747 125.506C187.162 126.626 187.666 127.711 188.255 128.75C188.805 129.508 189.235 130.346 189.529 131.235C190.042 133.435 188.229 135.509 186.329 136.735C185.32 137.415 184.217 137.947 183.056 138.312C181.916 138.615 180.751 138.814 179.575 138.906L168.792 140.071C163.829 140.611 158.821 141.151 153.856 140.631C153.543 139.543 154.156 138.774 154.112 137.641C154.019 136.834 153.779 136.052 153.405 135.331C152.818 134.003 152.429 132.595 152.253 131.153C152.235 130.62 152.141 130.092 151.975 129.585C151.887 129.333 151.732 129.109 151.527 128.938C151.322 128.766 151.073 128.655 150.809 128.614C153.723 128.325 155.936 127.775 158.849 127.483C159.94 127.456 161.01 127.18 161.978 126.677C163.062 125.86 163.864 124.725 164.272 123.431C165.533 120.342 166.345 116.939 165.682 113.668C165.138 110.985 163.621 108.487 163.629 105.75C163.704 104.117 164.117 102.516 164.841 101.05C165.409 99.4076 166.51 98.0028 167.97 97.0601C169.775 96.3401 171.743 96.1301 173.659 96.4531V96.4531Z" fill="black"/>
<path d="M106.133 93.9259C106.946 92.2952 107.435 90.5226 107.574 88.7059C107.424 86.7452 106.956 84.822 106.187 83.0119C105.432 80.7304 104.929 78.373 104.687 75.9819C104.638 75.7526 104.673 75.5132 104.787 75.3079C104.987 75.1096 105.252 74.9909 105.533 74.9739C106.854 74.5376 107.984 73.6597 108.733 72.4879C110.035 70.7989 111.134 68.9631 112.008 67.0179C112.651 65.5859 113.521 63.8399 115.091 63.8259C114.459 66.794 113.676 69.7278 112.744 72.6159C114.386 72.1959 115.944 71.5859 117.587 71.1669C117.908 71.0654 118.245 71.0207 118.582 71.0349C118.819 71.0793 119.042 71.1803 119.232 71.3293C119.422 71.4783 119.573 71.6709 119.673 71.8907C119.772 72.1106 119.817 72.3512 119.804 72.5922C119.79 72.8332 119.719 73.0674 119.596 73.2749C120.396 74.2149 121.733 74.4679 122.782 75.1129C123.831 75.7579 124.582 77.3549 123.652 78.1649C123.449 78.2955 123.265 78.4537 123.106 78.6349C122.655 79.3349 123.759 80.1289 123.667 80.9519C123.593 81.6259 122.729 81.9409 122.074 81.7619C121.446 81.5038 120.857 81.1576 120.326 80.7339C120.058 80.5251 119.738 80.3948 119.401 80.3577C119.063 80.3206 118.722 80.3782 118.416 80.5239C118.373 82.3613 117.999 84.1757 117.311 85.8799C117.022 86.4879 116.651 87.0569 116.417 87.6889C116.194 88.3773 116.056 89.0902 116.005 89.8119L115.303 96.2559C113.697 96.5451 112.047 96.4868 110.465 96.0849C108.884 95.683 107.406 94.9468 106.133 93.9259V93.9259Z" fill="#EFB7B9"/>
<path d="M105.313 99.705L104.693 95.511C104.43 94.1913 104.696 92.8209 105.435 91.696C108.87 93.214 112.598 93.9556 116.352 93.868C116.6 93.9007 116.852 93.8786 117.09 93.803C117.328 93.7275 117.547 93.6005 117.731 93.431C118.019 93.8442 118.205 94.3202 118.273 94.8195C118.34 95.3189 118.287 95.8271 118.119 96.302C117.845 97.242 117.319 98.089 116.969 99.002C116.837 99.4835 116.614 99.9349 116.31 100.331C116.016 100.581 115.673 100.768 115.304 100.882C114.935 100.995 114.546 101.032 114.162 100.99C113.349 100.985 112.538 100.908 111.738 100.759C109.667 100.377 107.382 99.334 105.313 99.705Z" fill="white"/>
<path d="M118.1 99.5339C115.439 99.2306 112.795 98.8032 110.168 98.2519C108.894 97.9196 107.584 97.7453 106.268 97.7329C105.422 97.8936 104.549 97.8182 103.743 97.5149C104.515 99.9827 104.48 102.632 103.643 105.079C103.124 106.536 102.334 107.894 101.953 109.394C101.16 112.531 102.253 115.952 101.253 119.033C101.148 119.436 100.941 119.805 100.653 120.105C100.353 120.383 99.936 120.527 99.653 120.828C99.3 121.325 99.1436 121.935 99.214 122.541L99.197 127.893C99.185 131.3 99.23 134.913 101.029 137.8C102.093 139.437 103.639 140.702 105.454 141.421C107.269 142.139 109.262 142.275 111.158 141.81C112.158 141.554 113.094 141.096 113.909 140.464C115.144 139.335 116.146 137.977 116.86 136.464C117.926 134.776 118.689 132.914 119.115 130.964C119.285 129.563 119.264 128.145 119.053 126.749C118.175 118.979 116.269 111.274 116.679 103.475C116.743 102.048 117.238 100.673 118.1 99.5339V99.5339Z" fill="#2F53EB"/>
<path d="M129.223 131.778C127.874 131.894 126.518 131.894 125.169 131.778C124.198 131.661 123.25 131.423 122.286 131.259C119.655 130.834 116.963 130.984 114.394 131.697C111.826 132.411 109.443 133.671 107.408 135.393C106.662 136.03 105.908 137.007 106.32 137.899C106.763 138.859 108.12 138.831 109.16 138.653C108.034 139.191 107.039 139.969 106.246 140.932C106.082 141.093 105.953 141.286 105.865 141.499C105.777 141.711 105.733 141.939 105.735 142.169C105.853 143.131 107.159 143.305 108.124 143.222C108.06 143.316 108.016 143.423 107.996 143.535C107.977 143.647 107.981 143.763 108.009 143.873C108.038 143.983 108.09 144.086 108.161 144.175C108.233 144.264 108.322 144.337 108.424 144.388C108.849 144.578 109.326 144.613 109.774 144.488C110.775 144.304 111.741 143.97 112.641 143.495C112.575 143.741 112.597 144.003 112.703 144.235C112.809 144.467 112.994 144.655 113.224 144.765C113.696 144.971 114.222 145.019 114.724 144.903C117.098 144.514 119.079 142.863 121.395 142.215C125.095 141.179 128.971 142.831 132.819 142.947C134.027 143.024 135.237 142.824 136.356 142.364C137.702 141.752 138.788 140.604 140.21 140.196C141.789 139.745 143.602 140.264 145.047 139.485C146.098 138.92 145.147 134.563 144.882 133.723C144.39 132.188 143.897 131.17 142.26 131.015C138.112 130.612 133.398 131.54 129.223 131.778Z" fill="#EFB7B9"/>
<path d="M139.56 130.592C139.56 130.592 145.833 135.901 142.214 141.692L149.207 139.277V134.209C149.207 133.968 146.551 130.349 146.551 130.349L143.414 129.865L139.56 130.592Z" fill="white"/>
<path d="M73.883 130.263H76.237C77.5249 130.263 78.7601 130.775 79.6707 131.685C80.5814 132.596 81.093 133.831 81.093 135.119V142.328H69.027V135.119C69.027 133.831 69.5386 132.596 70.4493 131.685C71.36 130.775 72.5951 130.263 73.883 130.263Z" fill="#3F3D56"/>
<path opacity="0.1" d="M73.883 130.263H76.237C77.5249 130.263 78.7601 130.775 79.6707 131.685C80.5814 132.596 81.093 133.831 81.093 135.119V142.328H69.027V135.119C69.027 133.831 69.5386 132.596 70.4493 131.685C71.36 130.775 72.5951 130.263 73.883 130.263Z" fill="black"/>
<path d="M74.576 132.916C75.1089 132.916 75.541 132.484 75.541 131.951C75.541 131.418 75.1089 130.986 74.576 130.986C74.043 130.986 73.611 131.418 73.611 131.951C73.611 132.484 74.043 132.916 74.576 132.916Z" fill="#3F3D56"/>
<path d="M74.576 131.71C75.1089 131.71 75.541 131.278 75.541 130.745C75.541 130.212 75.1089 129.78 74.576 129.78C74.043 129.78 73.611 130.212 73.611 130.745C73.611 131.278 74.043 131.71 74.576 131.71Z" fill="#3F3D56"/>
<path d="M74.576 130.504C75.1089 130.504 75.541 130.072 75.541 129.539C75.541 129.006 75.1089 128.574 74.576 128.574C74.043 128.574 73.611 129.006 73.611 129.539C73.611 130.072 74.043 130.504 74.576 130.504Z" fill="#3F3D56"/>
<path d="M74.576 129.297C75.1089 129.297 75.541 128.865 75.541 128.332C75.541 127.799 75.1089 127.367 74.576 127.367C74.043 127.367 73.611 127.799 73.611 128.332C73.611 128.865 74.043 129.297 74.576 129.297Z" fill="#3F3D56"/>
<path d="M74.576 128.091C75.1089 128.091 75.541 127.659 75.541 127.126C75.541 126.593 75.1089 126.161 74.576 126.161C74.043 126.161 73.611 126.593 73.611 127.126C73.611 127.659 74.043 128.091 74.576 128.091Z" fill="#3F3D56"/>
<path d="M74.576 126.885C75.1089 126.885 75.541 126.453 75.541 125.92C75.541 125.387 75.1089 124.955 74.576 124.955C74.043 124.955 73.611 125.387 73.611 125.92C73.611 126.453 74.043 126.885 74.576 126.885Z" fill="#3F3D56"/>
<path d="M74.576 125.676C75.1089 125.676 75.541 125.244 75.541 124.711C75.541 124.178 75.1089 123.746 74.576 123.746C74.043 123.746 73.611 124.178 73.611 124.711C73.611 125.244 74.043 125.676 74.576 125.676Z" fill="#3F3D56"/>
<path d="M76.026 126.16C76.559 126.16 76.991 125.728 76.991 125.195C76.991 124.662 76.559 124.23 76.026 124.23C75.493 124.23 75.061 124.662 75.061 125.195C75.061 125.728 75.493 126.16 76.026 126.16Z" fill="#3F3D56"/>
<path d="M76.991 125.676C77.524 125.676 77.956 125.244 77.956 124.711C77.956 124.178 77.524 123.746 76.991 123.746C76.458 123.746 76.026 124.178 76.026 124.711C76.026 125.244 76.458 125.676 76.991 125.676Z" fill="#3F3D56"/>
<path d="M77.956 125.194C78.489 125.194 78.921 124.762 78.921 124.229C78.921 123.696 78.489 123.264 77.956 123.264C77.423 123.264 76.991 123.696 76.991 124.229C76.991 124.762 77.423 125.194 77.956 125.194Z" fill="#3F3D56"/>
<path d="M74.576 124.47C75.1089 124.47 75.541 124.038 75.541 123.505C75.541 122.972 75.1089 122.54 74.576 122.54C74.043 122.54 73.611 122.972 73.611 123.505C73.611 124.038 74.043 124.47 74.576 124.47Z" fill="#3F3D56"/>
<path d="M74.576 123.263C75.1089 123.263 75.541 122.831 75.541 122.298C75.541 121.765 75.1089 121.333 74.576 121.333C74.043 121.333 73.611 121.765 73.611 122.298C73.611 122.831 74.043 123.263 74.576 123.263Z" fill="#3F3D56"/>
<path d="M74.576 122.057C75.1089 122.057 75.541 121.625 75.541 121.092C75.541 120.559 75.1089 120.127 74.576 120.127C74.043 120.127 73.611 120.559 73.611 121.092C73.611 121.625 74.043 122.057 74.576 122.057Z" fill="#3F3D56"/>
<path d="M74.576 120.851C75.1089 120.851 75.541 120.419 75.541 119.886C75.541 119.353 75.1089 118.921 74.576 118.921C74.043 118.921 73.611 119.353 73.611 119.886C73.611 120.419 74.043 120.851 74.576 120.851Z" fill="#3F3D56"/>
<path d="M78.587 116.772C78.3463 116.807 78.1053 116.832 77.864 116.848C78.0881 116.653 78.2961 116.44 78.486 116.211C78.3522 115.805 78.1555 115.423 77.903 115.078C77.6637 115.213 77.3992 115.296 77.126 115.323C76.887 115.358 76.646 115.383 76.405 115.401C76.7305 115.095 77.0386 114.771 77.328 114.43C76.6315 113.799 75.7391 113.426 74.8004 113.374C73.8616 113.322 72.9335 113.594 72.1716 114.145C71.4098 114.696 70.8604 115.492 70.6155 116.4C70.3706 117.307 70.4452 118.272 70.8267 119.131C71.2081 119.99 71.8734 120.692 72.7109 121.12C73.5484 121.547 74.5073 121.673 75.4269 121.478C76.3465 121.282 77.171 120.776 77.7621 120.045C78.3533 119.314 78.6752 118.402 78.674 117.462C78.6742 117.226 78.6534 116.99 78.612 116.757L78.587 116.772Z" fill="#2F53EB"/>
<path d="M81.805 121.568C81.5588 121.719 81.2809 121.812 80.993 121.838C80.754 121.873 80.513 121.9 80.272 121.916C80.528 121.686 80.767 121.438 80.987 121.174C80.405 121.023 79.7874 121.094 79.255 121.374C78.7226 121.653 78.3138 122.122 78.1083 122.687C77.9029 123.252 77.9156 123.874 78.144 124.43C78.3725 124.986 78.8002 125.437 79.3435 125.695C79.8869 125.953 80.5069 125.999 81.0823 125.824C81.6576 125.648 82.147 125.265 82.4547 124.748C82.7624 124.232 82.8664 123.619 82.7462 123.029C82.6261 122.44 82.2905 121.917 81.805 121.562V121.568Z" fill="#2F53EB"/>
<path d="M73.129 126.16C73.662 126.16 74.094 125.728 74.094 125.195C74.094 124.662 73.662 124.23 73.129 124.23C72.596 124.23 72.164 124.662 72.164 125.195C72.164 125.728 72.596 126.16 73.129 126.16Z" fill="#3F3D56"/>
<path d="M72.164 125.676C72.697 125.676 73.129 125.244 73.129 124.711C73.129 124.178 72.697 123.746 72.164 123.746C71.6311 123.746 71.199 124.178 71.199 124.711C71.199 125.244 71.6311 125.676 72.164 125.676Z" fill="#3F3D56"/>
<path d="M71.198 125.194C71.731 125.194 72.163 124.762 72.163 124.229C72.163 123.696 71.731 123.264 71.198 123.264C70.665 123.264 70.233 123.696 70.233 124.229C70.233 124.762 70.665 125.194 71.198 125.194Z" fill="#3F3D56"/>
<path d="M67.351 121.568C67.5972 121.719 67.8751 121.812 68.163 121.838C68.402 121.873 68.643 121.9 68.884 121.916C68.6275 121.687 68.3885 121.439 68.169 121.174C68.7511 121.022 69.369 121.092 69.9019 121.372C70.4347 121.651 70.8443 122.119 71.0504 122.684C71.2565 123.25 71.2444 123.872 71.0164 124.428C70.7884 124.985 70.361 125.437 69.8176 125.695C69.2743 125.954 68.6541 126 68.0783 125.825C67.5026 125.651 67.0126 125.268 66.7042 124.751C66.3959 124.235 66.2913 123.622 66.4109 123.032C66.5305 122.442 66.8657 121.919 67.351 121.563V121.568Z" fill="#2F53EB"/>
<path d="M73.883 130.979H76.235C77.5229 130.979 78.758 131.491 79.6687 132.401C80.5794 133.312 81.091 134.547 81.091 135.835V142.22C81.091 142.439 81.0042 142.648 80.8497 142.803C80.6951 142.957 80.4855 143.044 80.267 143.044H69.845C69.6265 143.044 69.4169 142.957 69.2623 142.803C69.1078 142.648 69.021 142.439 69.021 142.22V135.835C69.021 135.197 69.1468 134.565 69.3912 133.975C69.6356 133.386 69.9939 132.85 70.4454 132.399C70.897 131.948 71.433 131.591 72.0228 131.347C72.6127 131.103 73.2448 130.978 73.883 130.979V130.979Z" fill="#3F3D56"/>
<g opacity="0.1">
<path opacity="0.1" d="M78.652 117.036C78.5543 117.142 78.4505 117.242 78.341 117.336C78.4514 117.332 78.5616 117.322 78.671 117.307C78.667 117.213 78.662 117.123 78.652 117.036Z" fill="black"/>
<path opacity="0.1" d="M76.892 115.882C77.135 115.866 77.374 115.841 77.615 115.806C77.831 115.779 78.042 115.721 78.242 115.635C78.1438 115.441 78.0308 115.254 77.904 115.077C77.783 115.151 77.652 115.206 77.515 115.242C77.3247 115.472 77.1164 115.686 76.892 115.882V115.882Z" fill="black"/>
<path opacity="0.1" d="M70.957 117.955C70.9556 117.219 71.1529 116.495 71.5279 115.862C71.903 115.228 72.442 114.707 73.0882 114.354C73.7344 114.001 74.4639 113.828 75.1999 113.855C75.9358 113.882 76.651 114.106 77.27 114.505L77.332 114.439C76.931 114.062 76.458 113.769 75.9413 113.578C75.4247 113.388 74.8749 113.303 74.3248 113.33C73.7748 113.356 73.2357 113.493 72.7398 113.733C72.2439 113.972 71.8012 114.309 71.4383 114.723C71.0754 115.137 70.7997 115.621 70.6276 116.144C70.4555 116.667 70.3906 117.219 70.4367 117.768C70.4828 118.317 70.6389 118.851 70.8958 119.338C71.1527 119.825 71.5051 120.255 71.932 120.603C71.3024 119.864 70.9567 118.926 70.957 117.955V117.955Z" fill="black"/>
</g>
<g opacity="0.1">
<path opacity="0.1" d="M80.273 122.398C80.514 122.382 80.755 122.357 80.994 122.322C81.282 122.295 81.5599 122.202 81.806 122.05C82.0786 122.251 82.306 122.507 82.4732 122.801C82.6405 123.096 82.744 123.422 82.777 123.759C82.7865 123.674 82.7912 123.589 82.791 123.504C82.7933 123.127 82.7066 122.754 82.5379 122.416C82.3692 122.079 82.1232 121.786 81.82 121.561C81.5738 121.712 81.2959 121.805 81.008 121.831L80.814 121.856C80.648 122.05 80.4671 122.232 80.273 122.398V122.398Z" fill="black"/>
<path opacity="0.1" d="M80.37 121.575C80.4506 121.576 80.5311 121.582 80.611 121.593C80.737 121.459 80.862 121.315 80.988 121.175C80.6309 121.08 80.2567 121.068 79.8943 121.14C79.5319 121.213 79.191 121.368 78.8981 121.593C78.6052 121.819 78.368 122.108 78.205 122.44C78.042 122.772 77.9574 123.136 77.958 123.506C77.9561 123.586 77.9601 123.667 77.97 123.747C78.0297 123.152 78.3083 122.6 78.7518 122.199C79.1952 121.797 79.7719 121.575 80.37 121.575Z" fill="black"/>
</g>
<g opacity="0.1">
<path opacity="0.1" d="M68.883 122.398C68.642 122.382 68.401 122.357 68.162 122.322C67.874 122.295 67.5961 122.202 67.35 122.05C67.0774 122.251 66.8501 122.507 66.6828 122.801C66.5155 123.096 66.412 123.422 66.379 123.759C66.3694 123.674 66.3648 123.589 66.365 123.504C66.3627 123.127 66.4494 122.754 66.6181 122.416C66.7868 122.079 67.0328 121.786 67.336 121.561C67.5822 121.712 67.8601 121.805 68.148 121.831L68.342 121.856C68.5069 122.051 68.6879 122.233 68.883 122.398V122.398Z" fill="black"/>
<path opacity="0.1" d="M68.787 121.575C68.7057 121.576 68.6246 121.582 68.544 121.593C68.42 121.459 68.295 121.315 68.169 121.175C68.5261 121.08 68.9003 121.068 69.2627 121.14C69.6251 121.213 69.966 121.368 70.2589 121.593C70.5518 121.819 70.789 122.108 70.952 122.44C71.115 122.772 71.1995 123.136 71.199 123.506C71.2009 123.586 71.1969 123.667 71.187 123.747C71.1273 123.152 70.8487 122.6 70.4052 122.199C69.9618 121.797 69.3851 121.575 68.787 121.575V121.575Z" fill="black"/>
</g>
<path d="M62.239 145.379H43.26C43.0462 145.379 42.8412 145.294 42.6901 145.143C42.5389 144.992 42.454 144.787 42.454 144.573V135.591C42.4538 135.455 42.4881 135.321 42.5537 135.202C42.6193 135.082 42.714 134.982 42.829 134.909C42.944 134.836 43.0756 134.794 43.2115 134.785C43.3473 134.777 43.4831 134.804 43.606 134.862C49.059 137.45 54.933 138.337 61.866 134.903C61.9889 134.842 62.1253 134.814 62.2623 134.82C62.3993 134.827 62.5323 134.868 62.649 134.94C62.7656 135.012 62.862 135.113 62.929 135.232C62.996 135.352 63.0314 135.487 63.032 135.624V144.56C63.0337 144.666 63.0146 144.771 62.9757 144.869C62.9367 144.968 62.8788 145.058 62.8052 145.134C62.7315 145.21 62.6436 145.271 62.5465 145.313C62.4493 145.355 62.3449 145.377 62.239 145.379V145.379Z" fill="#2F53EB"/>
<path opacity="0.1" d="M62.239 145.379H43.26C43.0462 145.379 42.8412 145.294 42.6901 145.143C42.5389 144.992 42.454 144.787 42.454 144.573V135.591C42.4538 135.455 42.4881 135.321 42.5537 135.202C42.6193 135.082 42.714 134.982 42.829 134.909C42.944 134.836 43.0756 134.794 43.2115 134.785C43.3473 134.777 43.4831 134.804 43.606 134.862C49.059 137.45 54.933 138.337 61.866 134.903C61.9889 134.842 62.1253 134.814 62.2623 134.82C62.3993 134.827 62.5323 134.868 62.649 134.94C62.7656 135.012 62.862 135.113 62.929 135.232C62.996 135.352 63.0314 135.487 63.032 135.624V144.56C63.0337 144.666 63.0146 144.771 62.9757 144.869C62.9367 144.968 62.8788 145.058 62.8052 145.134C62.7315 145.21 62.6436 145.271 62.5465 145.313C62.4493 145.355 62.3449 145.377 62.239 145.379V145.379Z" fill="black"/>
<path d="M52.618 138.551C53.2382 138.551 53.741 137.892 53.741 137.08C53.741 136.267 53.2382 135.609 52.618 135.609C51.9978 135.609 51.495 136.267 51.495 137.08C51.495 137.892 51.9978 138.551 52.618 138.551Z" fill="#3F3D56"/>
<path d="M52.618 136.755C53.2382 136.755 53.741 136.096 53.741 135.284C53.741 134.472 53.2382 133.813 52.618 133.813C51.9978 133.813 51.495 134.472 51.495 135.284C51.495 136.096 51.9978 136.755 52.618 136.755Z" fill="#3F3D56"/>
<path d="M52.618 134.956C53.2382 134.956 53.741 134.297 53.741 133.485C53.741 132.673 53.2382 132.014 52.618 132.014C51.9978 132.014 51.495 132.673 51.495 133.485C51.495 134.297 51.9978 134.956 52.618 134.956Z" fill="#3F3D56"/>
<path d="M52.618 133.159C53.2382 133.159 53.741 132.5 53.741 131.688C53.741 130.876 53.2382 130.217 52.618 130.217C51.9978 130.217 51.495 130.876 51.495 131.688C51.495 132.5 51.9978 133.159 52.618 133.159Z" fill="#3F3D56"/>
<path d="M52.618 131.36C53.2382 131.36 53.741 130.701 53.741 129.889C53.741 129.077 53.2382 128.418 52.618 128.418C51.9978 128.418 51.495 129.077 51.495 129.889C51.495 130.701 51.9978 131.36 52.618 131.36Z" fill="#3F3D56"/>
<path d="M52.618 129.561C53.2382 129.561 53.741 128.902 53.741 128.09C53.741 127.277 53.2382 126.619 52.618 126.619C51.9978 126.619 51.495 127.277 51.495 128.09C51.495 128.902 51.9978 129.561 52.618 129.561Z" fill="#3F3D56"/>
<path d="M52.618 127.765C53.2382 127.765 53.741 127.106 53.741 126.294C53.741 125.482 53.2382 124.823 52.618 124.823C51.9978 124.823 51.495 125.482 51.495 126.294C51.495 127.106 51.9978 127.765 52.618 127.765Z" fill="#3F3D56"/>
<path d="M56.829 113.989C56.9816 113.793 57.1212 113.587 57.247 113.373L54.294 112.887L57.488 112.91C57.7957 112.242 57.9633 111.519 57.9805 110.783C57.9977 110.048 57.8641 109.317 57.588 108.636L53.305 110.858L57.256 107.944C56.8862 107.304 56.3885 106.747 55.7939 106.307C55.1994 105.868 54.5206 105.556 53.8001 105.39C53.0795 105.225 52.3326 105.209 51.6058 105.345C50.8791 105.481 50.1881 105.765 49.576 106.18C48.9638 106.594 48.4437 107.13 48.0479 107.755C47.6521 108.379 47.3893 109.079 47.2756 109.809C47.162 110.54 47.2001 111.286 47.3875 112.001C47.575 112.716 47.9077 113.385 48.365 113.966C48.1249 114.269 47.919 114.598 47.751 114.947L51.582 116.96L47.503 115.581C47.217 116.429 47.1466 117.335 47.2981 118.216C47.4497 119.098 47.8184 119.928 48.371 120.632C47.7465 121.426 47.358 122.38 47.2499 123.384C47.1418 124.389 47.3186 125.403 47.76 126.312C48.2013 127.221 48.8895 127.987 49.7457 128.523C50.602 129.059 51.5918 129.343 52.602 129.343C53.6122 129.343 54.602 129.059 55.4583 128.523C56.3146 127.987 57.0027 127.221 57.4441 126.312C57.8854 125.403 58.0622 124.389 57.9541 123.384C57.8461 122.38 57.4576 121.426 56.833 120.632C57.5791 119.683 57.9847 118.511 57.9847 117.305C57.9847 116.098 57.5791 114.926 56.833 113.977L56.829 113.989Z" fill="#2F53EB"/>
<path opacity="0.1" d="M47.212 117.315C47.2101 118.522 47.6161 119.695 48.364 120.643C47.7395 121.437 47.351 122.391 47.2429 123.395C47.1348 124.4 47.3116 125.414 47.753 126.323C48.1943 127.231 48.8825 127.998 49.7387 128.534C50.595 129.07 51.5848 129.354 52.595 129.354C53.6052 129.354 54.595 129.07 55.4513 128.534C56.3076 127.998 56.9957 127.231 57.4371 126.323C57.8784 125.414 58.0552 124.4 57.9471 123.395C57.8391 122.391 57.4506 121.437 56.826 120.643C57.546 119.729 47.212 116.715 47.212 117.315Z" fill="black"/>
<path d="M62.239 145.855H43.26C43.0462 145.855 42.8412 145.77 42.6901 145.619C42.5389 145.468 42.454 145.263 42.454 145.049V135.591C42.4538 135.455 42.4881 135.321 42.5537 135.202C42.6193 135.082 42.714 134.982 42.829 134.909C42.944 134.836 43.0756 134.794 43.2115 134.785C43.3473 134.777 43.4831 134.804 43.606 134.862C49.059 137.45 53.383 140.462 61.866 134.903C61.9883 134.837 62.126 134.804 62.265 134.808C62.4041 134.812 62.5396 134.852 62.6579 134.926C62.7762 134.999 62.8732 135.102 62.9388 135.225C63.0045 135.347 63.0367 135.485 63.032 135.624V145.046C63.0328 145.258 62.95 145.462 62.8016 145.613C62.6532 145.765 62.451 145.852 62.239 145.855Z" fill="#2F53EB"/>
<path d="M203.072 143.18L175.072 146.88L173.672 147.065L159.983 139.753V138.042L202.762 133.376L203.072 143.18Z" fill="#9C9CA1"/>
<path d="M167.916 140.533L198.249 136.957L197.938 142.557L174.31 144.29L167.916 140.533Z" fill="#939498"/>
<path opacity="0.4" d="M175.072 145.045V146.883L173.672 147.077L159.98 139.757V138.046L173.048 145.039C173.72 145.12 174.399 145.122 175.072 145.045Z" fill="black"/>
<path d="M180.447 115.877L174.161 145.025C174.098 145.317 174.105 145.62 174.184 145.908C174.262 146.196 174.408 146.461 174.611 146.681C174.813 146.901 175.065 147.068 175.346 147.17C175.627 147.272 175.928 147.304 176.224 147.265L215.994 142.001C216.34 141.955 216.667 141.813 216.936 141.59C217.206 141.368 217.407 141.074 217.517 140.742L226.097 114.867C226.192 114.58 226.215 114.274 226.166 113.976C226.116 113.677 225.995 113.396 225.812 113.155C225.629 112.914 225.391 112.721 225.117 112.593C224.843 112.465 224.542 112.405 224.24 112.419L182.179 114.419C181.77 114.438 181.379 114.592 181.066 114.855C180.753 115.119 180.536 115.478 180.447 115.877Z" fill="#3F3D56"/>
<path d="M202.05 134.342L202.064 133.534C201.758 133.529 201.454 133.493 201.156 133.427C200.867 133.362 200.585 133.268 200.314 133.148C200.048 133.029 199.793 132.886 199.554 132.719C199.318 132.553 199.098 132.365 198.897 132.157C198.697 131.948 198.516 131.722 198.358 131.479C198.199 131.235 198.064 130.976 197.955 130.705C197.845 130.43 197.762 130.144 197.707 129.853C197.651 129.552 197.626 129.247 197.631 128.942C197.636 128.637 197.673 128.333 197.739 128.035C197.804 127.745 197.897 127.463 198.017 127.192C198.135 126.925 198.278 126.671 198.446 126.433C198.612 126.196 198.8 125.975 199.009 125.775C199.216 125.574 199.443 125.393 199.685 125.236C199.93 125.077 200.189 124.942 200.459 124.833C200.734 124.722 201.019 124.639 201.311 124.585C201.611 124.529 201.916 124.504 202.221 124.509C202.527 124.514 202.83 124.55 203.128 124.616C203.418 124.681 203.7 124.774 203.971 124.894C204.237 125.013 204.492 125.156 204.73 125.324C204.967 125.49 205.187 125.678 205.388 125.886C205.589 126.094 205.769 126.321 205.927 126.563C206.086 126.807 206.221 127.066 206.33 127.337C206.44 127.612 206.523 127.898 206.578 128.189C206.634 128.489 206.659 128.794 206.654 129.099C206.65 129.358 206.623 129.615 206.575 129.869C206.525 130.121 206.454 130.369 206.362 130.609C206.272 130.849 206.161 131.082 206.031 131.303C205.901 131.526 205.751 131.737 205.584 131.934C205.151 132.474 204.644 132.949 204.077 133.346C203.767 133.563 203.441 133.756 203.101 133.923C202.762 134.09 202.41 134.229 202.048 134.341L202.05 134.342ZM202.182 126.314C201.999 126.311 201.816 126.326 201.637 126.361C201.463 126.393 201.292 126.443 201.127 126.509C200.965 126.575 200.81 126.656 200.664 126.751C200.519 126.845 200.383 126.954 200.258 127.074C200.134 127.194 200.021 127.326 199.921 127.468C199.821 127.611 199.735 127.763 199.664 127.923C199.592 128.085 199.537 128.254 199.498 128.428C199.459 128.606 199.437 128.788 199.434 128.971C199.43 129.154 199.446 129.337 199.479 129.516C199.512 129.691 199.561 129.862 199.628 130.027C199.693 130.189 199.773 130.345 199.868 130.491C199.963 130.637 200.071 130.772 200.191 130.897C200.312 131.022 200.444 131.135 200.586 131.235C200.728 131.335 200.881 131.421 201.04 131.492C201.202 131.564 201.371 131.62 201.544 131.659C201.723 131.699 201.905 131.72 202.087 131.723C202.271 131.726 202.454 131.711 202.634 131.678C202.809 131.645 202.981 131.595 203.146 131.529C203.308 131.463 203.464 131.382 203.61 131.286C203.755 131.191 203.891 131.083 204.016 130.962C204.141 130.842 204.253 130.71 204.353 130.568C204.453 130.425 204.539 130.273 204.61 130.113C204.681 129.951 204.737 129.782 204.776 129.609C204.815 129.43 204.836 129.248 204.839 129.066C204.842 128.883 204.827 128.7 204.794 128.52C204.761 128.345 204.711 128.174 204.644 128.01C204.579 127.848 204.498 127.693 204.403 127.546C204.308 127.401 204.199 127.265 204.078 127.141C203.958 127.016 203.826 126.903 203.684 126.804C203.541 126.703 203.389 126.617 203.229 126.546C203.066 126.474 202.897 126.418 202.724 126.38C202.546 126.338 202.364 126.315 202.182 126.311L202.182 126.314ZM202.093 131.388L202.026 131.287C201.793 130.937 201.616 130.553 201.502 130.149L201.47 130.04L202.761 130.063L202.728 130.17C202.599 130.571 202.409 130.948 202.164 131.289L202.093 131.388ZM201.549 131.269L201.35 131.198C200.825 131.007 200.386 130.633 200.115 130.145L200.043 130.016L201.079 130.035L201.095 130.099C201.173 130.439 201.294 130.768 201.454 131.078L201.551 131.269L201.549 131.269ZM202.834 131.227L202.679 131.225L202.747 131.101C202.917 130.796 203.049 130.471 203.141 130.134L203.161 130.071L204.197 130.089L204.121 130.215C203.831 130.692 203.38 131.051 202.849 131.224L202.835 131.224L202.834 131.227ZM204.348 129.702L203.248 129.683L203.262 129.584C203.289 129.403 203.305 129.22 203.31 129.037C203.311 128.854 203.302 128.671 203.281 128.49L203.271 128.389L204.37 128.409L204.386 128.473C204.432 128.663 204.454 128.858 204.452 129.053C204.447 129.248 204.418 129.442 204.366 129.63L204.348 129.694L204.348 129.702ZM202.848 129.676L201.396 129.651L201.388 129.579C201.362 129.39 201.35 129.199 201.352 129.008V129.008C201.357 128.818 201.375 128.628 201.407 128.44L201.421 128.367L202.87 128.393L202.879 128.466C202.905 128.654 202.917 128.845 202.915 129.036V129.036C202.91 129.226 202.891 129.416 202.859 129.605L202.848 129.676V129.676ZM201.004 129.644L199.899 129.625L199.884 129.56C199.84 129.37 199.818 129.175 199.82 128.98C199.823 128.785 199.852 128.592 199.904 128.404L199.922 128.34L201.027 128.36L201.013 128.459C200.986 128.64 200.97 128.822 200.964 129.005C200.963 129.188 200.973 129.371 200.994 129.553L201.004 129.653L201.004 129.644ZM204.233 128.025L203.197 128.007L203.181 127.943C203.102 127.603 202.982 127.274 202.821 126.963L202.725 126.771L202.924 126.845C203.054 126.893 203.18 126.952 203.3 127.022C203.419 127.091 203.532 127.171 203.637 127.26C203.742 127.349 203.839 127.448 203.926 127.554C204.014 127.661 204.092 127.776 204.16 127.897L204.232 128.025L204.233 128.025ZM202.802 128L201.51 127.978L201.543 127.87C201.672 127.47 201.862 127.093 202.107 126.751L202.18 126.652L202.247 126.754C202.48 127.103 202.657 127.487 202.771 127.892L202.801 128L202.802 128ZM201.115 127.971L200.079 127.953L200.153 127.827C200.441 127.349 200.893 126.99 201.425 126.819L201.626 126.754L201.523 126.941C201.353 127.246 201.221 127.57 201.129 127.907L201.111 127.971L201.115 127.971Z" fill="white"/>
</svg>
