<svg viewBox="0 0 270 180" fill="none" xmlns="http://www.w3.org/2000/svg">
  <path fill="#fff" d="M0 0h270v180H0z"/>
  <g clip-path="url(#clip0)">
    <path d="M45 161.348c9.128 0 16.527-1.145 16.527-2.557s-7.4-2.557-16.527-2.557c-9.128 0-16.527 1.145-16.527 2.557s7.4 2.557 16.527 2.557z" fill="#3F3D56"/>
    <path d="M162.209 169.7c46.585 0 84.35-37.765 84.35-84.35 0-46.585-37.765-84.35-84.35-84.35-46.585 0-84.35 37.765-84.35 84.35 0 46.585 37.765 84.35 84.35 84.35z" fill="#2F53EB" fill-opacity=".08"/>
    <path d="M54.561 145.144c-2.11 7.8-9.336 12.629-9.336 12.629s-3.806-7.814-1.7-15.613c2.106-7.799 9.336-12.629 9.336-12.629s3.809 7.814 1.7 15.613z" fill="#2F53EB"/>
    <path d="M35.369 145.144c2.11 7.8 9.336 12.629 9.336 12.629s3.806-7.814 1.7-15.613c-2.106-7.799-9.336-12.629-9.336-12.629s-3.81 7.814-1.7 15.613z" fill="#2F53EB"/>
    <path d="M38.469 143.468c5.789 5.635 6.5 14.3 6.5 14.3s-8.679-.474-14.468-6.109-6.5-14.3-6.5-14.3 8.679.473 14.468 6.109z" fill="#3F3D56"/>
    <path d="M51.461 143.468c-5.789 5.635-6.5 14.3-6.5 14.3s8.679-.474 14.468-6.109 6.5-14.3 6.5-14.3-8.679.473-14.468 6.109zM127.304 178.847c33.848 0 61.287-4.246 61.287-9.484 0-5.238-27.439-9.484-61.287-9.484s-61.287 4.246-61.287 9.484c0 5.238 27.44 9.484 61.287 9.484z" fill="#3F3D56"/>
    <path d="M156.558 48.292a4.189 4.189 0 100-8.377 4.189 4.189 0 000 8.377z" fill="#2F2E41"/>
    <path d="M152.07 42.308a4.189 4.189 0 013.739-4.164 4.191 4.191 0 00-4.646 4.164 4.19 4.19 0 004.646 4.164 4.19 4.19 0 01-3.739-4.164z" fill="#2F2E41"/>
    <path d="M152.369 44.103s-.651 2.992 3.415 4.189z" fill="#2F53EB"/>
    <path d="M158.291 72.556c7.767 0 14.063-6.296 14.063-14.063s-6.296-14.063-14.063-14.063-14.063 6.296-14.063 14.063 6.296 14.063 14.063 14.063z" fill="#2F2E41"/>
    <path d="M144.713 102.358l-.5 10.571 24.163 8.054s-1.259-13.34-.5-14.6l-23.163-4.025zM105.448 149.424l-2.265 8.809h10.571v-8.809h-8.306z" fill="#FFB9B9"/>
    <path d="M160.316 151.766l4.782 1.685 2.517-6.32-4.279-3.371-3.02 8.006z" fill="#A0616A"/>
    <path d="M168.792 140.797s7.131-.937 7.131 5.1 1.007 20.891-9.061 19.129c0 0-4.53.5-2.769-4.782 0 0 1.794-2.15 1.148-3.466-.646-1.316-4.42-2.323-3.917-3.078.503-.755 6.041-6.8 6.041-6.8l1.427-6.103z" fill="#2F2E41"/>
    <path d="M168.875 119.725l-24.666-8.557-1.51 6.041s-37-21.394-39.264-6.8a84.457 84.457 0 001.004 27.437l.252 12.585s6.292 1.51 9.313.252l.252-13.591s2.517-8.809 1.258-15.6c0 0 18.877 14.85 27.434 16.612 0 0-29.951 23.156-26.428 30.455 3.523 7.299 7.8 8.557 13.34 7.3 3.816-.867 20.9-14.644 31.152-23.125a29.076 29.076 0 0010.612-23.911 17.19 17.19 0 00-2.749-9.098z" fill="#2F2E41"/>
    <path d="M104.945 154.962s-.252-3.02-1.762-1.762-6.8 6.041-6.8 6.041-19.129 5.034-7.551 9.816a28.715 28.715 0 0015.6-2.014s12.864.369 12.6-2.836c-.264-3.205-3.286-8.557-3.286-8.557s-3.524 2.583-7.551-.94l-1.25.252z" fill="#2F2E41"/>
    <path d="M154.781 73.414a9.313 9.313 0 100-18.626 9.313 9.313 0 000 18.626z" fill="#FFB9B9"/>
    <path d="M162.331 64.604s1.51 7.551 4.279 9.313l-15.353 18.122-5.789-5.537 4.279-7.551s4.782-2.769 3.272-6.544l9.312-7.803zM167.868 74.672s11.075 2.265 12.333 9.564c1.258 7.299-1.258 20.639-1.258 20.639l-5.286 39.264s-.252 16.612-6.8 13.843c-6.548-2.769 1.762-15.353 1.762-15.353l2.265-24.666s1.007-20.891-1.007-23.407l-8.054-2.517s1.766-16.612 6.045-17.367z" fill="#FFB9B9"/>
    <path d="M149.746 78.95s-7.551-.252-12.333 5.789c-4.782 6.041-16.36 10.571-16.36 10.571l-28.945 11.326s-5.286-9.313-8.558-6.041c-3.272 3.272 6.042 11.577 10.32 10.577 4.278-1 30.2-8.809 30.2-8.809l20.639-9.313 5.037-14.1z" fill="#FFB9B9"/>
    <path d="M166.219 73.316s-9.678 12.933-13.956 12.68c-4.278-.251-1.4-7.9-1.4-7.9l-3.02.756s-4.14 7.9-4.644 8.4c0 0-6.041 9.816.755 12.08l.252 5.287s16.863-.755 24.162 3.02l1.51-13.088s-9.564-4.782-4.279-14.095c0 0 1.875-4.88 3.889-5.382l-3.269-1.758z" fill="#2F53EB"/>
    <path opacity=".1" d="M168.749 142.503l-38.509 28.19s38.761-22.905 38.509-28.19z" fill="#000"/>
    <path d="M155.286 53.169c-4.957 0-8.976 2.344-8.976 5.236a4.261 4.261 0 002.141 3.39l1.728-1.252-.47 1.962c.195.09.394.178.6.259l2.581-3.012v3.7c.792.127 1.592.19 2.394.19 4.957 0 8.976-2.344 8.976-5.236s-4.017-5.237-8.974-5.237zM173.673 54.836a4.189 4.189 0 100-8.377 4.189 4.189 0 000 8.377z" fill="#2F2E41"/>
    <path d="M169.185 48.852a4.185 4.185 0 013.74-4.164 4.191 4.191 0 00-4.646 4.164 4.19 4.19 0 004.646 4.164 4.187 4.187 0 01-3.74-4.164z" fill="#2F2E41"/>
    <path d="M169.484 50.647s-.651 2.992 3.415 4.189z" fill="#2F53EB"/>
    <path d="M164.47 64.981c.402 0 .727-.732.727-1.636 0-.904-.325-1.636-.727-1.636-.401 0-.727.732-.727 1.636 0 .904.326 1.636.727 1.636z" fill="#A0616A"/>
    <path d="M84.221 69.679l-11.036 2.674-.036.009-1.2 1.086-.345.312-.74-.134-1.31-.237.913-3.082.171-5.88-.628-3.6 3.482-2.4s6.79-.396 10.729 11.252z" fill="#D0CDE1"/>
    <path opacity=".1" d="M73.184 72.348c-.15.32.164.108-.007.437l-1.6.514-.716.323-1.31-.237.913-3.082.171-5.879-.628-3.6 3.482-2.4s3.738 5.3-.305 13.924z" fill="#000"/>
    <path d="M97.233 61.227s-14.5 6.735-20.375 7.762c-5.875 1.027-5.365 6.906-5.365 6.906l32.932-5.137s-1.14-5.307-7.192-9.53z" fill="#D0CDE1"/>
    <path d="M69.267 60.086a20.262 20.262 0 01-.285 13.7l3.253 1.484 1.256-1.484.029-.143-3.453-.314s2.854-7.648.514-12.956c-.001-.001-.515-1.143-1.314-.287z" fill="#2F53EB"/>
    <path d="M117.152 105.346c-12.842-2.854-24.8 3.053-24.8 3.053l-.033-.029-4.762-4.251-18.604-30.363 4.537.029c12.613-7.534 30.363-6.506 30.363-6.506 7.65 8.674 13.299 38.067 13.299 38.067z" fill="#2F53EB"/>
    <path opacity=".1" d="M92.321 108.37l-4.762-4.251-18.606-30.364 4.537.029s18.085 23.885 18.831 34.586z" fill="#000"/>
    <path d="M97.165 88.889l-.535-1.051a6.638 6.638 0 01-2.522.703 6.641 6.641 0 01-2.505-.302 6.65 6.65 0 01-3.11-2.157 6.627 6.627 0 01-1.426-3.644c-.03-.425-.019-.85.034-1.273.05-.419.14-.832.27-1.233a6.67 6.67 0 011.227-2.205 6.535 6.535 0 012.051-1.627 6.64 6.64 0 012.522-.703 6.608 6.608 0 012.505.303c.4.132.788.301 1.156.506a6.566 6.566 0 012.677 2.773c.17.337.312.688.422 1.05a6.52 6.52 0 01.288 2.217 6.607 6.607 0 01-.144 1.12 10.614 10.614 0 01-.976 2.854 10.633 10.633 0 01-1.933 2.674v-.005zM91.83 78.445a3.936 3.936 0 00-1.226.974 3.931 3.931 0 00-.733 1.324 3.996 3.996 0 00-.184 1.503 3.93 3.93 0 00.424 1.514 3.963 3.963 0 00.976 1.232 3.958 3.958 0 005.568-.477 3.914 3.914 0 00.736-1.329 3.98 3.98 0 00.184-1.502 3.923 3.923 0 00-.422-1.508 3.957 3.957 0 00-.977-1.232 3.95 3.95 0 00-2.065-.898 3.937 3.937 0 00-1.53.11c-.26.072-.513.169-.754.292l.003-.003zm3.366 6.605l-.156-.085a5.874 5.874 0 01-1.457-1.108l-.115-.119 1.682-.857.03.162c.11.604.123 1.222.04 1.83l-.022.176-.002.001zm-.786.22l-.313.047a3.392 3.392 0 01-2.316-.51l-.18-.117 1.347-.687.066.073c.335.385.716.726 1.136 1.016l.257.179.003-.002zm1.629-.936l-.203.103.007-.208c.01-.51-.043-1.02-.155-1.517l-.019-.096 1.348-.687-.011.214a3.408 3.408 0 01-.949 2.174l-.015.016-.003.001zm.906-3.005l-1.438.733-.049-.134a6.74 6.74 0 00-.312-.738 6.742 6.742 0 00-.414-.687l-.08-.118 1.439-.733.065.073c.19.214.351.45.483.704.127.255.223.525.285.803l.02.095.001.002zm-1.953.995l-1.89.963-.061-.087a5.873 5.873 0 01-.438-.711 5.881 5.881 0 01-.318-.772l-.033-.102 1.888-.962.061.088c.163.226.309.464.438.71.124.25.23.508.318.773l.034.1h.001zm-2.4 1.223l-1.438.733-.064-.073a3.632 3.632 0 01-.482-.705 3.376 3.376 0 01-.287-.802l-.02-.095 1.438-.733.05.133c.088.253.192.5.311.739.124.237.263.467.415.687l.079.118-.001-.002zm3.051-4.3l-1.348.688-.065-.073a6.137 6.137 0 00-1.136-1.016l-.26-.18.312-.048a3.458 3.458 0 011.207.047 3.368 3.368 0 011.114.467l.18.117-.004-.001zm-1.863.95l-1.682.857-.03-.162a5.855 5.855 0 01-.04-1.83l.022-.176.156.085c.54.29 1.032.665 1.457 1.108l.114.12.003-.002zm-2.197 1.12l-1.348.686.01-.214a3.388 3.388 0 01.948-2.173l.222-.225-.006.313c-.01.51.042 1.018.154 1.516l.02.095v.001z" fill="#fff"/>
  </g>
  <defs>
    <clipPath id="clip0">
      <path fill="#fff" d="M24 1h222.558v177.846H24z"/>
    </clipPath>
  </defs>
</svg>
