<svg viewBox="0 0 300 185" fill="none" xmlns="http://www.w3.org/2000/svg">
  <path d="M194.648 19.778H105.39v145.428h89.258V19.778z" fill="#FF5F00"/>
  <path d="M114.584 92.505a92.137 92.137 0 019.306-40.42 92.368 92.368 0 0126.103-32.28A92.832 92.832 0 00102.596.565a92.907 92.907 0 00-50.41 8.774 92.63 92.63 0 00-38.064 34.116A92.314 92.314 0 000 92.518a92.313 92.313 0 0014.122 49.064 92.627 92.627 0 0038.064 34.116 92.91 92.91 0 0050.41 8.775 92.836 92.836 0 0047.397-19.241 92.376 92.376 0 01-26.109-32.291 92.139 92.139 0 01-9.3-40.436z" fill="#EB001B"/>
  <path d="M300 92.505a92.312 92.312 0 01-14.125 49.067 92.626 92.626 0 01-38.07 34.115 92.909 92.909 0 01-50.415 8.769 92.836 92.836 0 01-47.397-19.25 92.517 92.517 0 0026.098-32.291 92.285 92.285 0 000-80.845 92.522 92.522 0 00-26.098-32.291A92.834 92.834 0 01197.39.529a92.91 92.91 0 0150.415 8.769 92.632 92.632 0 0138.07 34.115A92.311 92.311 0 01300 92.48v.025z" fill="#F79E1B"/>
</svg>
